<?xml version="1.0" encoding="UTF-8"?>
<svg version="1.1" viewBox="0 0 400 600" xmlns="http://www.w3.org/2000/svg">
 <path d="m200 578.46c0.0276 1.3936 0 0 0 0zm-33.051-3.1369c-23.751-1.9677-48.12-7.9412-60.318-14.785-5.1342-2.8808-10.763-7.1124-10.59-7.9613 0.06332-0.31063-0.31675-1.6115-0.84458-2.8908s-0.9597-3.3718-0.9597-4.6499-12.828-107.62-28.506-236.33-28.506-236.09-28.506-238.63c0-10.838 8.1749-18.698 28.258-27.168 22.609-9.5353 96.561-19.268 94.03-19.216 0.0301 0 41.299-2.4574 40.487-2.5611l38.008 2.5948s112.57 20.88 120.47 39.368l1.6646 3.8948-28.888 239.21c-15.889 131.56-29.261 240.62-29.716 242.35-0.93435 3.55-5.572 8.4667-10.97 11.63-11.683 6.847-36.243 13.002-60.41 15.139 0 0-63.931 0.3217-63.21 7e-3zm68.788-12.52c13.491-1.8334 25.735-5.0782 34.034-9.0192 12.056-5.7254 20.238-14.446 20.267-21.602 0.01-2.4609-3.5434-11.155-4.5593-11.155-0.29159 0-1.5748 0.74386-2.8516 1.653-4.5186 3.2176-16.214 8.2511-23.961 10.312-17.909 4.7654-28.141 5.7066-62.383 5.7386-28.86 0.027-32.3-0.12183-42.553-1.8406-14.335-2.4031-25.072-5.2594-33.698-8.9641-3.7832-1.6249-6.9942-2.8195-7.1354-2.6546-2.5723 3.0038-2.8547 10.932-0.55022 15.449 6.0757 11.909 26.072 19.81 56.669 22.389 5.9078 0.49802 12.415 1.0496 14.46 1.2257 7.8276 0.67403 43.784-0.38032 52.262-1.5325zm-109.32-78.144c0.1691-33.785-7.7892-156.92-18.077-279.68-0.79972-9.5434-1.2319-17.612-0.9604-17.93 0.27151-0.31807 1.9809-0.24924 3.7987 0.15297s7.9529 1.3114 13.633 2.0204c57.018 7.1167 128.4 5.0676 169.89-4.8772 11.233-2.692 22.529-6.5919 30.158-10.412 6.617-3.3131 7.3484-4.3672 7.3396-10.578l-3e-3 -2.169-1.5563 2.5521c-0.85593 1.4037-2.6207 3.3912-3.9217 4.4168l-2.3654 1.8647-0.47268-3.414c-0.6784-4.8999-2.3792-6.2459-7.8926-6.2459-3.8248 0-4.8507 0.32447-6.1675 1.9506-1.9279 2.3808-2.1413 8.9718-0.36641 11.318 0.66722 0.88214 1.225 1.8377 1.2394 2.1234 0.0342 0.67632-13.529 4.3068-25.588 6.8492-10.514 2.2166-28.554 5.0381-37.802 5.9121l-5.9905 0.56617v-2.8706c0-3.9545-2.2852-5.9055-6.36-5.4297-2.5452 0.29713-3.4107 7e-3 -4.6413-1.5578-0.83177-1.0577-1.8573-1.9231-2.2788-1.9231s0.0205 0.78681 0.98217 1.7485c1.3868 1.3868 1.6585 2.419 1.3137 4.99-0.23913 1.7829-0.88555 3.7847-1.4365 4.4486-1.3067 1.5744-6.9399 1.5586-8.5224-0.0239-1.7234-1.7234-2.4696-5.7959-1.421-7.7553 1.3996-2.6153 0.97385-3.1718-0.79875-1.0441-1.7702 2.1249-2.149 6.6811-0.76972 9.2583 0.83696 1.5639 0.31403 1.5982-24.325 1.5982-31.5 0-63.12-2.5755-82.409-6.7123-3.7126-0.79621-3.8586-0.9411-4.3184-4.2858-0.48145-3.5019-2.9636-34.462-4.7253-58.938l-0.95992-13.337-8.165-2.1942c-4.4908-1.2068-9.7082-2.7386-11.594-3.4041s-3.525-1.113-3.642-0.99455c-0.22232 0.22522 2.2784 24.34 5.8061 55.989 2.4548 22.024 2.3932 20.657 0.93195 20.657-2.6271 0-14.69-5.2615-19.025-8.2982-3.2232-2.2579-4.3796-2.76-3.7813-1.6421 1.4773 2.7603 6.2439 5.8218 15.484 9.945 4.8974 2.1854 8.9885 4.4726 9.0913 5.0828 0.10283 0.61022 1.3251 12.45 2.7161 26.311 13.802 137.53 30.071 270.18 35.264 287.54l1.3595 4.5445 0.63931-3.3051c0.35162-1.8178 0.66073-7.5863 0.68693-12.819zm105.75-295.29c-0.25864-0.26309-0.25864-2.0639 0-4.0018 0.43004-3.2222 0.69097-3.5449 3.052-3.7746 4.0227-0.39139 6.5617 3.1281 4.548 6.3043-0.72171 1.1384-6.7754 2.3109-7.6 1.472zm79.513-16.821c-0.93618-0.79529-1.9418-2.8055-2.2346-4.4671-0.74459-4.2243 1.5628-6.481 6.6266-6.481 4.6508 0 6.7119 2.4688 5.8585 7.0176-0.87524 4.6654-6.7387 6.9138-10.25 3.9305zm21.023-14.029c-0.27456-0.27456-0.46985 0.21346-0.43397 1.0845 0.0397 0.96256 0.23543 1.1584 0.4992 0.49921 0.23868-0.59647 0.20933-1.3091-0.0652-1.5837zm0.01-4.8165c-0.25141-0.65514-0.91495-1.1912-1.4746-1.1912-0.79136 0-0.79712 0.22034-0.0259 0.99153 0.54534 0.54534 1.0347 1.7538 1.0874 2.6854 0.0827 1.4613 0.149 1.4887 0.48302 0.19962 0.21294-0.82184 0.18148-2.0303-0.0699-2.6854z" fill="#e8fafd"/>
 <path d="m170.25 575.48c-25.564-2.2031-48.184-7.4276-61.685-14.247-6.5965-3.3319-12.052-7.4704-12.486-9.4708-0.68904-3.1787-58.824-480.04-58.84-482.65-0.043827-6.8023 7.25-15.334 17.888-20.924 11.939-6.2737 30.674-12.629 47.858-16.235 10.105-2.1202 53.261-7.4362 67.266-8.2858 0 0 28.495-1.5961 28.82-1.6071 8.8488-0.2997 18.534 0.99848 27.367 1.6064 17.561 0.97479 48.103 4.6421 60.318 7.2427 6.1351 1.3062 13.722 2.8533 16.859 3.4381 3.1374 0.58475 6.6698 1.5669 7.8496 2.1826 1.1798 0.61566 2.7433 1.1217 3.4744 1.1245 2.3061 0.0088 18.619 6.3779 25.486 9.9505 10.587 5.5082 16.664 11.76 18.289 18.817 0.76758 3.334-0.4417 13.544-36.464 307.86-11.341 92.663-20.621 169.74-20.621 171.29 0 13.983-28.381 25.555-72.667 29.63-13.757 1.2659-45.542 1.4205-58.71 0.28561zm59.318-11.52c23.604-2.5183 40.487-7.9451 51.296-16.489 8.6542-6.8408 11.362-14.831 7.5556-22.293-2.1782-4.2696-2.8835-4.5756-5.7842-2.5102-3.4869 2.4829-11.717 6.0854-19.429 8.5045-17.387 5.454-38.852 8.0291-66.928 8.0291-33.589 0-56.956-3.5375-76.44-11.572-3.3006-1.3611-6.3123-2.4747-6.6926-2.4747-1.7285 0-3.3995 5.3233-2.926 9.3213 1.9254 16.257 24.335 26.651 64.163 29.761 8.9373 0.69781 47.881 0.50234 55.186-0.277zm-103.16-79.304c0.1691-33.785-7.7892-156.92-18.077-279.68-0.79972-9.5434-1.2319-17.612-0.9604-17.93 0.27151-0.31807 1.9809-0.24924 3.7987 0.15297s7.9529 1.3114 13.633 2.0204c57.018 7.1167 128.4 5.0676 169.89-4.8772 11.326-2.7143 22.523-6.5922 30.477-10.555 3.6356-1.8113 6.6614-3.3431 6.7241-3.4039s0.34986-2.8992 0.6382-6.3076c0.52168-6.1668 0.51827-6.1809-0.69917-2.892-0.67288 1.8178-2.6333 4.604-4.3564 6.1916l-3.133 2.8865-0.47268-3.5362c-0.67082-5.0186-2.3434-6.3681-7.8926-6.3681-3.8248 0-4.8507 0.32447-6.1675 1.9506-1.9279 2.3808-2.1413 8.9718-0.36641 11.318 0.66721 0.88214 1.225 1.8377 1.2394 2.1234 0.0342 0.67632-13.529 4.3068-25.588 6.8492-10.514 2.2166-28.554 5.0381-37.802 5.9121l-5.9905 0.56617v-2.8706c0-3.9545-2.2852-5.9055-6.36-5.4297-2.5452 0.29713-3.4107 7e-3 -4.6413-1.5578-0.83198-1.0577-1.8575-1.9231-2.279-1.9231s0.0205 0.78681 0.98217 1.7485c1.3868 1.3868 1.6585 2.419 1.3137 4.99-0.23913 1.7829-0.88555 3.7847-1.4365 4.4486-1.3067 1.5744-6.9399 1.5586-8.5224-0.0239-1.7234-1.7234-2.4696-5.7959-1.421-7.7553 1.3996-2.6153 0.97385-3.1718-0.79875-1.0441-1.7702 2.1249-2.149 6.6811-0.76972 9.2583 0.83696 1.5639 0.31403 1.5982-24.325 1.5982-31.51 0-63.119-2.5754-82.425-6.7157-4.5756-0.98128-3.9829 1.6328-6.5162-28.744-1.3232-15.867-1.4648-20.308-0.66294-20.804 0.56069-0.34652 5.1308-1.406 10.156-2.3544 29.019-5.477 66.409-7.6114 105.19-6.0047 33.339 1.3812 56.079 4.5777 80.838 11.363 18.073 4.9534 32.568 13.227 32.568 18.591 0 0.88977 0.37182 1.6178 0.82627 1.6178s0.82853-1.0225 0.83128-2.2722c2e-3 -1.2497 1.6619-16.013 3.6869-32.807s3.5591-30.657 3.409-30.807c-0.15008-0.15007-3.2035 1.0657-6.7854 2.7016-20.467 9.3482-48.767 15.975-82.529 19.327-51.426 5.1046-119.11 1.5131-156.44-8.3016-15.179-3.9902-28.028-8.4527-36.301-12.607-4.657-2.3389-7.6258-3.4246-7.6256-2.7888 1.59e-4 0.57262 1.6734 14.739 3.7182 31.481s3.7179 30.825 3.7179 31.297c0 0.47155 1.7092-0.7181 3.7982-2.6436 3.5242-3.2485 13.481-8.5769 17.253-9.2326 1.7427-0.30296 1.4705-2.0156 4.9775 31.321 0.44952 4.273 0.33022 5.1642-0.6913 5.1642-2.6764 0-14.699-5.2219-19.066-8.281-2.5403-1.7795-4.6071-2.7822-4.5931-2.2282 0.04652 1.8338 7.2518 6.4892 16.277 10.516 4.8945 2.1841 8.9833 4.4703 9.0861 5.0805 0.10283 0.61022 1.3251 12.45 2.7161 26.311 13.802 137.53 30.071 270.18 35.264 287.54l1.3595 4.5445 0.63931-3.3051c0.35162-1.8178 0.66073-7.5863 0.68693-12.819zm105.75-295.29c-0.25864-0.26309-0.25864-2.0639 0-4.0018 0.43004-3.2222 0.69097-3.5449 3.052-3.7746 4.0227-0.39139 6.5617 3.1281 4.548 6.3043-0.72171 1.1384-6.7754 2.3109-7.6 1.472zm79.513-16.821c-0.93618-0.79529-1.9418-2.8055-2.2346-4.4671-0.74459-4.2243 1.5628-6.481 6.6266-6.481 4.6508 0 6.7119 2.4688 5.8585 7.0176-0.87524 4.6654-6.7387 6.9138-10.25 3.9305zm-68.301-73.726c37.749-3.923 60.592-8.9817 76.316-16.9 19.425-9.7823 18.939-21.817-1.2586-31.125-17.096-7.8789-51.363-14.512-84.858-16.426-74.265-4.2437-146.8 6.5516-163.14 24.28-3.3239 3.606-3.8394 5.0213-3.4894 9.58 0.59541 7.7556 15.714 16.827 37.168 22.301 15.176 3.872 44.245 7.8339 69.032 9.4086 9.8378 0.62497 61.351-0.19538 70.233-1.1185z" fill="#cbf5fd"/>
 <path d="m173.56 575.53c-20.422-1.7531-39.316-5.1296-51.642-9.2285-8.1434-2.7081-18.424-7.7531-22.309-10.948-1.8166-1.4938-0.82329-1.1659 3.7182 1.2272 11.462 6.0397 31.516 11.244 56.186 14.581 17.21 2.3278 53.984 2.1112 70.233-0.41348 14.61-2.27 28.524-5.6187 43.17-10.389 13.708-4.4649 20.669-7.858 25.204-12.285 3.8133-3.7228 4.3889-3.0298 1.9477 2.345-4.867 10.716-28.7 19.56-64.538 23.951-12.353 1.5134-49.71 2.2128-61.97 1.1603zm-9.9152-37.641c-18.819-2.0266-35.727-6.2798-47.721-12.004-6.9287-3.3067-13.124-9.2228-13.74-13.12-1.1832-7.4894-41.647-344.18-41.394-344.43 0.15864-0.15923 1.7409 0.87776 3.5162 2.3044 1.7753 1.4266 7.2843 4.4041 12.242 6.6165 4.958 2.2124 9.0986 4.5218 9.2014 5.132 0.10283 0.61022 1.3251 12.45 2.7161 26.311 13.802 137.53 30.071 270.18 35.264 287.54l1.3595 4.5445 0.63931-3.3051c2.8076-14.515-4.7559-141.73-17.39-292.5-0.79972-9.5434-1.2319-17.612-0.9604-17.93 0.27151-0.31807 1.9809-0.24924 3.7987 0.15297s7.9529 1.3114 13.633 2.0204c57.018 7.1167 128.4 5.0676 169.89-4.8772 11.322-2.7133 22.543-6.599 30.356-10.511 3.569-1.7872 6.5812-3.1331 6.6939-2.9907 0.24711 0.31227-40.69 340.73-41.289 343.35-1.6901 7.3847-20.587 16.451-44.192 21.203-18.537 3.7312-59.633 4.9732-82.627 2.497zm-12.348-348.69c-12.898-1.1246-33.448-3.8512-40.622-5.3896-4.6271-0.99233-4.0246 1.6483-6.56-28.753-1.3232-15.867-1.4648-20.308-0.66294-20.804 0.56069-0.34652 5.1308-1.406 10.156-2.3544 29.019-5.477 66.409-7.6114 105.19-6.0048 33.339 1.3812 56.079 4.5777 80.838 11.363 18.38 5.0374 31.555 12.612 32.742 18.824 0.62849 3.2877-1.4766 8.1488-4.891 11.295l-3.133 2.8865-0.47268-3.5362c-0.67082-5.0186-2.3434-6.3681-7.8926-6.3681-3.8248 0-4.8507 0.32447-6.1675 1.9506-1.9279 2.3808-2.1413 8.9718-0.36641 11.318 0.66721 0.88214 1.225 1.8377 1.2394 2.1234 0.0342 0.67632-13.529 4.3068-25.588 6.8492-10.514 2.2166-28.554 5.0381-37.802 5.9121l-5.9905 0.56617v-2.8706c0-3.9545-2.2852-5.9055-6.36-5.4297-2.5452 0.29713-3.4107 7e-3 -4.6413-1.5578-0.83198-1.0577-1.8575-1.9231-2.279-1.9231s0.0205 0.78681 0.98217 1.7485c1.3868 1.3868 1.6585 2.419 1.3137 4.99-0.23913 1.7829-0.88555 3.7847-1.4365 4.4486-1.3067 1.5744-6.9399 1.5586-8.5224-0.0239-1.7234-1.7234-2.4696-5.7959-1.421-7.7553 1.3996-2.6153 0.97385-3.1718-0.79875-1.0441-1.7702 2.1249-2.149 6.6811-0.76972 9.2583 0.83807 1.566 0.30826 1.5962-26.234 1.4962-14.899-0.0561-32.832-0.60272-39.851-1.2147zm80.871 0.16601c-0.25864-0.26309-0.25864-2.0639 0-4.0018 0.43004-3.2222 0.69097-3.5449 3.052-3.7746 4.0227-0.39139 6.5617 3.1281 4.548 6.3043-0.72171 1.1384-6.7754 2.3109-7.6 1.472zm-156.52-14.809c-7.0729-2.8571-13.974-7.1707-15.165-9.4789-0.40149-0.77815-0.97666-3.6804-1.2782-6.4495l-0.54819-5.0346 3.8245-3.5253c3.5457-3.2683 13.497-8.5993 17.28-9.2569 1.7427-0.30296 1.4705-2.0156 4.9775 31.321 0.65909 6.2651 0.51342 6.304-9.0904 2.4245zm236.03-2.0113c-0.93618-0.79529-1.9418-2.8055-2.2346-4.4671-0.74459-4.2243 1.5628-6.481 6.6266-6.481 4.6508 0 6.7119 2.4688 5.8585 7.0176-0.87524 4.6654-6.7387 6.9138-10.25 3.9305z" fill="#f8ddc1"/>
 <path d="m173.56 575.53c-20.422-1.7531-39.316-5.1296-51.642-9.2285-8.1434-2.7081-18.424-7.7531-22.309-10.948-1.8166-1.4938-0.82329-1.1659 3.7182 1.2272 11.462 6.0397 31.516 11.244 56.186 14.581 17.21 2.3278 53.984 2.1112 70.233-0.41348 14.61-2.27 28.524-5.6187 43.17-10.389 13.708-4.4649 20.669-7.858 25.204-12.285 3.8133-3.7228 4.3889-3.0298 1.9477 2.345-4.867 10.716-28.7 19.56-64.538 23.951-12.353 1.5134-49.71 2.2128-61.97 1.1603zm-8.3317-37.624c-36.034-3.7489-61.558-14.38-63.1-26.282-0.2425-1.8717-9.5598-79.069-20.705-171.55s-20.453-168.99-20.684-170.03c-0.38689-1.7311-0.04266-1.6244 4.3519 1.3488 4.3304 2.9299 13.482 7.3338 18.197 8.7565 2.3244 0.70142 2.1721-0.13235 4.7604 26.065 12.13 122.77 29.397 265.31 34.782 287.13 1.7836 7.2268 2.0927 7.8119 2.8374 5.3708 3.28-10.752-3.3824-126.21-16.652-288.59-0.99405-12.163-1.5916-22.331-1.3279-22.595 0.26369-0.26368 5.9903 0.28476 12.726 1.2188 52.171 7.2345 117.91 6.4414 163.45-1.9721 16.62-3.07 35.301-9.0661 43.999-14.122l3.5116-2.0413v1.7776c0 1.9028-40.154 336.56-40.899 340.86-1.8399 10.631-29.347 21.159-64.54 24.702-14.937 1.5037-45.987 1.4743-60.71-0.0574zm107.69-91.309c0.94275-1.1535 1.446-3.1882 1.446-5.8466 0-5.1141-2.5458-8.1336-6.8577-8.1336-4.2586 0-5.9495 2.3937-5.9495 8.4225 0 4.2643 0.28133 5.1717 2.0466 6.6011 2.5562 2.0699 7.1948 1.5503 9.3146-1.0434zm-13.433-22.65c1.3905-1.4801 2.0399-3.3286 2.3089-6.572 0.707-8.5254-1.518-12.025-7.6446-12.025-2.8017 0-3.8949 0.38447-4.5445 1.5982-1.215 2.2702-1.1053 16.826 0.13619 18.067 0.54534 0.54534 2.5255 0.99152 4.4005 0.99152 2.565 0 3.8878-0.50978 5.3436-2.0593zm-95.015-233.99c-21.515-1.5959-56.332-5.9154-57.557-7.1406-0.74238-0.74238-4.1442-48.137-3.4844-48.545 1.2861-0.79486 19.192-3.92 33.774-5.8947 12.667-1.7154 16.766-1.8475 57.839-1.8642 41.746-0.017 44.987 0.0889 58.252 1.9035 34.711 4.7481 59.842 11.496 71.256 19.132 2.6186 1.7518 5.4117 4.2937 6.207 5.6486 2.703 4.6049 1.3618 10.533-3.1934 14.116-2.955 2.3244-3.6233 2.1785-3.6233-0.79086 0-3.9043-3.1867-6.5726-7.8496-6.5726-5.3393 0-7.8496 2.5716-7.8496 8.0413 0 2.3178 0.55381 4.7758 1.3237 5.8749 0.72803 1.0394 1.1928 2.0062 1.0328 2.1484-2.6195 2.3285-47.956 11.019-64.12 12.292l-5.1642 0.40648v-2.7546c0-3.7446-1.84-5.3514-6.128-5.3514-2.4818 0-3.9756-0.49109-5.0267-1.6525-0.82255-0.9089-2.0886-1.629-2.8134-1.6002-0.89581 0.0356-0.74742 0.28247 0.46338 0.77085 3.1573 1.2735 3.1756 8.9191 0.0261 10.922-1.8388 1.1692-6.0788 0.668-7.484-0.88474-2.1594-2.3861-2.0179-7.4922 0.25862-9.3356 1.3669-1.1069 1.5345-1.5246 0.6118-1.5246-3.4504 0-5.9739 7.6361-3.8407 11.622 0.83766 1.5652 0.33821 1.5952-24.168 1.4539-13.763-0.0794-26.697-0.26846-28.742-0.42016zm68.146-0.73835c-0.46609-0.20009-0.70563-1.8507-0.53232-3.668 0.26032-2.7298 0.68124-3.3961 2.4213-3.8328 1.1584-0.29074 2.6993-0.1575 3.4243 0.2961 1.4535 0.90942 2.2564 5.0344 1.1761 6.0424-0.88555 0.82637-5.3918 1.6335-6.4894 1.1623zm-153.86-13.577c-6.2545-2.2233-13.738-6.3784-16.296-9.0478-2.8804-3.0065-4.2407-10.987-2.3745-13.931 1.7653-2.7848 7.6967-6.789 14.542-9.8174 5.3747-2.3776 6.0329-2.5026 6.5305-1.2394 0.30437 0.77259 1.1647 7.9116 1.9118 15.864 0.74714 7.9529 1.562 15.668 1.8108 17.145 0.53294 3.1637 0.09468 3.2372-6.1255 1.0261zm233.36-2.6786c-2.9497-2.1756-3.1511-8.9061-0.32032-10.706 1.5617-0.99274 7.5804-0.75976 8.676 0.33585 1.092 1.092 1.3299 7.1124 0.34236 8.6655-0.66189 1.0409-4.5473 2.7371-6.27 2.7371-0.56523 0-1.6578-0.46477-2.428-1.0328z" fill="#fce0ad"/>
 <path d="m173.56 575.53c-20.422-1.7531-39.316-5.1296-51.642-9.2285-8.1434-2.7081-18.424-7.7531-22.309-10.948-1.8166-1.4938-0.82329-1.1659 3.7182 1.2272 11.462 6.0397 31.516 11.244 56.186 14.581 17.21 2.3278 53.984 2.1112 70.233-0.41348 14.61-2.27 28.524-5.6187 43.17-10.389 13.708-4.4649 20.669-7.858 25.204-12.285 3.8133-3.7228 4.3889-3.0298 1.9477 2.345-4.867 10.716-28.7 19.56-64.538 23.951-12.353 1.5134-49.71 2.2128-61.97 1.1603zm-8.3317-37.624c-36.034-3.7489-61.558-14.38-63.1-26.282-0.2425-1.8717-9.5598-79.069-20.705-171.55s-20.452-168.99-20.681-170.01c-0.37376-1.6739 0.12381-1.4956 4.8451 1.7367 2.8939 1.9812 8.4918 4.8657 12.44 6.41 5.2196 2.0416 7.2727 3.2586 7.5244 4.4603 0.19037 0.9089 1.1314 9.8326 2.0911 19.831 10.578 110.19 29.787 268.97 35.187 290.85 1.7836 7.2268 2.0927 7.8119 2.8374 5.3708 3.2891-10.782-3.3779-126.27-16.683-289-0.976-11.937-1.5692-21.908-1.3181-22.159s5.7913 0.30125 12.312 1.2273c42.6 6.05 107.42 6.437 147.36 0.87976 21.883-3.0448 45.349-9.3958 57.769-15.635 5.7578-2.8926 6.2672-3.0146 6.2672-1.5016 0 1.8163-40.187 336.62-40.899 340.73-1.8399 10.631-29.347 21.159-64.54 24.702-14.937 1.5037-45.987 1.4743-60.71-0.0574zm107.69-91.309c0.94275-1.1535 1.446-3.1882 1.446-5.8466 0-5.1141-2.5458-8.1336-6.8577-8.1336-4.2586 0-5.9495 2.3937-5.9495 8.4225 0 4.2643 0.28133 5.1717 2.0466 6.6011 2.5562 2.0699 7.1948 1.5503 9.3146-1.0434zm-13.433-22.65c1.3905-1.4801 2.0399-3.3286 2.3089-6.572 0.707-8.5254-1.518-12.025-7.6446-12.025-2.8017 0-3.8949 0.38447-4.5445 1.5982-1.215 2.2702-1.1053 16.826 0.13619 18.067 0.54534 0.54534 2.5255 0.99152 4.4005 0.99152 2.565 0 3.8878-0.50978 5.3436-2.0593zm-89.986-129.55c2.1819-1.6752 3.2335-4.4155 3.2335-8.4262 0-5.2887-2.5776-7.8663-7.8663-7.8663-2.0956 0-4.4995 0.36897-5.3422 0.81993-3.6168 1.9356-4.0865 11.202-0.74937 14.784 1.8638 2.0006 8.4636 2.4243 10.724 0.68851zm-7.1232-33.166c4.8068-2.0084 7.1913-9.5328 5.3946-17.022-1.3973-5.8246-4.4615-8.2439-10.442-8.2439-2.4945 0-5.2828 0.39999-6.1963 0.88887-2.0369 1.0901-6.4932 10.758-6.4932 14.088 0 8.8732 8.8453 14.005 17.736 10.29zm-79.622-53.317c1.3711-4.5764-0.15624-8.3055-3.4017-8.3055-2.6101 0-3.2932 1.1998-3.2932 5.7839 0 4.6176 0.67758 5.7839 3.3603 5.7839 2.0291 0 2.4933-0.45416 3.3347-3.2623zm81.716-17.959c-21.515-1.5959-56.332-5.9154-57.557-7.1406-0.74238-0.74238-4.1442-48.137-3.4844-48.545 1.2861-0.79486 19.192-3.92 33.774-5.8947 12.667-1.7153 16.768-1.8475 57.839-1.8648 41.738-0.0176 44.966 0.0878 57.839 1.8881 26.992 3.7751 49.705 9.0749 63.324 14.776 9.1674 3.8376 15.998 9.9079 15.998 14.217 0 3.6428-2.1684 8.0073-4.9691 10.002l-2.2865 1.6281-0.53429-2.848c-1.1254-5.9988-9.3707-8.4432-14.267-4.2295-1.9934 1.7156-2.3099 2.5812-2.2584 6.1765 0.0402 2.8091 0.55056 4.7235 1.555 5.8334 1.4571 1.6101 1.4345 1.6754-0.88618 2.567-7.3692 2.8315-42.646 9.7516-56.502 11.084-2.9539 0.28399-6.5792 0.70135-8.0562 0.92747-2.5423 0.38923-2.6854 0.27418-2.6854-2.1594 0-4.501-1.2358-5.767-5.6293-5.767-2.8962 0-4.2879-0.43119-5.3336-1.6525-0.77822-0.9089-1.9594-1.6525-2.6249-1.6525-0.84018 0-0.59014 0.61979 0.81818 2.0281 2.2495 2.2495 2.4421 3.3856 1.1502 6.7837-1.0875 2.8603-2.1356 3.5535-5.3976 3.5696-3.4469 0.017-5.2923-2.2178-5.2923-6.4092 0-2.5765 0.44466-3.7112 1.8364-4.686 1.3152-0.92121 1.4733-1.2862 0.55717-1.2862-0.70358 0-2.0877 0.86056-3.0758 1.9124-1.9605 2.0868-2.4298 6.9284-0.94123 9.7098 0.83767 1.5652 0.33821 1.5952-24.168 1.4539-13.763-0.0794-26.697-0.26846-28.742-0.42016zm68.334-0.78357c-0.31893-0.31893-0.57987-1.9981-0.57987-3.7315 0-2.6401 0.32277-3.2326 1.9887-3.6508 3.0068-0.75465 5.4477 0.92699 5.4477 3.753 0 1.3205-0.27887 2.5651-0.61971 2.7657-1.3732 0.80821-5.6939 1.4064-6.2369 0.86352zm-154.05-13.532c-6.2545-2.2233-13.738-6.3784-16.296-9.0478-2.8804-3.0065-4.2407-10.987-2.3745-13.931 1.7653-2.7848 7.6967-6.789 14.542-9.8174 5.3747-2.3776 6.0329-2.5026 6.5305-1.2394 0.30437 0.77259 1.1647 7.9116 1.9118 15.864 0.74714 7.9529 1.562 15.668 1.8108 17.145 0.53294 3.1637 0.09468 3.2372-6.1255 1.0261zm232.51-3.9831c-1.848-2.0421-1.7668-6.9605 0.14357-8.6893 1.9138-1.7319 7.0549-1.7725 8.7583-0.0691 2.0177 2.0177 1.6942 7.4196-0.53797 8.9831-2.488 1.7427-6.6855 1.6299-8.3639-0.22478z" fill="#f9d5ac"/>
 <path d="m173.56 575.53c-20.422-1.7531-39.316-5.1296-51.642-9.2285-8.1434-2.7081-18.424-7.7531-22.309-10.948-1.8166-1.4938-0.82329-1.1659 3.7182 1.2272 11.462 6.0397 31.516 11.244 56.186 14.581 17.21 2.3278 53.984 2.1112 70.233-0.41348 14.61-2.27 28.524-5.6187 43.17-10.389 13.708-4.4649 20.669-7.858 25.204-12.285 3.8133-3.7228 4.3889-3.0298 1.9477 2.345-4.867 10.716-28.7 19.56-64.538 23.951-12.353 1.5134-49.71 2.2128-61.97 1.1603zm-3.3051-37.227c-12.457-1.1196-27.652-3.7819-37.852-6.6317-15.538-4.3413-28.112-11.719-29.44-17.273-0.5185-2.17-41.776-342.22-41.776-344.33 0-0.90542 0.77956-0.63886 2.9312 1.0023 3.1638 2.4132 15.082 8.2271 18.72 9.1322 2.6421 0.65733 2.3222-1.0826 5.2391 28.489 7.9649 80.75 23.472 214.84 29.717 256.97 2.3566 15.897 4.904 29.256 6.2578 32.817 0.8194 2.1552 0.93017 2.1996 1.7649 0.70813 1.2794-2.2861 0.29928-48.627-1.8013-85.167-2.5876-45.012-7.9743-119.67-13.733-190.34-1.6058-19.704-2.7367-36.009-2.5132-36.233 0.22352-0.22352 4.0562 0.18532 8.5171 0.90854 41.571 6.7398 112.29 7.1251 155.6 0.84775 19.918-2.887 41.94-9.1335 53.501-15.176 3.2948-1.722 5.9905-2.7896 5.9905-2.3726s-7.9938 67.204-17.764 148.41c-9.7702 81.211-18.908 157.51-20.305 169.55s-2.709 22.742-2.9138 23.776c-1.9315 9.751-28.504 20.339-60.648 24.167-10.433 1.2423-48.587 1.711-59.492 0.73094zm-27.364-28.538c2.7997-1.961 4.2279-6.1163 4.2279-12.301 0-8.8565-3.0732-12.793-9.9877-12.793-4.7566 0-7.8008 2.1826-8.9835 6.4412-1.8588 6.6928-0.35652 15.67 3.0738 18.368 2.6022 2.0469 8.9324 2.2008 11.669 0.28372zm129.59-62.482c2.291-2.4946 3.0526-6.5864 1.8846-10.125-1.142-3.4604-2.8873-4.541-7.3341-4.541-4.3824 0-5.8851 2.1169-5.8851 8.2908 0 3.5053 0.40594 5.0537 1.6847 6.4263 2.3296 2.5005 7.331 2.4742 9.6498-0.0507zm-12.473-23.238c2.2172-2.5502 3.1444-8.5292 1.9884-12.822-2.1192-7.8702-11.575-9.2442-14.554-2.1148-2.3546 5.6354-0.47102 15.353 3.2863 16.955 2.7961 1.1917 7.3495 0.20158 9.279-2.0178zm-84.343-3.3717c1.2784-1.2784 2.0281-2.9722 2.0281-4.582 0-2.9872-3.1701-6.6102-5.7839-6.6102-0.95021 0-2.6845 0.95687-3.854 2.1264-1.7716 1.7716-2.0452 2.6332-1.6401 5.1642 0.52349 3.2704 3.0454 5.9298 5.6232 5.9298 0.87921 0 2.5112-0.91266 3.6267-2.0281zm-5.3549-126.75c1.4856-1.203 1.9652-2.5827 2.2457-6.4612 0.31324-4.3306 0.10952-5.2189-1.6718-7.2898-1.7122-1.9905-2.6785-2.368-6.1976-2.4212-2.9914-0.0452-4.6563 0.37751-5.8935 1.4964-3.2629 2.9509-3.2964 11.361-0.058 14.599 2.1742 2.1742 8.9296 2.219 11.575 0.0768zm-7.4628-32.775c6.6407-3.434 7.6725-17.907 1.6386-22.984-3.2627-2.7454-8.0421-3.4948-11.929-1.8705-2.5177 1.0519-3.4543 2.1889-5.4756 6.6469-1.3554 2.9892-2.4385 6.7997-2.4385 8.579 0 3.6797 2.7045 8.2541 5.8087 9.8248 2.8109 1.4223 9.4701 1.3168 12.396-0.19634zm144.6-21.07c4.0784-2.1827 3.7782-13.461-0.38612-14.506-5.5158-1.3844-8.1964 1.5208-7.6311 8.2706 0.48206 5.7565 3.9184 8.4291 8.0172 6.2355zm-226.09-29.162c0.89948-0.65772 1.6484-2.5668 1.907-4.8611 0.34924-3.0984 0.11123-4.0926-1.3233-5.5271-2.0662-2.0662-2.5684-2.1278-4.6897-0.57539-1.2355 0.90417-1.5903 2.1248-1.5447 5.3151 0.08467 5.9257 2.2759 8.1161 5.6507 5.6485zm86.006-20.971c-19.793-1.0334-58.412-5.8876-60.039-7.5465-0.301-0.30693-1.4284-11.235-2.5052-24.284l-1.9579-23.725 4.1578-0.89669c6.6328-1.4305 22.2-3.8969 34.73-5.5024 9.7664-1.2514 18.066-1.4842 53.294-1.4944 42.118-0.0122 42.947 0.0302 66.102 3.3863 26.973 3.9096 50.084 10.03 60.852 16.115 5.793 3.2736 10.207 8.2699 10.207 11.553 0 3.4946-2.2132 7.877-4.9691 9.8393l-2.2865 1.6281-0.53429-2.848c-1.1254-5.9988-9.3707-8.4432-14.267-4.2295-1.9934 1.7156-2.3099 2.5812-2.2584 6.1765 0.0402 2.8091 0.55056 4.7235 1.555 5.8334 1.457 1.6099 1.4348 1.675-0.86945 2.5511-8.2124 3.1224-49.156 10.659-63.749 11.735l-3.5116 0.25886v-3.1013c0-4.0195-2.7298-6.0651-7.0197-5.2603-1.8325 0.34379-2.8956 0.22122-2.8956-0.33386 0-1.7033-5.4332-3.5788-8.63-2.9791-4.999 0.93781-6.4904 3.1055-6.0762 8.8316l0.3519 4.865-22.362-0.15623c-12.299-0.0859-24.593-0.27272-27.32-0.41509zm52.928-2.0914c-1.5247-2.1768-1.6987-7.3359-0.29473-8.7399 0.54534-0.54533 2.516-0.99152 4.3792-0.99152s3.8339 0.44619 4.3792 0.99152c1.5732 1.5732 1.2318 7.6239-0.51951 9.2088-2.2158 2.0052-6.3836 1.7592-7.9442-0.46893zm11.934-2.295v-3.4001l3.5116 0.25408c3.4141 0.24702 3.5116 0.33444 3.5116 3.146 0 2.8116-0.0976 2.899-3.5116 3.146l-3.5116 0.25408zm-156.65-11.44c-12.68-5.2807-15.22-7.7202-15.82-15.193-0.3856-4.8037-0.23539-5.4492 1.8426-7.9188 2.0504-2.4367 15.959-10.067 18.351-10.067 1.1242 0 1.5286 2.49 3.1538 19.417 0.69808 7.2712 1.4509 14.057 1.6728 15.079 0.5434 2.5031-0.3236 2.3789-9.2002-1.318zm235.69-2.4653c-1.848-2.0421-1.7668-6.9605 0.14357-8.6893 1.9138-1.7319 7.0549-1.7725 8.7583-0.0691 2.0177 2.0177 1.6942 7.4196-0.53797 8.9831-2.488 1.7427-6.6855 1.6299-8.3639-0.22478z" fill="#fac46a"/>
 <path d="m173.56 575.53c-20.422-1.7531-39.316-5.1296-51.642-9.2285-8.1434-2.7081-18.424-7.7531-22.309-10.948-1.8166-1.4938-0.82329-1.1659 3.7182 1.2272 11.462 6.0397 31.516 11.244 56.186 14.581 17.21 2.3278 53.984 2.1112 70.233-0.41348 14.61-2.27 28.524-5.6187 43.17-10.389 13.708-4.4649 20.669-7.858 25.204-12.285 3.8133-3.7228 4.3889-3.0298 1.9477 2.345-4.867 10.716-28.7 19.56-64.538 23.951-12.353 1.5134-49.71 2.2128-61.97 1.1603zm-3.3051-37.227c-33.431-3.0048-62.091-12.681-66.533-22.463-0.73657-1.6218-4.9375-33.671-10.747-81.985-5.2455-43.627-10.633-88.432-11.973-99.566-1.3396-11.134-3.9429-32.886-5.7853-48.337s-5.7528-47.509-8.6899-71.24-5.3401-43.688-5.3401-44.349c0-0.82547 1.4893-0.21219 4.7511 1.9564 2.6131 1.7374 7.7256 4.3757 11.361 5.8631 3.6356 1.4873 6.8699 2.9192 7.1874 3.1819 0.31745 0.26272 1.7205 11.632 3.1179 25.266 3.9538 38.574 13.09 122.93 15.347 141.71 1.12 9.3162 2.6015 21.772 3.2923 27.68 8.5047 72.732 15.949 122.32 18.609 123.97 0.4042 0.24981 0.98719-0.55093 1.2955-1.7794 0.72396-2.8845-0.1856-50.959-1.3191-69.72-0.48051-7.9529-1.6144-27.288-2.5198-42.966s-2.4004-38.731-3.3224-51.229c-3.1512-42.717-7.4063-97.895-9.428-122.26-1.1111-13.391-1.9211-24.446-1.8-24.567 0.12115-0.12115 3.3564 0.31642 7.1895 0.97236 39.04 6.6808 115.38 7.0698 157.2 0.80107 20.198-3.0272 41.675-9.1604 53.236-15.203 3.2948-1.722 5.9905-2.7896 5.9905-2.3726s-7.9938 67.204-17.764 148.41c-9.7702 81.211-18.908 157.51-20.305 169.55s-2.709 22.742-2.9138 23.776c-1.9315 9.751-28.504 20.339-60.648 24.167-10.433 1.2423-48.587 1.711-59.492 0.73094zm-27.364-28.538c2.7997-1.961 4.2279-6.1163 4.2279-12.301 0-8.8565-3.0732-12.793-9.9877-12.793-4.7566 0-7.8008 2.1826-8.9835 6.4412-1.8588 6.6928-0.35652 15.67 3.0738 18.368 2.6022 2.0469 8.9324 2.2008 11.669 0.28372zm129.82-62.691c2.4714-2.6306 2.7779-8.891 0.59842-12.22-1.2642-1.9309-2.0222-2.2376-5.5305-2.2376-5.243 0-6.638 1.7751-6.638 8.4466 0 5.9165 1.7307 8.0789 6.4661 8.0789 2.3044 0 3.6876-0.56044 5.1039-2.0681zm-13.23-22.586c4.4668-4.4668 4.142-14.587-0.58758-18.308-3.0836-2.4256-8.1729-2.0098-10.292 0.84092-3.2417 4.3604-2.9407 13.892 0.55804 17.667 2.811 3.0331 7.1732 2.9486 10.322-0.20003zm-83.506-3.964c4.692-5.9649-0.90007-13.683-7.3952-10.207-2.9603 1.5843-2.7664 9.7997 0.27702 11.735 2.1159 1.3454 5.4151 0.63723 7.1182-1.5279zm-5.2931-126.74c4.1732-3.9206 3.1056-13.867-1.684-15.688-2.4321-0.92468-7.023-1.081-9.0382-0.30775-2.1478 0.82419-3.7552 4.8584-3.7552 9.4245 0 3.6197 0.36638 4.6023 2.5183 6.7542 2.25 2.25 2.9156 2.4735 6.2485 2.0978 2.285-0.25755 4.4975-1.1413 5.7107-2.281zm-8.71-32.003c4.5776-2.2999 6.6266-6.114 6.6266-12.335 0-6.5747-1.582-10.484-5.1145-12.637-3.4204-2.0853-9.3206-2.1908-12.505-0.2234-3.3075 2.0433-7.4061 11.869-6.7109 16.089 1.4066 8.5369 10.02 12.968 17.704 9.1069zm146.22-22.469c2.2816-2.2816 2.9632-6.9174 1.561-10.617-1.0534-2.7788-1.4797-3.0864-4.5945-3.3147-4.6166-0.33844-6.3952 2.1437-5.8206 8.1231 0.64262 6.6879 5.07 9.5922 8.8541 5.8082zm-226-28.611c0.82396-0.82395 1.2984-2.765 1.2984-5.3117 0-5.9118-3.2359-8.4245-6.7517-5.2427-0.99837 0.90351-1.511 2.5232-1.511 4.7738 0 5.8429 3.7715 8.9734 6.9643 5.7807zm85.165-20.756c-19.793-1.0334-58.412-5.8876-60.039-7.5465-0.301-0.30693-1.4284-11.235-2.5052-24.284l-1.9579-23.725 4.1578-0.89669c6.6328-1.4305 22.2-3.8969 34.73-5.5024 9.7643-1.2512 18.073-1.4844 53.294-1.4962 39.46-0.0131 48.088 0.36352 58.986 2.5753l2.3869 0.48441-0.6037 28.622c-0.33204 15.742-0.70093 28.722-0.81976 28.845-0.11884 0.1227-3.2452 0.45667-6.9474 0.74218l-6.7314 0.51908v-2.9954c0-3.7284-2.7708-5.8995-6.7784-5.3113-1.9408 0.28485-2.994-0.0357-3.9348-1.1974-1.8098-2.2351-7.3588-2.8331-10.623-1.1449-2.9899 1.5461-3.8352 3.9488-3.2418 9.2139l0.41356 3.669-22.414-0.15623c-12.328-0.0859-24.645-0.27272-27.372-0.41509zm53.294-1.9075c-1.8705-1.8705-2.2735-7.3112-0.66102-8.9237 0.54534-0.54533 2.516-0.99152 4.3792-0.99152 4.27 0 5.3708 1.1084 5.3708 5.408 0 5.6703-5.2984 8.2978-9.089 4.5073zm11.568-2.4788v-3.4001l3.5116 0.25408c3.4141 0.24702 3.5116 0.33444 3.5116 3.146 0 2.8116-0.0976 2.899-3.5116 3.146l-3.5116 0.25408zm66.635-10.122c0.18188-1.9314 0.85433-10.892 1.4943-19.911 0.64-9.0199 1.3317-16.568 1.5371-16.773 0.593-0.59301 10.335 2.8688 16.9 6.0052 13.734 6.5619 16.85 14.06 9.0034 21.666l-2.7998 2.7136-0.52957-3.3118c-0.69127-4.323-2.9581-5.8807-8.5579-5.8807-3.2402 0-4.7798 0.4192-5.9922 1.6315-2.2205 2.2205-2.9236 5.5334-1.9228 9.0601 0.45916 1.618 0.98194 3.4614 1.1617 4.0964 0.22439 0.7925-1.2276 1.631-4.6307 2.6742-2.7267 0.83581-5.1908 1.5247-5.4758 1.5309-0.28502 6e-3 -0.36941-1.569-0.18753-3.5004zm-223.28-1.318c-12.68-5.2807-15.22-7.7202-15.82-15.193-0.3856-4.8037-0.23539-5.4492 1.8426-7.9188 2.0504-2.4367 15.959-10.067 18.351-10.067 1.1242 0 1.5286 2.49 3.1538 19.417 0.69808 7.2712 1.4509 14.057 1.6728 15.079 0.5434 2.5031-0.3236 2.3789-9.2002-1.318zm235.6-2.7906c-1.5803-2.2562-1.6782-6.7249-0.17467-7.9728 2.1049-1.7469 6.1858-2.0398 8.3809-0.60151 2.6463 1.7339 2.8674 6.3136 0.42278 8.7582-2.3155 2.3155-6.9475 2.2168-8.629-0.18385z" fill="#90c6d2"/>
 <path d="m170.25 538.3c-33.431-3.0048-62.091-12.681-66.533-22.463-0.73657-1.6218-4.9375-33.671-10.747-81.985-5.2455-43.627-10.633-88.432-11.973-99.566-1.3396-11.134-3.9429-32.886-5.7853-48.337s-5.7528-47.509-8.6899-71.24-5.3401-43.688-5.3401-44.349c0-0.82547 1.4893-0.21219 4.7511 1.9564 2.6131 1.7374 7.7256 4.3757 11.361 5.8631 3.6356 1.4873 6.8699 2.9192 7.1874 3.1819 0.31745 0.26272 1.7205 11.632 3.1179 25.266 3.9538 38.574 13.09 122.93 15.347 141.71 1.12 9.3162 2.6015 21.772 3.2923 27.68 8.5047 72.732 15.949 122.32 18.609 123.97 0.4042 0.24981 0.98719-0.55093 1.2955-1.7794 0.72396-2.8845-0.1856-50.959-1.3191-69.72-0.48051-7.9529-1.6144-27.288-2.5198-42.966s-2.4004-38.731-3.3224-51.229c-3.1512-42.717-7.4063-97.895-9.428-122.26-1.1111-13.391-1.9211-24.446-1.8-24.567 0.12115-0.12115 3.3564 0.31642 7.1895 0.97236 39.04 6.6808 115.38 7.0698 157.2 0.80107 20.198-3.0272 41.675-9.1604 53.236-15.203 3.2948-1.722 5.9905-2.7896 5.9905-2.3726s-7.9938 67.204-17.764 148.41c-9.7702 81.211-18.908 157.51-20.305 169.55s-2.709 22.742-2.9138 23.776c-1.9315 9.751-28.504 20.339-60.648 24.167-10.433 1.2423-48.587 1.711-59.492 0.73094zm-27.364-28.538c2.7997-1.961 4.2279-6.1163 4.2279-12.301 0-8.8565-3.0732-12.793-9.9877-12.793-4.7566 0-7.8008 2.1826-8.9835 6.4412-1.8588 6.6928-0.35652 15.67 3.0738 18.368 2.6022 2.0469 8.9324 2.2008 11.669 0.28372zm129.82-62.691c2.4714-2.6306 2.7779-8.891 0.59842-12.22-1.2642-1.9309-2.0222-2.2376-5.5305-2.2376-5.243 0-6.638 1.7751-6.638 8.4466 0 5.9165 1.7307 8.0789 6.4661 8.0789 2.3044 0 3.6876-0.56044 5.1039-2.0681zm-13.23-22.586c4.4668-4.4668 4.142-14.587-0.58758-18.308-3.0836-2.4256-8.1729-2.0098-10.292 0.84092-3.2417 4.3604-2.9407 13.892 0.55804 17.667 2.811 3.0331 7.1732 2.9486 10.322-0.20003zm-83.506-3.964c4.692-5.9649-0.90007-13.683-7.3952-10.207-2.9603 1.5843-2.7664 9.7997 0.27702 11.735 2.1159 1.3454 5.4151 0.63723 7.1182-1.5279zm-5.2931-126.74c4.1732-3.9206 3.1056-13.867-1.684-15.688-2.4321-0.92468-7.023-1.081-9.0382-0.30775-2.1478 0.82419-3.7552 4.8584-3.7552 9.4245 0 3.6197 0.36638 4.6023 2.5183 6.7542 2.25 2.25 2.9156 2.4735 6.2485 2.0978 2.285-0.25755 4.4975-1.1413 5.7107-2.281zm-8.71-32.003c4.5776-2.2999 6.6266-6.114 6.6266-12.335 0-6.5747-1.582-10.484-5.1145-12.637-3.4204-2.0853-9.3206-2.1908-12.505-0.2234-3.3075 2.0433-7.4061 11.869-6.7109 16.089 1.4066 8.5369 10.02 12.968 17.704 9.1069zm146.22-22.469c2.2816-2.2816 2.9632-6.9174 1.561-10.617-1.0534-2.7788-1.4797-3.0864-4.5945-3.3147-4.6166-0.33844-6.3952 2.1437-5.8206 8.1231 0.64262 6.6879 5.07 9.5922 8.8541 5.8082zm-226-28.611c0.82396-0.82395 1.2984-2.765 1.2984-5.3117 0-5.9118-3.2359-8.4245-6.7517-5.2427-0.99837 0.90351-1.511 2.5232-1.511 4.7738 0 5.8429 3.7715 8.9734 6.9643 5.7807zm85.165-20.756c-19.793-1.0334-58.412-5.8876-60.039-7.5465-0.301-0.30693-1.4284-11.235-2.5052-24.284l-1.9579-23.725 4.1578-0.89669c6.6328-1.4305 22.2-3.8969 34.73-5.5024 9.7643-1.2512 18.073-1.4844 53.294-1.4962 39.46-0.0131 48.088 0.36352 58.986 2.5753l2.3869 0.48441-0.6037 28.622c-0.33204 15.742-0.70093 28.722-0.81976 28.845-0.11884 0.1227-3.2452 0.45667-6.9474 0.74218l-6.7314 0.51908v-2.9954c0-3.7284-2.7708-5.8995-6.7784-5.3113-1.9408 0.28485-2.994-0.0357-3.9348-1.1974-1.8098-2.2351-7.3588-2.8331-10.623-1.1449-2.9899 1.5461-3.8352 3.9488-3.2418 9.2139l0.41356 3.669-22.414-0.15623c-12.328-0.0859-24.645-0.27272-27.372-0.41509zm53.294-1.9075c-1.8705-1.8705-2.2735-7.3112-0.66102-8.9237 0.54534-0.54533 2.516-0.99152 4.3792-0.99152 4.27 0 5.3708 1.1084 5.3708 5.408 0 5.6703-5.2984 8.2978-9.089 4.5073zm11.568-2.4788v-3.4001l3.5116 0.25408c3.4141 0.24702 3.5116 0.33444 3.5116 3.146 0 2.8116-0.0976 2.899-3.5116 3.146l-3.5116 0.25408zm66.635-10.122c0.18188-1.9314 0.85433-10.892 1.4943-19.911 0.64-9.0199 1.3317-16.568 1.5371-16.773 0.593-0.59301 10.335 2.8688 16.9 6.0052 13.734 6.5619 16.85 14.06 9.0034 21.666l-2.7998 2.7136-0.52957-3.3118c-0.69127-4.323-2.9581-5.8807-8.5579-5.8807-3.2402 0-4.7798 0.4192-5.9922 1.6315-2.2205 2.2205-2.9236 5.5334-1.9228 9.0601 0.45916 1.618 0.98194 3.4614 1.1617 4.0964 0.22439 0.7925-1.2276 1.631-4.6307 2.6742-2.7267 0.83581-5.1908 1.5247-5.4758 1.5309-0.28502 6e-3 -0.36941-1.569-0.18753-3.5004zm-223.28-1.318c-12.68-5.2807-15.22-7.7202-15.82-15.193-0.3856-4.8037-0.23539-5.4492 1.8426-7.9188 2.0504-2.4367 15.959-10.067 18.351-10.067 1.1242 0 1.5286 2.49 3.1538 19.417 0.69808 7.2712 1.4509 14.057 1.6728 15.079 0.5434 2.5031-0.3236 2.3789-9.2002-1.318zm235.6-2.7906c-1.5803-2.2562-1.6782-6.7249-0.17467-7.9728 2.1049-1.7469 6.1858-2.0398 8.3809-0.60151 2.6463 1.7339 2.8674 6.3136 0.42278 8.7582-2.3155 2.3155-6.9475 2.2168-8.629-0.18385z" fill="#f6b66a"/>
 <path d="m176.86 538.66c-1.5906-0.15317-7.1679-0.68715-12.394-1.1866-29.097-2.7808-54.566-11.577-60.155-20.775-1.3576-2.2343-2.6543-11.202-7.5584-52.273-8.2393-69.003-34.644-287.61-35.256-291.88l-0.50267-3.5114 4.8448 3.2214c2.6647 1.7718 7.8194 4.4384 11.455 5.9257s6.8699 2.9192 7.1874 3.1819c0.31745 0.26272 1.7205 11.632 3.1179 25.266 13.883 135.45 27.373 247.87 33.607 280.07 2.202 11.374 3.134 14.052 4.5805 13.158 1.9058-1.1778-0.47125-77.733-3.8581-124.26-0.24812-3.4084-1.3879-19.211-2.5329-35.117-2.8775-39.974-7.4265-99.348-9.8418-128.46-1.1111-13.391-1.9211-24.446-1.8-24.567 0.12115-0.12115 3.3564 0.31642 7.1895 0.97236 9.7894 1.6752 27.471 3.4809 45.391 4.6353 17.111 1.1023 71.715 0.54859 85.458-0.86655 4.5108-0.46451 8.3802-0.66577 8.5986-0.44726 0.21852 0.2185-0.41984 32.843-1.4186 72.498s-2.1674 87.682-2.597 106.73c-0.69711 30.903-0.9339 34.795-2.2021 36.196-2.0329 2.2463-2.4673 10.929-0.75211 15.034 0.74962 1.7941 1.3244 5.4783 1.3244 8.489v5.3193l6.1263-4.2351c6.9299-4.7906 20.139-15.697 24.373-20.125l2.8192-2.9479 2.7349-38.244c1.5042-21.034 4.028-56.092 5.6084-77.905 1.5804-21.814 3.8452-54.348 5.0327-72.299 1.1876-17.951 2.311-33.403 2.4965-34.338 0.24807-1.2508 1.6003-2.088 5.1124-3.1651 10.084-3.0926 20.959-7.3659 24.565-9.6527 2.2126-1.4032 3.7536-1.9663 3.7461-1.3691-7e-3 0.55806-4.0564 34.479-8.9988 75.379s-14.086 117.31-20.32 169.8c-6.2335 52.489-11.822 96.594-12.419 98.011-4.3523 10.332-32.327 20.052-66.345 23.053-12.167 1.0734-38.354 1.4575-46.418 0.68096zm-34.056-28.84c5.9544-4.1706 6.5062-17.815 0.93636-23.152-3.088-2.9585-9.445-3.3498-12.351-0.76013-5.2509 4.679-5.6374 17.987-0.67588 23.268 1.444 1.5371 2.6805 1.9334 6.0329 1.9334 2.4837 0 4.9732-0.52998 6.0577-1.2896zm130.74-63.366c4.8871-8.0154-1.182-17.007-9.3764-13.891-3.8839 1.4767-4.8532 9.8327-1.7072 14.718 0.97877 1.5198 1.9502 1.8591 5.3218 1.8591 3.7665 0 4.2665-0.23304 5.7618-2.6854zm-97.509-25.408c2.4133-2.4133 2.3038-8.5392-0.18386-10.282-2.5718-1.8014-6.1116-1.601-8.1754 0.46286-1.4345 1.4345-1.6725 2.4286-1.3233 5.5271 0.25859 2.2942 1.0076 4.2033 1.907 4.861 2.1764 1.5914 5.8863 1.3197 7.7755-0.56945zm-5.3531-127.26c4.1732-3.9206 3.1056-13.867-1.684-15.688-2.4321-0.92468-7.023-1.081-9.0382-0.30775-2.1478 0.82419-3.7552 4.8584-3.7552 9.4245 0 3.6197 0.36638 4.6023 2.5183 6.7542 2.25 2.25 2.9156 2.4735 6.2485 2.0978 2.285-0.25755 4.4975-1.1413 5.7107-2.281zm-8.71-32.003c4.5776-2.2999 6.6266-6.114 6.6266-12.335 0-6.5747-1.582-10.484-5.1145-12.637-3.4204-2.0853-9.3206-2.1908-12.505-0.2234-3.3075 2.0433-7.4061 11.869-6.7109 16.089 1.4066 8.5369 10.02 12.968 17.704 9.1069zm146.65-22.481c1.809-1.9989 2.5417-7.928 1.3583-10.992-1.7328-4.4862-7.9855-5.1224-9.8621-1.0036-1.8833 4.1333-0.88662 11.161 1.8412 12.982 1.717 1.1465 5.1989 0.63085 6.6627-0.98666zm-226.43-28.599c0.82396-0.82395 1.2984-2.765 1.2984-5.3117 0-4.5049-1.4569-6.6102-4.5744-6.6102-2.4324 0-3.6883 2.1698-3.6883 6.372 0 5.6293 3.8315 8.6827 6.9643 5.5499zm86.817-20.779c-21.478-0.99235-59.702-5.6745-61.7-7.5578-0.30583-0.28821-1.4089-11.049-2.4514-23.913-1.5482-19.106-1.6975-23.512-0.81519-24.057 1.5321-0.9469 19.727-4.0577 34.808-5.9512 17.37-2.1809 62.763-2.9913 88.858-1.5864 17.58 0.94649 27.333 1.9271 28.246 2.8401 0.53126 0.53125-0.91532 56.455-1.4748 57.013-0.25384 0.25331-3.0849 0.70438-6.2913 1.0024l-5.8298 0.54182-0.56401-3.0064c-0.66488-3.5441-3.4645-5.7183-6.8993-5.358-1.491 0.15639-3.2305-0.43062-4.699-1.5858-4.3321-3.4076-11.161-2.0464-13.412 2.6733-1.0983 2.3031-1.2032 3.466-0.51512 5.708l0.86415 2.8156-4.8282 0.54624c-4.2489 0.48072-31.918 0.40107-43.296-0.12462zm51.642-1.8848c-2.0044-2.0044-2.2003-6.7707-0.35412-8.6168 1.5304-1.5304 7.0284-1.7301 8.4516-0.30691 0.54534 0.54534 0.99152 2.4044 0.99152 4.1314 0 3.6986-2.2886 6.4449-5.3708 6.4449-1.1361 0-2.8093-0.74365-3.7182-1.6526zm11.873-1.0328c0.27402-1.0225 0.5033-2.5098 0.50951-3.3051 9e-3 -1.098 0.70339-1.446 2.8875-1.446 2.3782 0 2.9659 0.35737 3.3942 2.0638 0.86145 3.4323-0.0849 4.5464-3.862 4.5464-3.1511 0-3.3872-0.14987-2.9292-1.8591zm66.33-11.568c0.18188-1.9314 0.85433-10.892 1.4943-19.911 0.64-9.0199 1.3317-16.568 1.5371-16.773 0.593-0.59301 10.335 2.8688 16.9 6.0052 13.734 6.5619 16.85 14.06 9.0034 21.666l-2.7998 2.7136-0.52957-3.3118c-0.69127-4.323-2.9581-5.8807-8.5579-5.8807-3.2402 0-4.7798 0.4192-5.9922 1.6315-2.2205 2.2205-2.9236 5.5334-1.9228 9.0601 0.45916 1.618 0.98194 3.4614 1.1617 4.0964 0.22439 0.7925-1.2276 1.631-4.6307 2.6742-2.7267 0.83581-5.1908 1.5247-5.4758 1.5309-0.28502 6e-3 -0.36941-1.569-0.18753-3.5004zm-221.25-0.56242c-7.3209-2.722-12.848-5.8045-15.534-8.6631-1.4318-1.5241-2.0032-3.3137-2.3207-7.269-0.38714-4.8229-0.2383-5.4644 1.8412-7.9358 1.3377-1.5898 5.3618-4.1965 9.8454-6.3776 7.4704-3.6341 9.5262-4.29 9.6202-3.0692 0.02625 0.34083 0.88592 8.5209 1.9104 18.178 1.0244 9.657 1.6537 17.54 1.3982 17.518s-3.2979-1.0937-6.7611-2.3814zm233.57-3.5462c-1.5803-2.2562-1.6782-6.7249-0.17467-7.9728 2.1049-1.7469 6.1858-2.0398 8.3809-0.60151 2.6463 1.7339 2.8674 6.3136 0.42278 8.7582-2.3155 2.3155-6.9475 2.2168-8.629-0.18385z" fill="#f1a96a"/>
 <path d="m178.52 538.63c-9.2996-0.55879-27.021-2.8265-35.068-4.4876-17.417-3.5951-31.1-9.3122-37.174-15.533l-3.1519-3.2278-20.952-172.55c-11.524-94.903-20.959-172.8-20.968-173.11-0.0089-0.30625 2.1218 0.86464 4.7349 2.602 2.6131 1.7374 7.7256 4.3757 11.361 5.8631 3.6356 1.4873 6.8699 2.9192 7.1874 3.1819 0.31745 0.26272 1.7205 11.632 3.1179 25.266 13.796 134.6 28.445 256.57 33.932 282.54 2.1622 10.231 2.5173 11.317 3.585 10.963 1.7635-0.58416 2.174-11.836 1.3177-36.116-0.77543-21.988-3.3553-72.611-4.5055-88.411-0.24813-3.4084-1.3879-19.211-2.5329-35.117-2.8775-39.974-7.4265-99.348-9.8418-128.46-1.1111-13.391-1.9211-24.446-1.8-24.567 0.12115-0.12115 3.3564 0.31642 7.1895 0.97236 9.7894 1.6752 27.471 3.4809 45.391 4.6353 17.111 1.1023 71.715 0.54859 85.458-0.86655 4.5108-0.46451 8.3802-0.66577 8.5986-0.44726 0.21852 0.2185-0.41905 32.843-1.4168 72.498s-2.1726 87.689-2.6106 106.74c-0.70746 30.766-0.95399 34.815-2.2039 36.196-2.1113 2.333-2.4926 11.43-0.65032 15.515 1.3711 3.0406 1.3728 5.8802 0.0337 57.573-0.77469 29.906-1.5144 54.48-1.6437 54.61-0.47248 0.47249-18.519 2.5886-29.337 3.44-10.304 0.811-27.28 0.94303-38.05 0.29592zm-36.797-27.862c4.074-1.7022 5.7126-5.3674 5.7549-12.872 0.0421-7.4722-1.5952-11.134-5.7549-12.872-8.6494-3.6139-14.431 1.3385-14.431 12.361 0 11.848 5.6241 17.064 14.431 13.384zm34.319-89.716c2.4133-2.4133 2.3038-8.5392-0.18386-10.282-2.5718-1.8014-6.1116-1.601-8.1754 0.46286-1.4345 1.4345-1.6725 2.4286-1.3233 5.5271 0.25859 2.2942 1.0076 4.2033 1.907 4.861 2.1764 1.5914 5.8863 1.3197 7.7755-0.56945zm-5.3531-127.26c4.1732-3.9206 3.1056-13.867-1.684-15.688-2.4321-0.92468-7.023-1.081-9.0382-0.30775-2.1478 0.82419-3.7552 4.8584-3.7552 9.4245 0 3.6197 0.36638 4.6023 2.5183 6.7542 2.25 2.25 2.9156 2.4735 6.2485 2.0978 2.285-0.25755 4.4975-1.1413 5.7107-2.281zm-8.71-32.003c4.5776-2.2999 6.6266-6.114 6.6266-12.335 0-6.5747-1.582-10.484-5.1145-12.637-3.4204-2.0853-9.3206-2.1908-12.505-0.2234-3.3075 2.0433-7.4061 11.869-6.7109 16.089 1.4066 8.5369 10.02 12.968 17.704 9.1069zm-79.778-51.08c0.82396-0.82395 1.2984-2.765 1.2984-5.3117 0-4.5049-1.4569-6.6102-4.5744-6.6102-2.4324 0-3.6883 2.1698-3.6883 6.372 0 5.6293 3.8315 8.6827 6.9643 5.5499zm197.22 237.82c3.0314-43.059 6.1236-87.213 6.8715-98.12s2.6247-37.306 4.1708-58.665c1.546-21.359 3.7742-53.15 4.9515-70.646 1.1774-17.496 2.3136-32.928 2.5251-34.293 0.36786-2.3746 0.80609-2.6163 10.143-5.5943 5.3673-1.7118 12.688-4.5841 16.269-6.3828s6.5931-3.1854 6.695-3.0816c0.14397 0.1467-38.662 324.87-40.638 340.05-0.35114 2.698-1.2488 4.3552-3.6713 6.7778-2.7128 2.7128-10.986 8.2092-12.394 8.2344-0.23866 4e-3 2.0463-35.222 5.0778-78.281zm29.203-209.22c1.809-1.9989 2.5417-7.928 1.3583-10.992-1.7328-4.4862-7.9855-5.1224-9.8621-1.0036-1.8833 4.1333-0.88662 11.161 1.8412 12.982 1.717 1.1465 5.1989 0.63085 6.6627-0.98666zm-134.65-49.329c-10.442-0.49029-30.87-2.0426-37.595-2.857-7.5858-0.9185-26.053-3.8608-28.128-4.4815-1.0483-0.31361-1.6125-4.5564-3.1883-23.977-1.053-12.978-1.7416-23.769-1.5301-23.98 0.64746-0.64746 16.871-3.498 29.954-5.2631 15.959-2.1532 38.051-3.3444 62.031-3.345 26.541-6.7e-4 58.74 1.9255 60.43 3.6148 0.54084 0.54085-0.89105 56.459-1.4603 57.027-0.25384 0.25331-3.0849 0.70438-6.2913 1.0024l-5.8298 0.54182-0.56401-3.0064c-0.66488-3.5441-3.4645-5.7183-6.8993-5.358-1.491 0.15639-3.2305-0.43062-4.699-1.5858-4.3321-3.4076-11.161-2.0464-13.412 2.6733-1.0969 2.3002-1.2028 3.4672-0.51743 5.7004l0.86183 2.8081-4.2292 0.50817c-4.033 0.4846-28.431 0.47037-38.933-0.0227zm46.684-1.9336c-2.0044-2.0044-2.2003-6.7707-0.35412-8.6168 1.5304-1.5304 7.0284-1.7301 8.4516-0.30691 0.54534 0.54534 0.99152 2.4044 0.99152 4.1314 0 3.6986-2.2886 6.4449-5.3708 6.4449-1.1361 0-2.8093-0.74365-3.7182-1.6526zm11.873-1.0328c0.27402-1.0225 0.5033-2.5098 0.50951-3.3051 9e-3 -1.098 0.70339-1.446 2.8875-1.446 2.3782 0 2.9659 0.35737 3.3942 2.0638 0.86145 3.4323-0.0849 4.5464-3.862 4.5464-3.1511 0-3.3872-0.14987-2.9292-1.8591zm66.33-11.568c0.18188-1.9314 0.85433-10.892 1.4943-19.911 0.64-9.0199 1.3317-16.568 1.5371-16.773 0.593-0.59301 10.335 2.8688 16.9 6.0052 13.734 6.5619 16.85 14.06 9.0034 21.666l-2.7998 2.7136-0.52957-3.3118c-0.69127-4.323-2.9581-5.8807-8.5579-5.8807-3.2402 0-4.7798 0.4192-5.9922 1.6315-2.2205 2.2205-2.9236 5.5334-1.9228 9.0601 0.45916 1.618 0.98194 3.4614 1.1617 4.0964 0.22439 0.7925-1.2276 1.631-4.6307 2.6742-2.7267 0.83581-5.1908 1.5247-5.4758 1.5309-0.28502 6e-3 -0.36941-1.569-0.18753-3.5004zm-219.96-0.18717c-6.7816-2.5618-11.75-5.143-15.346-7.9715-2.746-2.1604-3.0513-2.8268-3.587-7.8291-0.57859-5.4028-0.55288-5.5014 2.1677-8.3083 1.5143-1.5623 4.2834-3.7374 6.1537-4.8334 3.6034-2.1117 11.942-5.601 12.368-5.1752 0.43912 0.43912 3.7879 33.68 3.513 34.872-0.20922 0.90691-1.277 0.75408-5.27-0.75433zm232.28-3.9215c-1.5803-2.2562-1.6782-6.7249-0.17467-7.9728 2.1049-1.7469 6.1858-2.0398 8.3809-0.60151 2.6463 1.7339 2.8674 6.3136 0.42278 8.7582-2.3155 2.3155-6.9475 2.2168-8.629-0.18385z" fill="#f4ad53"/>
 <path d="m178.52 538.69c-28.05-2.0642-50.208-6.9502-63.72-14.051-5.9557-3.1296-11.147-8.0558-11.837-11.232-0.22453-1.034-4.3232-34.414-9.1081-74.179-12.771-106.13-31.714-262.61-32.299-266.81l-0.50767-3.6445 2.6725 2.2488c3.0237 2.5443 9.9294 6.1394 16.06 8.3608 2.2722 0.82337 4.393 1.7158 4.7127 1.9832 0.31976 0.26738 1.539 9.9662 2.7094 21.553 6.7288 66.612 17.577 163.73 24.043 215.24 7.3744 58.75 11.452 82.778 13.911 81.963 4.1911-1.388 0.64147-77.687-10.29-221.19-3.2285-42.381-6.4095-81.883-7.0428-87.459l-0.50188-4.4188 2.3418 0.49861c5.5762 1.1873 19.951 3.0648 33.74 4.4068 18.078 1.7595 87.519 2.0032 101.97 0.35781 4.7313-0.53866 8.7002-0.88155 8.8197-0.76198 0.29203 0.29203-1.0557 62.109-2.0941 96.053-0.45879 14.997-1.2627 47.531-1.7865 72.299-0.87779 41.507-1.0731 45.233-2.4958 47.608-1.9375 3.234-2.1012 12.034-0.28849 15.51 1.109 2.1264 1.1087 7.5829-2e-3 49.989-0.68581 26.181-1.2483 50.814-1.2499 54.74l-3e-3 7.1379-2.6854 0.49706c-12.936 2.3944-51.087 4.3298-65.069 3.3008zm-36.329-28.003c7.311-3.7807 7.6482-20.894 0.49761-25.254-5.1352-3.1313-12.102-1.2634-14.223 3.8134-1.4061 3.3653-1.545 13.121-0.24009 16.865 1.7614 5.0529 8.6676 7.3158 13.966 4.576zm33.992-89.351c1.979-1.791 2.0682-8.2151 0.14357-10.342-1.7288-1.9103-6.6472-1.9916-8.6893-0.14356-1.8987 1.7182-2.0271 7.4433-0.22478 10.016 1.5769 2.2513 6.5096 2.5151 8.7705 0.46893zm-6.8002-126.27c5.672-2.9331 5.3526-14.79-0.45795-16.999-3.9137-1.488-8.4903-0.95803-10.686 1.2374-1.7116 1.7116-2.0281 2.8176-2.0281 7.0869 0 4.4895 0.27176 5.3305 2.4152 7.474 2.7634 2.7634 6.8523 3.2199 10.757 1.201zm-7.3682-33.18c4.574-1.8301 6.5905-5.8458 6.5905-13.124 0-6.3928-1.4377-9.7097-5.2043-12.006-3.4105-2.0795-9.2734-2.1144-12.561-0.0749-3.2743 2.0316-7.4554 12.015-6.7018 16.003 1.6471 8.7158 9.2766 12.643 17.876 9.2025zm-79.371-51.483c1.1722-2.1903 1.0796-9.4148-0.13618-10.631-1.5711-1.5711-5.4464-1.2047-6.4158 0.60669-0.47044 0.87902-0.85534 3.1344-0.85534 5.012 0 4.7154 1.1843 6.6102 4.1314 6.6102 1.5476 0 2.7292-0.57644 3.276-1.5982zm191.97 308.89c0.27519-4.2705 5.7245-80.92 12.11-170.33 6.3851-89.413 11.609-163.03 11.609-163.6 0-0.59894 4.2411-2.3894 10.043-4.2399 5.5238-1.7618 12.86-4.6186 16.302-6.3486 3.4422-1.73 6.3232-3.0757 6.4021-2.9906 0.11299 0.12186-38.844 325.81-40.676 340.05-0.55403 4.3092-4.9569 9.0603-11.896 12.837l-4.3948 2.3919zm33.304-279c3.1842-2.1261 3.8327-10.238 1.0966-13.716-2.0952-2.6636-5.8251-2.9022-8.2027-0.52457-2.1023 2.1023-2.3308 10.232-0.36629 13.036 1.2963 1.8507 5.4916 2.5267 7.4725 1.204zm-133.53-50.313c-22.824-0.95213-57.731-4.8269-66.136-7.3412-1.0483-0.31361-1.6125-4.5564-3.1883-23.977-1.053-12.978-1.7416-23.769-1.5301-23.98 0.65017-0.65017 16.899-3.4982 29.954-5.25 24.253-3.2546 63.113-4.2594 96.125-2.4855 14.87 0.79904 25.481 1.887 26.289 2.6954 0.38662 0.38662-1.1793 56.839-1.588 57.248-0.15785 0.15785-2.961 0.53552-6.2291 0.83926-5.9396 0.55204-5.9421 0.55141-5.9421-1.5206 0-1.1401-0.79034-3.0777-1.7563-4.3057-1.428-1.8155-2.3296-2.1914-4.8232-2.0114-2.1536 0.1555-3.7552-0.32-5.3784-1.5968-3.045-2.3952-8.4903-2.457-11.449-0.12994-2.4729 1.9452-3.5112 6.038-2.3241 9.1605 0.80593 2.1198 0.74812 2.1644-3.4568 2.6696-4.0347 0.48472-26.807 0.47626-38.567-0.0143zm46.787-1.3456c-2.1101-1.5429-2.7217-7.3562-0.95931-9.1186 1.9959-1.9959 7.5682-1.8605 8.6767 0.21085 3.1782 5.9385-2.6221 12.634-7.7174 8.9077zm11.376-1.0714c0.27585-0.71884 0.50154-2.2061 0.50154-3.3051 0-1.7252 0.38734-1.9981 2.8363-1.9981 3.0891 0 4.3458 1.8539 3.3608 4.9576-0.41046 1.2933-1.2502 1.6526-3.8623 1.6526-2.7042 0-3.2426-0.24812-2.8363-1.307zm66.603-11.436c0-3.817 2.4911-37.121 2.7997-37.43 0.48954-0.48955 11.118 3.3424 16.839 6.071 13.731 6.5492 16.851 14.055 9.0034 21.661l-2.7998 2.7136-0.52957-3.3118c-0.32964-2.0614-1.2219-3.7967-2.3634-4.5962-2.5888-1.8133-9.8619-1.6975-12.198 0.19411-2.4625 1.994-3.1652 8.0364-1.3441 11.558 1.4969 2.8947 1.4444 2.9595-3.4683 4.2772-1.9598 0.52566-4.0978 1.1608-4.7511 1.4115-0.89859 0.34482-1.1877-0.27563-1.1877-2.5487zm-220.25-0.87113c-6.7816-2.5618-11.75-5.143-15.346-7.9715-2.746-2.1604-3.0513-2.8268-3.587-7.8291-0.57859-5.4028-0.55288-5.5014 2.1677-8.3083 1.5143-1.5623 4.2834-3.7374 6.1537-4.8334 3.6034-2.1117 11.942-5.601 12.368-5.1752 0.43912 0.43912 3.7879 33.68 3.513 34.872-0.20922 0.90691-1.277 0.75408-5.27-0.75433zm232.28-3.9215c-2.7369-3.9075-1.1159-8.5522 3.2719-9.3754 4.1682-0.78195 7.0096 1.2586 7.0096 5.0338 0 3.7589-2.4082 6.178-6.1502 6.178-2.0034 0-3.2256-0.5433-4.1314-1.8364z" fill="#fab33b"/>
 <path d="m178.52 538.69c-28.05-2.0642-50.208-6.9502-63.72-14.051-5.957-3.1303-11.149-8.0572-11.835-11.232-0.22367-1.034-5.8134-46.87-12.422-101.86-6.6082-54.988-12.24-101.47-12.515-103.28l-0.49989-3.3051 6.497 6.2312c4.966 4.7629 12.667 10.592 15.74 11.913 0.08476 0.0364 1.8639 14.746 3.9537 32.688 11.826 101.53 18.336 145.36 21.438 144.33 0.49234-0.16306 1.1752-2.8691 1.5175-6.0134 1.1298-10.378-1.7497-75.45-6.0951-137.74-0.97584-13.989-1.631-25.575-1.4559-25.748s2.3634 0.0671 4.8629 0.5331c6.4428 1.2012 21.504 0.25816 28.919-1.8107 8.4887-2.3683 19.993-8.2304 26.419-13.462 27.955-22.759 34.891-63.497 15.977-93.843-6.8994-11.07-16.146-19.689-27.585-25.714l-5.5282-2.9116 36.879-0.0565c22.298-0.0342 40.445-0.4423 45.899-1.0323 4.9614-0.5367 9.1161-0.88033 9.2328-0.76361 0.28777 0.28776-1.0695 62.385-2.0993 96.047-0.45879 14.997-1.2627 47.531-1.7865 72.299-0.87779 41.507-1.0731 45.233-2.4958 47.608-1.9375 3.234-2.1012 12.034-0.28849 15.51 1.109 2.1264 1.1087 7.5829-2e-3 49.989-0.68581 26.181-1.2483 50.814-1.2499 54.74l-3e-3 7.1379-2.6854 0.49706c-12.936 2.3944-51.087 4.3298-65.069 3.3008zm-36.329-28.003c7.311-3.7807 7.6482-20.894 0.49761-25.254-5.1352-3.1313-12.102-1.2634-14.223 3.8134-1.4061 3.3653-1.545 13.121-0.24009 16.865 1.7614 5.0529 8.6676 7.3158 13.966 4.576zm33.992-89.351c1.979-1.791 2.0682-8.2151 0.14357-10.342-1.7288-1.9103-6.6472-1.9916-8.6893-0.14356-1.8987 1.7182-2.0271 7.4433-0.22478 10.016 1.5769 2.2513 6.5096 2.5151 8.7705 0.46893zm98.428 97.956c0.27519-4.2705 5.7245-80.92 12.11-170.33 6.3851-89.413 11.609-163.03 11.609-163.6 0-0.59894 4.2411-2.3894 10.043-4.2399 5.5238-1.7618 12.86-4.6186 16.302-6.3486 3.4422-1.73 6.3232-3.0757 6.4021-2.9906 0.11299 0.12186-38.844 325.81-40.676 340.05-0.55403 4.3092-4.9569 9.0603-11.896 12.837l-4.3948 2.3919zm33.304-279c3.1842-2.1261 3.8327-10.238 1.0966-13.716-2.0952-2.6636-5.8251-2.9022-8.2027-0.52457-2.1023 2.1023-2.3308 10.232-0.36629 13.036 1.2963 1.8507 5.4916 2.5267 7.4725 1.204zm-239.61-13.414c-0.25772-1.1361-1.786-13.22-3.3962-26.854-1.6102-13.633-3.1511-26.253-3.4243-28.044l-0.49661-3.2554 2.7011 2.2728c2.9459 2.4788 9.2738 5.7892 16.708 8.7407 2.6131 1.0374 4.7593 2.3078 4.7694 2.8231 0.01011 0.51528 0.53956 5.7706 1.1766 11.678 1.1544 10.706 1.1523 10.746-0.63808 12.148-1.7769 1.3908-1.7991 1.3687-2.0597-2.0495-0.32554-4.271-1.3309-5.5536-4.3532-5.5536-2.8696 0-4.0593 1.9373-4.0593 6.6102 0 4.2019 1.2026 6.6102 3.301 6.6102 1.3282 0 0.94894 0.86556-2.3013 5.2517-2.1404 2.8884-4.6943 6.6996-5.6753 8.4693-1.734 3.1281-1.7966 3.1601-2.2522 1.1519zm39.747-35.21c-0.32715-0.32714-0.59482-1.5058-0.59482-2.6192 0-1.6987 0.29909-1.9428 1.8591-1.5174 1.0225 0.27879 3.8764 0.75284 6.3419 1.0534l4.4828 0.54654-4.0697 1.0891c-2.2383 0.59899-4.8245 1.3036-5.7471 1.5657-0.92258 0.26216-1.9451 0.20899-2.2722-0.11817zm66.333-1.6881c-22.824-0.95213-57.731-4.8269-66.136-7.3412-1.0483-0.31361-1.6125-4.5564-3.1883-23.977-1.053-12.978-1.7416-23.769-1.5301-23.98 0.65017-0.65017 16.899-3.4982 29.954-5.25 24.253-3.2546 63.113-4.2594 96.125-2.4855 14.268 0.76672 25.543 1.8911 26.175 2.6102 0.25801 0.29359-1.2884 57.147-1.5618 57.42-0.10975 0.10976-2.8735 0.44808-6.1416 0.75182-5.9396 0.55204-5.9421 0.55141-5.9421-1.5206 0-1.1401-0.79034-3.0777-1.7563-4.3057-1.428-1.8155-2.3296-2.1914-4.8232-2.0114-2.1536 0.1555-3.7552-0.32-5.3784-1.5968-3.045-2.3952-8.4903-2.457-11.449-0.12994-2.4729 1.9452-3.5112 6.038-2.3241 9.1605 0.80593 2.1198 0.74812 2.1644-3.4568 2.6696-4.0347 0.48472-26.807 0.47626-38.567-0.0143zm46.787-1.3456c-2.1101-1.5429-2.7217-7.3562-0.95931-9.1186 1.9959-1.9959 7.5682-1.8605 8.6767 0.21085 3.1782 5.9385-2.6221 12.634-7.7174 8.9077zm11.376-1.0714c0.27585-0.71884 0.50154-2.2061 0.50154-3.3051 0-1.7252 0.38734-1.9981 2.8363-1.9981 3.0891 0 4.3458 1.8539 3.3608 4.9576-0.41046 1.2933-1.2502 1.6526-3.8623 1.6526-2.7042 0-3.2426-0.24812-2.8363-1.307zm-153.65-12.307c-6.7816-2.5618-11.75-5.143-15.346-7.9715-2.746-2.1604-3.0513-2.8268-3.587-7.8291-0.57859-5.4028-0.55288-5.5014 2.1677-8.3083 1.5143-1.5623 4.2834-3.7374 6.1537-4.8334 3.6034-2.1117 11.942-5.601 12.368-5.1752 0.43912 0.43912 3.7879 33.68 3.513 34.872-0.20922 0.90691-1.277 0.75408-5.27-0.75433z" fill="#f8ac3b"/>
 <path d="m178.52 538.69c-28.05-2.0642-50.208-6.9502-63.72-14.051-5.9557-3.1296-11.147-8.0558-11.837-11.232-0.22453-1.034-4.322-34.6-9.1054-74.592s-8.8305-73.532-8.9934-74.535c-0.26378-1.6234-0.10585-1.72 1.4414-0.88151 0.95572 0.51791 5.6238 2.3137 10.373 3.9907l8.6358 3.049 5.1002 40.799c8.3562 66.845 12.154 89.742 14.742 88.885 1.7298-0.57289 2.1318-11.967 1.2881-36.519-0.8369-24.355-3.7144-80.271-4.4647-86.758l-0.38224-3.3051 13.382-0.0751c15.419-0.0865 25.456-1.8202 38.547-6.658 36.593-13.523 63.832-45.06 72.33-83.744 0.74871-3.4084 1.5675-11.97 1.8196-19.027 0.51331-14.369-0.60498-23.926-4.2999-36.746-2.3884-8.287-9.3452-23.314-13.866-29.952l-2.9544-4.3379 5.9346-0.0143c3.264-8e-3 9.4329-0.38275 13.709-0.83307 4.2757-0.45031 7.874-0.71869 7.9963-0.59639 0.12229 0.12229-0.46494 27.547-1.305 60.944-0.84002 33.397-1.9766 81.358-2.5258 106.58-0.92084 42.293-1.1186 46.058-2.5442 48.434-1.9398 3.2332-2.1047 12.031-0.2907 15.51 1.109 2.1264 1.1087 7.5829-2e-3 49.989-0.68581 26.181-1.2483 50.814-1.2499 54.74l-3e-3 7.1379-2.6854 0.49706c-12.936 2.3944-51.087 4.3298-65.069 3.3008zm-36.329-28.003c7.311-3.7807 7.6482-20.894 0.49761-25.254-5.1352-3.1313-12.102-1.2634-14.223 3.8134-1.4061 3.3653-1.545 13.121-0.24009 16.865 1.7614 5.0529 8.6676 7.3158 13.966 4.576zm33.992-89.351c1.979-1.791 2.0682-8.2151 0.14357-10.342-1.7288-1.9103-6.6472-1.9916-8.6893-0.14356-1.8987 1.7182-2.0271 7.4433-0.22478 10.016 1.5769 2.2513 6.5096 2.5151 8.7705 0.46893zm98.428 97.956c0.27519-4.2705 5.7245-80.92 12.11-170.33 6.3851-89.413 11.609-163.03 11.609-163.6 0-0.59894 4.2411-2.3894 10.043-4.2399 5.5238-1.7618 12.86-4.6186 16.302-6.3486 3.4422-1.73 6.3232-3.0757 6.4021-2.9906 0.11299 0.12186-38.844 325.81-40.676 340.05-0.55403 4.3092-4.9569 9.0603-11.896 12.837l-4.3948 2.3919zm33.304-279c3.1842-2.1261 3.8327-10.238 1.0966-13.716-2.0952-2.6636-5.8251-2.9022-8.2027-0.52457-2.1023 2.1023-2.3308 10.232-0.36629 13.036 1.2963 1.8507 5.4916 2.5267 7.4725 1.204zm-133.53-50.313c-22.824-0.95213-57.731-4.8269-66.136-7.3412-1.0483-0.31361-1.6125-4.5564-3.1883-23.977-1.053-12.978-1.7428-23.767-1.5327-23.978 1.8479-1.8479 38.94-6.7256 59.712-7.8523 16.86-0.91449 69.348-0.67022 70.345 0.32737 0.2228 0.22281 2.6021 13.176 5.2872 28.785 2.6852 15.609 5.0834 29.217 5.3293 30.239 0.31471 1.3083 0.0754 1.8591-0.80795 1.8591-0.71762 0-1.2552-0.73098-1.2552-1.7069 0-1.9322-1.4486-5.0012-2.8091-5.9514-0.50004-0.34922-2.243-0.55351-3.8732-0.45396-2.0087 0.12266-3.7091-0.40508-5.2756-1.6373-3.045-2.3952-8.4903-2.457-11.449-0.12994-2.4729 1.9452-3.5112 6.038-2.3241 9.1605 0.80593 2.1198 0.74812 2.1644-3.4568 2.6696-4.0347 0.48472-26.807 0.47626-38.567-0.0143zm46.787-1.3456c-2.1101-1.5429-2.7217-7.3562-0.95931-9.1186 1.9959-1.9959 7.5682-1.8605 8.6767 0.21085 3.1782 5.9385-2.6221 12.634-7.7174 8.9077zm11.376-1.0714c0.27585-0.71884 0.50154-2.2061 0.50154-3.3051 0-1.6504 0.41378-1.9981 2.3776-1.9981 3.0039 0 4.575 1.8282 3.8959 4.5338-0.45029 1.7941-0.98041 2.0764-3.8989 2.0764-2.7406 0-3.2831-0.24655-2.8762-1.307zm-153.65-12.307c-6.7816-2.5618-11.75-5.143-15.346-7.9715-2.746-2.1604-3.0513-2.8268-3.587-7.8291-0.57859-5.4028-0.55288-5.5014 2.1677-8.3083 1.5143-1.5623 4.2834-3.7374 6.1537-4.8334 3.6034-2.1117 11.942-5.601 12.368-5.1752 0.43912 0.43912 3.7879 33.68 3.513 34.872-0.20922 0.90691-1.277 0.75408-5.27-0.75433zm-17.715-4.5151c0-0.48127 0.37182-0.87503 0.82627-0.87503s0.82627 0.16396 0.82627 0.36437c0 0.2004-0.37182 0.59417-0.82627 0.87503-0.45445 0.28087-0.82627 0.1169-0.82627-0.36437z" fill="#9f9f9f"/>
 <path d="m178.52 538.69c-28.05-2.0642-50.208-6.9502-63.72-14.051-5.9557-3.1296-11.147-8.0558-11.837-11.232-0.22453-1.034-4.322-34.6-9.1054-74.592s-8.8305-73.532-8.9934-74.535c-0.26378-1.6234-0.10585-1.72 1.4414-0.88151 0.95572 0.51791 5.6238 2.3137 10.373 3.9907l8.6358 3.049 5.1002 40.799c8.3562 66.845 12.154 89.742 14.742 88.885 1.7298-0.57289 2.1318-11.967 1.2881-36.519-0.8369-24.355-3.7144-80.271-4.4647-86.758l-0.38224-3.3051 13.382-0.0751c15.419-0.0865 25.456-1.8202 38.547-6.658 36.593-13.523 63.832-45.06 72.33-83.744 0.74871-3.4084 1.5675-11.97 1.8196-19.027 0.51331-14.369-0.60498-23.926-4.2999-36.746-2.3884-8.287-9.3452-23.314-13.866-29.952l-2.9544-4.3379 5.9346-0.0143c3.264-8e-3 9.4329-0.38275 13.709-0.83307 4.2757-0.45031 7.874-0.71869 7.9963-0.59639 0.12229 0.12229-0.46494 27.547-1.305 60.944-0.84002 33.397-1.9766 81.358-2.5258 106.58-0.92084 42.293-1.1186 46.058-2.5442 48.434-1.9398 3.2332-2.1047 12.031-0.2907 15.51 1.109 2.1264 1.1087 7.5829-2e-3 49.989-0.68581 26.181-1.2483 50.814-1.2499 54.74l-3e-3 7.1379-2.6854 0.49706c-12.936 2.3944-51.087 4.3298-65.069 3.3008zm-36.329-28.003c7.311-3.7807 7.6482-20.894 0.49761-25.254-5.1352-3.1313-12.102-1.2634-14.223 3.8134-1.4061 3.3653-1.545 13.121-0.24009 16.865 1.7614 5.0529 8.6676 7.3158 13.966 4.576zm33.992-89.351c1.979-1.791 2.0682-8.2151 0.14357-10.342-1.7288-1.9103-6.6472-1.9916-8.6893-0.14356-1.8987 1.7182-2.0271 7.4433-0.22478 10.016 1.5769 2.2513 6.5096 2.5151 8.7705 0.46893zm98.428 97.956c0.27519-4.2705 5.7245-80.92 12.11-170.33 6.3851-89.413 11.609-163.03 11.609-163.6 0-0.59894 4.2411-2.3894 10.043-4.2399 5.5238-1.7618 12.86-4.6186 16.302-6.3486 3.4422-1.73 6.3232-3.0757 6.4021-2.9906 0.11299 0.12186-38.844 325.81-40.676 340.05-0.55403 4.3092-4.9569 9.0603-11.896 12.837l-4.3948 2.3919zm33.304-279c3.1842-2.1261 3.8327-10.238 1.0966-13.716-2.0952-2.6636-5.8251-2.9022-8.2027-0.52457-2.1023 2.1023-2.3308 10.232-0.36629 13.036 1.2963 1.8507 5.4916 2.5267 7.4725 1.204zm-133.53-50.313c-22.824-0.95213-57.731-4.8269-66.136-7.3412-1.0483-0.31361-1.6125-4.5564-3.1883-23.977-1.053-12.978-1.7428-23.767-1.5327-23.978 1.8479-1.8479 38.94-6.7256 59.712-7.8523 16.86-0.91449 69.348-0.67022 70.345 0.32737 0.2228 0.22281 2.6021 13.176 5.2872 28.785 2.6852 15.609 5.0834 29.217 5.3293 30.239 0.31471 1.3083 0.0754 1.8591-0.80795 1.8591-0.71762 0-1.2552-0.73098-1.2552-1.7069 0-1.9322-1.4486-5.0012-2.8091-5.9514-0.50004-0.34922-2.243-0.55351-3.8732-0.45396-2.0087 0.12266-3.7091-0.40508-5.2756-1.6373-3.045-2.3952-8.4903-2.457-11.449-0.12994-2.4729 1.9452-3.5112 6.038-2.3241 9.1605 0.80593 2.1198 0.74812 2.1644-3.4568 2.6696-4.0347 0.48472-26.807 0.47626-38.567-0.0143zm46.787-1.3456c-2.1101-1.5429-2.7217-7.3562-0.95931-9.1186 1.9959-1.9959 7.5682-1.8605 8.6767 0.21085 3.1782 5.9385-2.6221 12.634-7.7174 8.9077zm11.376-1.0714c0.27585-0.71884 0.50154-2.2061 0.50154-3.3051 0-1.6504 0.41378-1.9981 2.3776-1.9981 3.0039 0 4.575 1.8282 3.8959 4.5338-0.45029 1.7941-0.98041 2.0764-3.8989 2.0764-2.7406 0-3.2831-0.24655-2.8762-1.307zm-153.65-12.307c-6.7816-2.5618-11.75-5.143-15.346-7.9715-2.746-2.1604-3.0513-2.8268-3.587-7.8291-0.57859-5.4028-0.55288-5.5014 2.1677-8.3083 1.5143-1.5623 4.2834-3.7374 6.1537-4.8334 3.6034-2.1117 11.942-5.601 12.368-5.1752 0.43912 0.43912 3.7879 33.68 3.513 34.872-0.20922 0.90691-1.277 0.75408-5.27-0.75433zm-17.715-4.5151c0-0.48127 0.37182-0.87503 0.82627-0.87503s0.82627 0.16396 0.82627 0.36437c0 0.2004-0.37182 0.59417-0.82627 0.87503-0.45445 0.28087-0.82627 0.1169-0.82627-0.36437z" fill="#f5a33b"/>
 <path d="m178.52 538.69c-28.05-2.0642-50.208-6.9502-63.72-14.051-5.9556-3.1295-11.147-8.0556-11.837-11.232-0.49915-2.2975-11.201-91.495-11.201-93.358 0-1.1881 0.4353-1.2132 4.1328-0.23779 2.273 0.59961 6.7363 1.5293 9.9184 2.0661 4.8634 0.82033 5.8441 1.2602 6.1523 2.7598 0.20165 0.98116 1.3355 9.4063 2.5196 18.722 3.4821 27.396 8.3378 55.298 9.894 56.854 1.0937 1.0937 1.9248-1.4827 2.407-7.462 0.52024-6.4512-0.49774-44.054-1.6447-60.754l-0.52494-7.643h8.8067c9.2634 0 21.835-1.1089 29.28-2.5827 3.1747-0.62844 4.6816-0.62082 5.3294 0.027 0.49676 0.49676 2.2891 0.90319 3.983 0.90319 2.3371 0 3.4897-0.52105 4.7794-2.1606 1.2178-1.5482 4.1039-2.9592 10.182-4.9779 20.556-6.8273 43.331-20.423 59.184-35.331l3.6039-3.389-0.37752 14.047c-0.29279 10.895-0.68435 14.64-1.7448 16.691-1.7952 3.4715-1.8653 13.215-0.11311 15.717 1.1212 1.6008 1.1216 6.8514 3e-3 49.554-0.68812 26.27-1.2525 50.975-1.2541 54.901l-3e-3 7.1379-2.6854 0.49706c-12.936 2.3944-51.087 4.3298-65.069 3.3008zm-36.329-28.003c7.311-3.7807 7.6482-20.894 0.49761-25.254-5.1352-3.1313-12.102-1.2634-14.223 3.8134-1.4061 3.3653-1.545 13.121-0.24009 16.865 1.7614 5.0529 8.6676 7.3158 13.966 4.576zm132.44 8.1937c0.29156-4.4989 2.5662-36.252 5.0547-70.563s5.6644-78.186 7.0574-97.5c2.4188-33.535 2.6614-35.582 5.3851-45.445 4.2497-15.389 5.4672-23.608 5.9669-40.281 0.34701-11.578 0.1172-17.788-0.98952-26.74-1.3738-11.112-1.3727-12.656 0.0222-32.849l1.4637-21.189 9.9502-3.221c5.4726-1.7716 12.749-4.6277 16.17-6.3468 3.4208-1.7192 6.2842-3.0562 6.3631-2.971 0.11299 0.12186-38.844 325.81-40.676 340.05-0.55413 4.3099-4.957 9.0604-11.9 12.839l-4.3984 2.3939 0.5301-8.1798zm34.028-279.1c1.1702-0.85569 1.6387-2.4506 1.881-6.4036 0.27569-4.4975 0.0671-5.5348-1.4326-7.1232-1.152-1.2202-2.7221-1.8591-4.5682-1.8591-3.833 0-5.3854 2.3819-5.3854 8.2627 0 5.8076 1.5628 8.2627 5.2597 8.2627 1.478 0 3.3884-0.51278 4.2456-1.1395zm-134.27-49.806c-22.824-0.95213-57.731-4.8269-66.136-7.3412-1.0483-0.31361-1.6125-4.5564-3.1883-23.977-1.053-12.978-1.7416-23.769-1.5301-23.98 0.65017-0.65017 16.899-3.4982 29.954-5.25 14.167-1.9011 37.72-3.3574 54.312-3.3581 11.092-4.7e-4 11.355 0.0411 11.76 1.8586 0.88333 3.9594 10.358 59.989 10.358 61.253 0 1.1892-1.6699 1.3197-15.079 1.1781-8.2937-0.0876-17.496-0.26003-20.45-0.38326zm-95.484-14.724c-6.7816-2.5618-11.75-5.143-15.346-7.9715-2.746-2.1604-3.0513-2.8268-3.587-7.8291-0.57859-5.4028-0.55288-5.5014 2.1677-8.3083 1.5143-1.5623 4.2834-3.7374 6.1537-4.8334 3.6034-2.1117 11.942-5.601 12.368-5.1752 0.43912 0.43912 3.7879 33.68 3.513 34.872-0.20922 0.90691-1.277 0.75408-5.27-0.75433z" fill="#f19a3b"/>
 <path d="m178.52 538.69c-39.092-2.8768-68.495-11.922-74.563-22.938-0.52891-0.96019-2.1042-11.237-3.5007-22.837l-2.5391-21.092 7.044 1.0002c3.8742 0.55009 8.5565 1.0247 10.405 1.0546l3.3612 0.0545 1.7836 10.122c2.2436 12.732 3.3139 16.51 4.5606 16.096 1.2439-0.41251 2.3473-10.618 2.0401-18.869l-0.23396-6.2846 14.46-0.50906c37.161-1.3083 69.94-10.883 103.19-30.143l3.6246-2.0995-0.51377 21.421c-0.28258 11.782-0.76031 32.638-1.0616 46.347l-0.54786 24.926-2.563 0.4741c-12.828 2.373-51.038 4.3014-64.946 3.2778zm-36.329-28.003c3.1894-1.6493 5.0118-5.3508 5.5485-11.269 0.82798-9.1312-3.5369-15.577-10.533-15.555-6.8542 0.0216-9.9119 4.2937-9.914 13.851-2e-3 9.7859 2.9048 14.227 9.3126 14.227 1.7392 0 4.253-0.56403 5.5861-1.2534zm132.41 8.6049c0.47468-7.4643 3.2527-44.716 6.3095-84.608l1.4563-19.004 6.3688-6.6102c3.5028-3.6356 8.6084-9.362 11.346-12.725 4.7066-5.7829 4.9512-5.9624 4.5047-3.3051-0.2597 1.5455-3.4529 28.094-7.096 58.996-3.6431 30.903-6.8335 57.809-7.0897 59.792-0.55688 4.3093-4.9618 9.0617-11.898 12.837l-4.3948 2.3919zm-120.46-330.49c-16.194-1.3105-40.655-4.5947-45.892-6.1616-1.0483-0.31361-1.6125-4.5564-3.1883-23.977-1.053-12.978-1.7428-23.767-1.5327-23.978 1.4175-1.4175 37.349-6.5854 51.44-7.3984l9.9152-0.57206 5.4089 31.491 5.4089 31.491-6.6483-0.11358c-3.6566-0.0625-10.367-0.41449-14.911-0.78227zm-75.241-13.544c-6.7816-2.5618-11.75-5.143-15.346-7.9715-2.746-2.1604-3.0513-2.8268-3.587-7.8291-0.57859-5.4028-0.55288-5.5014 2.1677-8.3083 1.5143-1.5623 4.2834-3.7374 6.1537-4.8334 3.6034-2.1117 11.942-5.601 12.368-5.1752 0.43912 0.43912 3.7879 33.68 3.513 34.872-0.20922 0.90691-1.277 0.75408-5.27-0.75433z" fill="#ee923b"/>
 <path d="m178.52 538.69c-35.156-2.5813-63.491-10.5-72.246-20.191-2.7082-2.9976-4.4935-6.9387-3.5642-7.868 0.22281-0.22281 5.5659 0.0294 11.874 0.56058 13.715 1.1549 38.819 0.52054 52.269-1.3208 24.778-3.3922 51.138-10.996 71.908-20.742 4.2746-2.0059 7.8636-3.5503 7.9755-3.4319 0.11191 0.1184-8.3e-4 11.238-0.25089 24.711l-0.45438 24.495-3.3898 0.55191c-15.401 2.5075-50.151 4.2608-64.121 3.235zm96.114-18.598c0.28745-3.3477 1.3002-16.684 2.2506-29.635s1.9812-23.792 2.2907-24.088c1.4828-1.4218 17.824-13.871 17.984-13.701 0.1009 0.10691-1.2546 12.093-3.0122 26.635s-3.209 27.756-3.2253 29.364c-0.0487 4.8163-3.2 9.855-8.2923 13.259-2.4995 1.6709-5.4386 3.3115-6.5315 3.6458l-1.987 0.60776zm-138.67-332.96c-9.007-1.093-26.299-4.1551-27.732-4.9107-1.0499-0.55376-1.6468-5.0232-3.1937-23.913-1.0464-12.778-1.7282-23.406-1.5152-23.619 0.98874-0.98874 35.273-6.4726 35.99-5.7566 0.38825 0.38826 10.026 55.63 10.06 57.664 0.0278 1.6461-3.3566 1.7792-13.609 0.53504zm-57.839-12.25c-6.2083-2.2129-12.188-5.4279-15.026-8.079-2.1096-1.9706-2.6372-3.2438-3.1402-7.5774-0.5945-5.1222-0.55843-5.2574 2.1706-8.1375 2.4673-2.6038 17.666-10.813 18.491-9.9881 0.28959 0.2896 3.7016 31.922 3.7016 34.317 0 1.3651-1.1423 1.2664-6.197-0.53525z" fill="#ec8b3b"/>
</svg>
