<?xml version="1.0" encoding="utf-8"?>
<!-- Generator: Adobe Illustrator 23.0.0, SVG Export Plug-In . SVG Version: 6.00 Build 0)  -->
<svg version="1.1" id="Camada_1" xmlns="http://www.w3.org/2000/svg" xmlns:xlink="http://www.w3.org/1999/xlink" x="0px" y="0px"
	 viewBox="0 0 1487.7 1932.6" style="enable-background:new 0 0 1487.7 1932.6;" xml:space="preserve">
<style type="text/css">
	.st0{fill:#EFF3FA;}
	.st1{fill:#FFCD49;}
	.st2{fill:#F89939;}
	.st3{fill:#FFFFFF;}
</style>
<g>
	<path class="st0" d="M1188.8,1490.5c-7.4,0-15.2-0.2-22.9-0.5l-13-0.6l-1.8-147l15.8,2.2c0,0,4.7,0.6,12.5,0.6
		c40.2,0,135.3-15.6,151.1-159.5c3.1-135.9-2-352.3-28.3-393.3l-1.1-1.7l-0.6-1.9c-0.1-0.5-15.5-49.2-50.5-49.2
		c-22.9,0-51.7,19.9-83.4,57.5l-3,3.6l-43.4,9.3l-15.5-214.5l10-3.5c2.1-0.7,52.6-18.3,114.5-18.3c77,0,208.4,29.7,223.7,228.3
		c1.1,12.9,28.2,320.5,19.1,425.8c0,10.4-2.3,111.5-74.6,185.9C1348,1464.6,1277.7,1490.4,1188.8,1490.5L1188.8,1490.5z"/>
	<path d="M1229.3,587.5c87.1,0,196.2,36.6,210,215.3c0,0,28.3,319.4,19.1,424.1c0,0,2.1,249.5-269.6,249.5c-7.2,0-14.6-0.2-22.2-0.5
		l-1.4-117.5c0,0,5.4,0.7,14.3,0.7c39.4,0,147.9-14.6,164.8-172.7c0,0,7.8-342.4-30.6-402c0,0-17.8-59.1-63.7-59.1
		c-23.5,0-54.3,15.5-93.9,62.4l-23.4,5l-13.5-187.7C1119.3,605.1,1169,587.5,1229.3,587.5 M1229.3,559.4v28.1V559.4
		c-64.2,0-116.8,18.3-119.1,19.1l-20,7.1l1.6,21.6l13.5,187.7l2.3,32.1l30.8-6.6l23.4-5l9.1-2l6.1-7.2c38.6-45.8,62.3-52.6,73-52.6
		c24.4,0,37.3,39,37.4,39.4l1.2,3.8l2.1,3.2c4.6,7.2,20.1,43.5,25.2,208.8c2.6,85.3,1.1,165.2,0.9,175.9
		c-14.2,127.4-92.1,146.4-137.3,146.4c-6.7,0-10.7-0.5-10.8-0.5l-31.6-4.4l0.5,32.6l1.4,117.5l0.3,26.5l25.9,1.2
		c7.9,0.4,15.8,0.6,23.5,0.6c92.7,0,166.3-27.3,218.6-81.1c74.6-76.9,78.4-180.7,78.6-195.2c9-106.7-17.8-412.4-19.2-427.8
		C1450.5,590.7,1311,559.4,1229.3,559.4L1229.3,559.4z"/>
	<path class="st0" d="M656.5,1716.4c-104.6,0-358.5-12.8-456.4-131.7c-2.1-2.5-3.2-5.8-3.2-9.1l1.9-917.5c0-7,5.1-13,11.9-13.9
		L1120,516.8c0.6-0.1,1.2-0.1,1.9-0.1c3.2,0,6.3,1.1,8.8,3.3c3,2.5,4.8,6.2,4.9,10.2l46,1018.8c0.1,3.3-0.8,6.5-2.8,9.2
		c-33.4,44.9-147.3,150.1-483.2,157.5C695.7,1715.6,681,1716.3,656.5,1716.4L656.5,1716.4z"/>
	<path d="M1121.9,530.8l45.9,1018.8c-30.4,40.9-140.1,144.6-472.5,152c-0.7,0-15.2,0.7-38.8,0.7c-97.4,0-351-11.5-445.8-126.7
		l1.9-917.5L1121.9,530.8 M1121.9,502.7c-1.2,0-2.5,0.1-3.7,0.3L208.9,630.3c-13.6,1.9-23.8,13.8-23.8,27.8l-1.9,917.5
		c0,6.6,2.3,13.1,6.5,18.2c45.1,54.7,125.1,93.8,237.8,116.1c91,18,182.6,20.7,229.1,20.7c22.5,0,37-0.6,39.7-0.7
		c341.7-7.6,459-116.6,493.6-163.1c3.9-5.2,5.9-11.7,5.6-18.3l-45.9-1018.8c-0.4-7.9-3.9-15.3-9.9-20.3
		C1134.6,505,1128.3,502.7,1121.9,502.7L1121.9,502.7L1121.9,502.7z"/>
	<path class="st0" d="M682.8,1918.6c-103,0-358.3-10.4-503.7-106.3c-1.1-0.7-2-1.5-2.8-2.5c-4.1-4.7-38.4-50.5,9.9-211.7
		c1.7-5.8,6.9-9.8,12.8-9.9c0,0,4.2-0.1,4.3-0.1c3.7,0,7.3,1.5,9.9,4.2c17.1,17.9,39,34.2,65,48.2c119.2,64.4,300.6,71.4,373.1,71.4
		c25.8,0,42.4-0.8,44.2-0.9c307.6-6.8,427.1-93.2,470.9-144.1c2.6-3.1,6.4-4.8,10.3-4.8c0.6,0,1.2,0,1.8,0.1
		c4.5,0.6,8.5,3.5,10.5,7.7c7.2,14.8,68.5,146.8,10.8,215.9c-0.3,0.4-0.6,0.7-1,1.1c-5,4.9-126.9,119.9-480.2,131.1
		C718.3,1918.1,705.2,1918.6,682.8,1918.6C682.8,1918.6,682.8,1918.6,682.8,1918.6L682.8,1918.6z"/>
	<path d="M1176.7,1576.2c6,12.4,64.8,138,12.7,200.6c0,0-119,116-471.2,127.3c0,0-13.1,0.5-35.5,0.5c-94,0-352.4-9.1-496.2-104
		c0,0-34.7-40,12.7-198.2l3.9-0.1c19.1,19.9,42.4,36.7,68.4,50.8c119.8,64.7,297,73,379.6,73c25.4,0,41.9-0.8,44.9-0.9
		C1010.5,1718.1,1132.6,1627.3,1176.7,1576.2 M1176.7,1548c-7.9,0-15.4,3.4-20.7,9.5c-19.4,22.5-57.3,55.2-128.3,83.4
		c-85.9,34.2-197.7,53-332.3,55.9c-0.3,0-0.5,0-0.8,0c-1.8,0.1-18,0.9-43.5,0.9c-71.5,0-250.2-6.8-366.7-69.7
		c-24.7-13.4-45.5-28.7-61.6-45.6c-5.2-5.4-12.3-8.5-19.7-8.5c-0.2,0-0.5,0-0.8,0l-3.9,0.1c-11.8,0.3-22.1,8.3-25.6,19.9
		c-48.2,160.8-17.5,213-7,225.1c1.7,1.9,3.6,3.6,5.7,5c148.4,97.9,406.9,108.5,511.1,108.5c22.7,0,36-0.5,36.5-0.5
		c358.3-11.4,483.9-130,489.1-135c0.7-0.7,1.3-1.4,1.9-2.1c62.1-74.4,3.4-205.7-9-231.3c-4.1-8.4-12-14.2-21.1-15.4
		C1179.1,1548.1,1177.9,1548,1176.7,1548L1176.7,1548z"/>
	<path class="st1" d="M1091.2,1446.2c0.7,51.6-37.2,107.8-84.3,124.9c-188.8,68.8-386.7,76.1-580.8,28.9
		c-23.1-5.6-46.4-11.3-69-18.8c-47.6-15.8-87.1-70.9-87.8-122.5l-6.5-459.4c-0.7-51.6-1.9-135.9-2.7-187.5l-6.5-459.4
		c-0.7-51.6,39.5-94.4,89.5-95.1l229.3-3.5c49.9-0.8,131.7-2,181.6-2.8l229.3-3.5c50-0.8,68.7,40.8,69.5,92.4l24.7,459.4
		c0.7,51.6,6.5,135.9,7.2,187.5L1091.2,1446.2L1091.2,1446.2z"/>
	<path class="st2" d="M1019.4,1275.6c3.2,51.4,3,97-34.3,106.5c-39.5,10.1-43.6-39.7-44.7-91.4c-2.9-136.6-1.7-273.6-1.9-410.3
		c-0.1-45.6-0.2-120.2-0.3-165.8l-0.6-406.3c-0.1-45.6,3.8-83.5,8.7-84.1l22.2-3.1c4.8-0.7,12.8-1.8,17.6-2.4l22.2-3.1
		c4.8-0.7,6.7,36.1,6.7,81.7l2.4,406.3c0.1,45.6,0.6,120.2,0.7,165.9c0.1,83.1-0.1,166.2,0.3,249.3c0.2,51.9-2.2,104.5,1,156.1
		C1019.4,1275,1019.4,1275.3,1019.4,1275.6L1019.4,1275.6z"/>
	<path class="st3" d="M1009.7,625.6c0,0,142.9,131,197.9-112.3c0,0,87.9-37.4,29.3-119.7c0,0,29.3-97.3-55-86.1
		c0,0,11-127.2-109.9-104.8c0,0-40.3-74.8-117.3-15c0,0,16-73.7-18.3-113.6c0,0-135.6-140.8-282.2,8.8c0,0-77-59.9-139.3,22.5
		c0,0-62.3-44.9-120.9,29.9c0,0-62.3-104.8-131.9,0c0,0-164.9-22.5-142.9,145.9c0,0-128.3,71.1-62.3,164.6c0,0-80.1,59.5-22,123.5
		c0,0-48.9,72,44,131c0,0,14.7,78.6,73.3,56.1c0,0-18.3,119.7,58.6,138.5c0,0,14.7,254.5,168.6,232c0,0,117.3,3.7,139.3-160.9
		c0,0,135.6-82.3,69.6-194.6c0,0,128.2,42.6,172.1-80.9c0,0,88.9,58,125.5-9.4C885.9,681.2,998.7,749,1009.7,625.6L1009.7,625.6z"/>
	<path d="M360.6,1142.5c-132.3,0-158.4-190.1-162.8-236.7c-58.8-21.5-62.9-95.2-61.1-131.3c-1.5,0.1-3,0.2-4.5,0.2
		c-44.2,0-60.8-48-65.4-65.4C35,687.8,16,662.4,10.1,633.5c-5.5-27,2.3-50,8.1-62.3C4.4,553-1.6,533.4,0.4,512.9
		c3-31.9,25.1-57.2,38.4-69.7c-13.5-23.6-17.6-47.9-12.1-72.4c11.1-49.5,58.6-84.5,77.9-96.9c-4.4-46.6,4.8-83.5,27.5-110
		c32.5-37.9,83.8-43.6,111.5-43.6c4.7,0,8.7,0.2,12,0.4c22-30.5,46.1-45.9,71.8-45.9c30.8,0,54.7,22.6,67.8,38.4
		C422.7,84.5,450.6,78,470.1,78c17.6,0,32.2,5.1,41.6,9.5c22.9-26,50.5-39.7,80.6-39.7c26.1,0,48.1,10.2,60.2,17.3
		C697.7,21.9,746.5,0,797.6,0c85.7,0,146,61.6,148.6,64.3c0.2,0.2,0.3,0.4,0.5,0.6c23.8,27.7,26.6,68,25.2,95.5
		c13.5-6.6,26.8-9.9,39.7-9.9c35,0,57.2,23.8,66.9,37c38.9-5.2,69.1,3.9,89.7,26.9c21.9,24.4,26.8,58.4,27.6,78.2
		c26.4,0.3,40.4,12.1,47.6,22.1c17.7,24.5,12,60.9,8.4,76.3c17.4,26.6,22.9,52,16.3,75.7c-8.6,31.3-36,49.5-48.7,56.4
		c-30,125.3-85.2,151.8-126.7,151.8c-29.5,0-56.1-13.3-73.1-24.3c-12.8,54.5-49.5,63.4-71.9,63.4h0c-22.4,0-44.3-8.4-57.2-14.4
		c-14.2,18.7-34.5,28.4-59.2,28.4c-24.9,0-49.3-9.9-64.1-17.4c-24.3,53.1-69.7,82.2-129.3,82.2c-9.3,0-17.8-0.7-25.3-1.7
		c8.5,24,9.8,48.2,3.8,72.5c-14.5,58.7-67.4,98.9-85.1,111c-24.4,160.8-136.8,166.5-151.1,166.6C373.6,1142,367,1142.5,360.6,1142.5
		L360.6,1142.5z M152.2,742.5c3.1,0,6.2,1.1,8.7,3.2c3.8,3.2,5.7,8.1,4.9,13.1c-0.2,1.1-15.4,107.1,48.2,122.6
		c5.9,1.4,10.2,6.7,10.6,12.8c0.1,2.2,14.3,220.2,136,220.2c5.4,0,11.1-0.4,16.8-1.3c0.8-0.1,1.6-0.2,2.4-0.1
		c11,0,105.9-4.2,125.2-148.8c0.6-4.2,3-8,6.6-10.2c0.6-0.4,63.9-39.6,78.2-97.5c6.3-25.8,1.9-51.9-13.3-77.8c-3-5-2.5-11.4,1-16
		c3.6-4.6,9.6-6.4,15-4.6c0.2,0.1,19.9,6.4,45.4,6.4c54.1,0,90.9-26.5,109.5-78.7c1.4-4,4.6-7.1,8.5-8.5c4-1.4,8.3-0.8,11.8,1.5
		c0.3,0.2,32.7,21,63.5,21c19.3,0,33.2-8.3,42.5-25.3c1.8-3.3,4.8-5.8,8.4-6.7c3.6-1,7.4-0.5,10.6,1.5c0.3,0.2,28.2,16.6,54.9,16.6
		h0.1c10.7,0,42.6-0.2,48-61.5c0.5-5.3,3.8-9.9,8.7-11.8c4.8-2,10.4-0.9,14.2,2.6c0.3,0.3,35.2,31.6,73.9,31.6
		c58.3,0,87.3-74.3,101.4-136.6c1-4.4,4-8.1,8.1-9.8c0.3-0.1,32-14.2,39.4-41.5c4.5-16.6-0.9-35.8-16-57c-2.6-3.6-3.3-8.2-2-12.4
		c3.2-10.8,9-42.3-2.5-58.2c-6.6-9.1-19.1-12.3-37.5-9.8c-4.2,0.6-8.3-0.8-11.3-3.8c-3-3-4.6-7.1-4.2-11.4c0-0.4,3.5-46.5-20.4-73
		c-11.6-12.9-27.6-19.1-48.9-19.1c-7.5,0-15.7,0.8-24.4,2.4c-5.8,1.1-11.7-1.8-14.5-7.1c-0.7-1.2-17.4-30.9-48.3-30.9
		c-14.9,0-31.2,6.8-48.6,20.3c-4.6,3.6-10.9,3.8-15.8,0.7c-4.9-3.2-7.3-9.1-6-14.9c0.1-0.6,13.9-66.8-14.9-100.9
		c-4-4-57.3-55.6-128.7-55.6c-46.6,0-91.6,21.8-133.7,64.8c-4.9,5-12.6,5.5-18.1,1.2c-0.2-0.2-24-18.1-53.7-18.1
		c-24.9,0-47.3,12.8-66.3,38c-4.5,6-12.8,7.2-18.8,2.9c-0.1-0.1-15.6-10.8-37-10.8c-23.5,0-45.5,12.8-65.3,38
		c-2.8,3.6-7.2,5.6-11.6,5.2c-4.5-0.3-8.5-2.8-10.9-6.7c-0.2-0.4-24.3-39.8-55-39.8c-17.9,0-35.9,13.6-53.7,40.4
		c-2.9,4.4-8.1,6.7-13.2,6c0,0-6.7-0.9-16.8-0.9c-23,0-65.4,4.4-90.7,34c-18.7,21.9-25.4,54.5-19.9,97.1c0.8,5.8-2.1,11.4-7.1,14.2
		c-0.6,0.3-61.5,34.8-72.3,83.5c-4.5,20.4,0.3,40.2,14.6,60.6c4.4,6.3,3.1,15-3.1,19.6c-0.3,0.2-34.2,26-37.2,58.5
		c-1.4,15.3,4.2,29.7,17.2,44.1c4.4,4.8,4.9,12.2,1.2,17.6c-0.1,0.2-14.8,22.8-9,50.7c4.7,22.4,21.1,42.7,49,60.3
		c3.3,2.1,5.5,5.5,6.3,9.3c0.1,0.5,9.7,48.7,39.8,48.7c4.6,0,9.7-1.1,15.1-3.1C148.9,742.8,150.5,742.5,152.2,742.5L152.2,742.5z"/>
	<g>
		<path class="st2" d="M550.7,1454.7c20.6,0,20.6-32.6,0-32.6C530.2,1422.1,530.2,1454.7,550.7,1454.7z"/>
		<path class="st2" d="M642.5,1220.3c20.6,0,20.6-32.6,0-32.6S622,1220.3,642.5,1220.3z"/>
		<path class="st2" d="M761.9,920.2c20.6,0,20.6-32.6,0-32.6C741.3,887.7,741.3,920.2,761.9,920.2z"/>
		<path class="st2" d="M422.2,1248.4c20.6,0,20.6-32.6,0-32.6C401.6,1215.8,401.6,1248.4,422.2,1248.4z"/>
		<path class="st2" d="M853.7,1450c20.6,0,20.6-32.6,0-32.6S833.2,1450,853.7,1450z"/>
		<path class="st2" d="M788.5,1078.4c2-6.4,2.4-13.1-1.4-19c-3.6-5.7-9.2-9.4-16-9.4c-6.8,0-12.4,3.7-16,9.4
			c-3.8,5.9-3.3,12.6-1.4,19c2.4,7.9,9.1,13.5,17.4,13.5S786.1,1086.2,788.5,1078.4z"/>
		<path class="st2" d="M576,1079.8c1.6,1.5,3.2,2.9,4.9,4.4c4.5,4.1,9.6,6.7,15.8,6.7c5.9,0,11.6-2.4,15.8-6.7
			c4.2-4.3,6.5-10.1,6.5-16.1c0-6.3-2.5-11.5-6.5-16.1c-1.4-1.7-2.9-3.3-4.3-5c-8.2-9.5-23.8-8.5-32.1,0
			C567.6,1055.5,566.7,1071.3,576,1079.8L576,1079.8z"/>
		<path class="st2" d="M665.5,1393.8c20.6,0,20.6-32.6,0-32.6C644.9,1361.2,644.9,1393.8,665.5,1393.8z"/>
		<path class="st2" d="M785.8,1291.3c-1.6-4.4-4-10.4-8.6-12.5c-4.3-1.9-7.5-2.6-12-1.5c-3.3,0.8-6.3,3.2-8.7,5.6
			c-5.4,5.2-5.6,15.3,0,20.5c5.8,5.3,11.9,7,19.5,5.7c3.4-0.6,7.3-3.2,9.7-5.7c-3.3,1.4-6.7,2.8-10,4.2h4.6c6.3,0,12-4.4,13.7-10.6
			c2-7.3-2.3-16.1-9.9-17.8c3.1,0.7,2,1.1,0.7,0.5c-1.5-0.7-3.1-1.4-4.7-1.9c3.6,3.7,7.3,7.4,10.9,11.2c-1.5-5.6-4.5-8.6-8.9-11.9
			c1.2,1,2.5,2,3.7,2.9c-0.2-0.2-0.4-0.4-0.7-0.6c-2.5-2.5-5.4-4.3-8.8-5.2c-5.7-1.6-10.2-0.2-15.4,2.1c-2,0.9-3.7,2.8-5.4,4.3
			c-3.4,3-5,7.1-6.4,11.2c-2.7,7.6,0.4,17.1,5.8,22.6c7.5,7.7,18.4,8.5,27.5,3.6c0.4-0.2,0.8-0.4,1.1-0.7c-3.9,1.1-7.8,2.2-11.7,3.2
			c10.9,0.4,20-7.2,24.5-16.8c-5,3.9-10,7.8-15,11.8c7.1-2.5,13-6.2,16.9-12.9c1.6-2.8,2.2-5.2,3.1-7.9c-0.9,2.2-1.8,4.4-2.7,6.5
			c0,0,0-0.1,0-0.1c-3.2,3.3-6.4,6.5-9.6,9.8c0,0,0,0,0,0c-13.5-7.9-26.9-15.8-40.4-23.7c0,0.4-0.1,0.9-0.1,1.3
			c-0.8,6.8,3.4,14.8,7.9,19.5c5,5.2,12,8.1,19.1,8.1s14.1-2.9,19.1-8.1c4.5-4.6,8.7-12.7,7.9-19.5c-0.3-2.8-0.3-5.8-1.1-8.6
			c-2.8-9.2-9.5-16.5-18.7-19.1c-4.8-1.3-9.5-1.3-14.3,0c-4.5,1.3-8.5,3.7-11.8,7.1c-5.8,4.7-7.4,12.8-7.9,19.9
			c-0.7,8.3,3.2,15.2,8.3,21.1c-2.1-8.3-4.3-16.6-6.4-24.9c-0.2,1.3-0.4,2.6-0.8,3.8c-1.5,5-2,10.3-0.2,15.3v-12.6
			c-0.1,0.2-0.1,0.4-0.2,0.6c0.8-1.9,1.5-3.7,2.3-5.6c-0.1,0.2-0.2,0.4-0.3,0.6c13.9,1.9,27.7,3.7,41.6,5.5c-1.3-3.9-3-8.2-6.2-11
			c-1.8-1.5-3.7-3.7-5.7-4.5c3.1,7.7,6.1,15.4,9.2,23c0.1-0.4,0.2-0.7,0.2-1.1c-2.8,3.7-5.6,7.4-8.4,11.2c4.4-3.3,7.4-6.3,8.9-11.9
			c-3.6,3.7-7.3,7.4-10.9,11.2c1.6-0.5,3.2-1.3,4.7-1.9c1.3-0.5,2.3-0.2-0.7,0.5c6.1-1.4,10.4-7.8,10.4-14c0-7.9-6.4-14.5-14.2-14.5
			c-2.7,0-5.7-0.2-8.4,0.5c-2.5,0.7-4.4,1.9-6.3,3.8c-1.5,1.4,3.4-2.5,1.5-1.3c-1.9,1.2,3.7-1.3,1.3-0.6c2.8-0.8,5.9-0.2,8.1,1.8
			v20.5c0.2-0.2,0.5-0.5,0.7-0.7c-2,2-4.5,3-7.5,3c-2.4-0.7-4.8-1.3-7.2-2c-1.4-1.5-2.9-3-4.3-4.5c-0.6-2.4-1.3-4.9-1.9-7.3
			c0.1,1.4,0.3,0.6,0.5-2.5c-0.1,0.6-0.3,1.3-0.4,1.9c-2.7,9.8,4.8,19.7,14.7,19.7C780.4,1311,789.3,1300.9,785.8,1291.3
			L785.8,1291.3z"/>
		<path class="st2" d="M384,1356.5c-5.7,2.7-10.7,9.7-12,15.8c-1.3,6.1-0.7,10,0.3,16.2c1.1,4,3.1,7.5,5.9,10.4
			c4.3,4.4,10.2,6.9,16.3,6.9c4.2,0,8.1-1.1,11.7-3.2c4.7-2.8,9.6-8.4,10.6-14.1c0.2-1,0.3-2.1,0.7-3.1c-0.8,1.9-1.6,3.8-2.4,5.8
			c0.1-0.2,0.1-0.3,0.2-0.5c-1.2,1.6-2.5,3.3-3.7,4.9c0.1-0.1,0.2-0.2,0.3-0.3c-1.6,1.3-3.2,2.5-4.8,3.8c0.1,0,0.1-0.1,0.2-0.1
			c-1.9,0.8-3.8,1.6-5.7,2.5c0.1-0.1,0.3-0.1,0.5-0.1c-2.1,0.3-4.2,0.6-6.4,0.9c0.1,0,0.2,0,0.3,0c6.6-0.6,12.1-2.3,16.9-7.2
			c6-6.2,8.4-15.4,6.2-23.8c-1.6-6.1-5.7-11.4-11-14.6c-3.7-2.2-7.8-3.3-12.1-3.3C391.8,1353.1,387.7,1354.2,384,1356.5L384,1356.5z
			"/>
		<path class="st2" d="M876.7,761c3.1,0,3.1-4.9,0-4.9S873.6,761,876.7,761z"/>
		<path class="st2" d="M867.5,798.3c20.6,0,20.6-32.6,0-32.6C846.9,765.8,846.9,798.3,867.5,798.3z"/>
	</g>
</g>
</svg>
