<svg id="Camada_1" data-name="Camada 1" xmlns="http://www.w3.org/2000/svg" viewBox="0 0 1920 1080"><defs><style>.cls-1{fill:#fffde9;}.cls-2,.cls-4{fill:#ffeaa6;}.cls-2,.cls-3{opacity:0.75;}</style></defs><title>fundoteste</title><rect class="cls-1" width="1920" height="1080"/><path class="cls-2" d="M1805,708h-7.62a9.22,9.22,0,0,0,1.87-5.57v-5.57h1.85a5.58,5.58,0,0,0,0-11.15H1799a5.66,5.66,0,0,0,.32-1.85v-3.3a5.66,5.66,0,0,0-.32-1.85h2.17a5.58,5.58,0,0,0,0-11.15H1799a5.66,5.66,0,0,0,.32-1.85c0-6.24-3.79-12-10.67-16.32-6.6-4.12-15.35-6.39-24.62-6.39s-18,2.27-24.62,6.39c-6.88,4.29-10.67,10.08-10.67,16.32a5.66,5.66,0,0,0,.32,1.85h-2.17a5.58,5.58,0,0,0,0,11.15H1729a5.66,5.66,0,0,0-.32,1.85v3.3a5.66,5.66,0,0,0,.32,1.85h-2.17a5.58,5.58,0,0,0,0,11.15h1.85v5.57a9.22,9.22,0,0,0,1.87,5.57H1723a6.5,6.5,0,0,0,0,13H1805a6.5,6.5,0,0,0,0-13Zm-80-34.86a1.86,1.86,0,0,1,1.86-1.86H1738a1.86,1.86,0,0,0,0-3.72h-3.71a1.85,1.85,0,0,1-1.86-1.85c0-4.91,3.16-9.58,8.91-13.17,6-3.76,14.07-5.83,22.66-5.83s16.63,2.07,22.65,5.83c5.76,3.59,8.92,8.26,8.92,13.17a1.85,1.85,0,0,1-1.86,1.85h-39a1.86,1.86,0,0,0,0,3.72h46.43a1.86,1.86,0,1,1,0,3.71h-7.43a10.74,10.74,0,0,0-5.86,1.69,7.4,7.4,0,0,1-8.08,0,11,11,0,0,0-11.73,0,7.4,7.4,0,0,1-8.08,0,11,11,0,0,0-11.73,0,7.4,7.4,0,0,1-8.08,0,10.74,10.74,0,0,0-5.86-1.69h-7.43A1.85,1.85,0,0,1,1725,673.14Zm7.43,10.72v-3.3a1.85,1.85,0,0,1,1.86-1.85,7.14,7.14,0,0,1,4,1.2,11.06,11.06,0,0,0,11.72,0,7.42,7.42,0,0,1,8.09,0,11.06,11.06,0,0,0,11.72,0,7.42,7.42,0,0,1,8.09,0,11.06,11.06,0,0,0,11.72,0,7.14,7.14,0,0,1,4-1.2,1.85,1.85,0,0,1,1.86,1.85v3.3a1.85,1.85,0,0,1-1.86,1.85h-59.42A1.85,1.85,0,0,1,1732.43,683.86Zm0,18.57v-5.57H1777a1.86,1.86,0,0,0,0-3.72h-50.14a1.86,1.86,0,1,1,0-3.71h74.28a1.86,1.86,0,1,1,0,3.71h-7.43a1.86,1.86,0,0,0,0,3.72h1.86v5.57A5.58,5.58,0,0,1,1790,708h-52A5.58,5.58,0,0,1,1732.43,702.43ZM1805,717.29H1723a2.79,2.79,0,0,1,0-5.58H1805a2.79,2.79,0,0,1,0,5.58Z"/><path class="cls-2" d="M1868,966h-7.62a9.22,9.22,0,0,0,1.87-5.57v-5.57h1.85a5.58,5.58,0,0,0,0-11.15H1862a5.66,5.66,0,0,0,.32-1.85v-3.3a5.66,5.66,0,0,0-.32-1.85h2.17a5.58,5.58,0,0,0,0-11.15H1862a5.66,5.66,0,0,0,.32-1.85c0-6.24-3.79-12-10.67-16.32-6.6-4.12-15.35-6.39-24.62-6.39s-18,2.27-24.62,6.39c-6.88,4.29-10.67,10.08-10.67,16.32a5.66,5.66,0,0,0,.32,1.85h-2.17a5.58,5.58,0,0,0,0,11.15H1792a5.66,5.66,0,0,0-.32,1.85v3.3a5.66,5.66,0,0,0,.32,1.85h-2.17a5.58,5.58,0,0,0,0,11.15h1.85v5.57a9.22,9.22,0,0,0,1.87,5.57H1786a6.5,6.5,0,0,0,0,13H1868a6.5,6.5,0,0,0,0-13Zm-80-34.86a1.86,1.86,0,0,1,1.86-1.86H1801a1.86,1.86,0,0,0,0-3.72h-3.71a1.85,1.85,0,0,1-1.86-1.85c0-4.91,3.16-9.58,8.91-13.17,6-3.76,14.07-5.83,22.66-5.83s16.63,2.07,22.65,5.83c5.76,3.59,8.92,8.26,8.92,13.17a1.85,1.85,0,0,1-1.86,1.85h-39a1.86,1.86,0,0,0,0,3.72h46.43a1.86,1.86,0,1,1,0,3.71h-7.43a10.74,10.74,0,0,0-5.86,1.69,7.4,7.4,0,0,1-8.08,0,11,11,0,0,0-11.73,0,7.4,7.4,0,0,1-8.08,0,11,11,0,0,0-11.73,0,7.4,7.4,0,0,1-8.08,0,10.74,10.74,0,0,0-5.86-1.69h-7.43A1.85,1.85,0,0,1,1788,931.14Zm7.43,10.72v-3.3a1.85,1.85,0,0,1,1.86-1.85,7.14,7.14,0,0,1,4,1.2,11.06,11.06,0,0,0,11.72,0,7.42,7.42,0,0,1,8.09,0,11.06,11.06,0,0,0,11.72,0,7.42,7.42,0,0,1,8.09,0,11.06,11.06,0,0,0,11.72,0,7.14,7.14,0,0,1,4-1.2,1.85,1.85,0,0,1,1.86,1.85v3.3a1.85,1.85,0,0,1-1.86,1.85h-59.42A1.85,1.85,0,0,1,1795.43,941.86Zm0,18.57v-5.57H1840a1.86,1.86,0,0,0,0-3.72h-50.14a1.86,1.86,0,1,1,0-3.71h74.28a1.86,1.86,0,1,1,0,3.71h-7.43a1.86,1.86,0,0,0,0,3.72h1.86v5.57A5.58,5.58,0,0,1,1853,966h-52A5.58,5.58,0,0,1,1795.43,960.43ZM1868,975.29H1786a2.79,2.79,0,0,1,0-5.58H1868a2.79,2.79,0,0,1,0,5.58Z"/><path class="cls-2" d="M865,849h-7.62a9.22,9.22,0,0,0,1.87-5.57v-5.57h1.85a5.58,5.58,0,0,0,0-11.15H859a5.66,5.66,0,0,0,.32-1.85v-3.3a5.66,5.66,0,0,0-.32-1.85h2.17a5.58,5.58,0,0,0,0-11.15H859a5.66,5.66,0,0,0,.32-1.85c0-6.24-3.79-12-10.67-16.32C842,786.27,833.27,784,824,784s-18,2.27-24.62,6.39c-6.88,4.29-10.67,10.08-10.67,16.32a5.66,5.66,0,0,0,.32,1.85h-2.17a5.58,5.58,0,0,0,0,11.15H789a5.66,5.66,0,0,0-.32,1.85v3.3a5.66,5.66,0,0,0,.32,1.85h-2.17a5.58,5.58,0,0,0,0,11.15h1.85v5.57a9.22,9.22,0,0,0,1.87,5.57H783a6.5,6.5,0,0,0,0,13H865a6.5,6.5,0,0,0,0-13Zm-80-34.86a1.86,1.86,0,0,1,1.86-1.86H798a1.86,1.86,0,1,0,0-3.72h-3.71a1.85,1.85,0,0,1-1.86-1.85c0-4.91,3.16-9.58,8.91-13.17,6-3.76,14.07-5.83,22.66-5.83s16.63,2.07,22.65,5.83c5.76,3.59,8.92,8.26,8.92,13.17a1.85,1.85,0,0,1-1.86,1.85h-39a1.86,1.86,0,0,0,0,3.72h46.43a1.86,1.86,0,1,1,0,3.71h-7.43a10.74,10.74,0,0,0-5.86,1.69,7.4,7.4,0,0,1-8.08,0,11,11,0,0,0-11.73,0,7.4,7.4,0,0,1-8.08,0,11,11,0,0,0-11.73,0,7.4,7.4,0,0,1-8.08,0,10.74,10.74,0,0,0-5.86-1.69h-7.43A1.85,1.85,0,0,1,785,814.14Zm7.43,10.72v-3.3a1.85,1.85,0,0,1,1.86-1.85,7.14,7.14,0,0,1,4,1.2,11.06,11.06,0,0,0,11.72,0,7.42,7.42,0,0,1,8.09,0,11.06,11.06,0,0,0,11.72,0,7.42,7.42,0,0,1,8.09,0,11.06,11.06,0,0,0,11.72,0,7.14,7.14,0,0,1,4-1.2,1.85,1.85,0,0,1,1.86,1.85v3.3a1.85,1.85,0,0,1-1.86,1.85H794.29A1.85,1.85,0,0,1,792.43,824.86Zm0,18.57v-5.57H837a1.86,1.86,0,0,0,0-3.72H786.86a1.86,1.86,0,1,1,0-3.71h74.28a1.86,1.86,0,1,1,0,3.71h-7.43a1.86,1.86,0,0,0,0,3.72h1.86v5.57A5.58,5.58,0,0,1,850,849H798A5.58,5.58,0,0,1,792.43,843.43ZM865,858.29H783a2.79,2.79,0,0,1,0-5.58H865a2.79,2.79,0,1,1,0,5.58Z"/><path class="cls-2" d="M1540,344h-7.62a9.22,9.22,0,0,0,1.87-5.57v-5.57h1.85a5.58,5.58,0,0,0,0-11.15H1534a5.66,5.66,0,0,0,.32-1.85v-3.3a5.66,5.66,0,0,0-.32-1.85h2.17a5.58,5.58,0,0,0,0-11.15H1534a5.66,5.66,0,0,0,.32-1.85c0-6.24-3.79-12-10.67-16.32-6.6-4.12-15.35-6.39-24.62-6.39s-18,2.27-24.62,6.39c-6.88,4.29-10.67,10.08-10.67,16.32a5.66,5.66,0,0,0,.32,1.85h-2.17a5.58,5.58,0,0,0,0,11.15H1464a5.66,5.66,0,0,0-.32,1.85v3.3a5.66,5.66,0,0,0,.32,1.85h-2.17a5.58,5.58,0,0,0,0,11.15h1.85v5.57a9.22,9.22,0,0,0,1.87,5.57H1458a6.5,6.5,0,0,0,0,13H1540a6.5,6.5,0,0,0,0-13Zm-80-34.86a1.86,1.86,0,0,1,1.86-1.86H1473a1.86,1.86,0,0,0,0-3.72h-3.71a1.85,1.85,0,0,1-1.86-1.85c0-4.91,3.16-9.58,8.91-13.17,6-3.76,14.07-5.83,22.66-5.83s16.63,2.07,22.65,5.83c5.76,3.59,8.92,8.26,8.92,13.17a1.85,1.85,0,0,1-1.86,1.85h-39a1.86,1.86,0,0,0,0,3.72h46.43a1.86,1.86,0,1,1,0,3.71h-7.43a10.74,10.74,0,0,0-5.86,1.69,7.4,7.4,0,0,1-8.08,0,11,11,0,0,0-11.73,0,7.4,7.4,0,0,1-8.08,0,11,11,0,0,0-11.73,0,7.4,7.4,0,0,1-8.08,0,10.74,10.74,0,0,0-5.86-1.69h-7.43A1.85,1.85,0,0,1,1460,309.14Zm7.43,10.72v-3.3a1.85,1.85,0,0,1,1.86-1.85,7.14,7.14,0,0,1,4,1.2,11.06,11.06,0,0,0,11.72,0,7.42,7.42,0,0,1,8.09,0,11.06,11.06,0,0,0,11.72,0,7.42,7.42,0,0,1,8.09,0,11.06,11.06,0,0,0,11.72,0,7.14,7.14,0,0,1,4-1.2,1.85,1.85,0,0,1,1.86,1.85v3.3a1.85,1.85,0,0,1-1.86,1.85h-59.42A1.85,1.85,0,0,1,1467.43,319.86Zm0,18.57v-5.57H1512a1.86,1.86,0,0,0,0-3.72h-50.14a1.86,1.86,0,1,1,0-3.71h74.28a1.86,1.86,0,1,1,0,3.71h-7.43a1.86,1.86,0,0,0,0,3.72h1.86v5.57A5.58,5.58,0,0,1,1525,344h-52A5.58,5.58,0,0,1,1467.43,338.43ZM1540,353.29H1458a2.79,2.79,0,1,1,0-5.58H1540a2.79,2.79,0,0,1,0,5.58Z"/><path class="cls-2" d="M340,757h-7.62a9.22,9.22,0,0,0,1.87-5.57v-5.57h1.85a5.58,5.58,0,0,0,0-11.15H334a5.66,5.66,0,0,0,.32-1.85v-3.3a5.66,5.66,0,0,0-.32-1.85h2.17a5.58,5.58,0,0,0,0-11.15H334a5.66,5.66,0,0,0,.32-1.85c0-6.24-3.79-12-10.67-16.32C317,694.27,308.27,692,299,692s-18,2.27-24.62,6.39c-6.88,4.29-10.67,10.08-10.67,16.32a5.66,5.66,0,0,0,.32,1.85h-2.17a5.58,5.58,0,0,0,0,11.15H264a5.66,5.66,0,0,0-.32,1.85v3.3a5.66,5.66,0,0,0,.32,1.85h-2.17a5.58,5.58,0,0,0,0,11.15h1.85v5.57a9.22,9.22,0,0,0,1.87,5.57H258a6.5,6.5,0,1,0,0,13H340a6.5,6.5,0,0,0,0-13Zm-80-34.86a1.86,1.86,0,0,1,1.86-1.86H273a1.86,1.86,0,1,0,0-3.72h-3.71a1.85,1.85,0,0,1-1.86-1.85c0-4.91,3.16-9.58,8.91-13.17,6-3.76,14.07-5.83,22.66-5.83s16.63,2.07,22.65,5.83c5.76,3.59,8.92,8.26,8.92,13.17a1.85,1.85,0,0,1-1.86,1.85h-39a1.86,1.86,0,0,0,0,3.72h46.43a1.86,1.86,0,1,1,0,3.71h-7.43a10.74,10.74,0,0,0-5.86,1.69,7.4,7.4,0,0,1-8.08,0,11,11,0,0,0-11.73,0,7.4,7.4,0,0,1-8.08,0,11,11,0,0,0-11.73,0,7.4,7.4,0,0,1-8.08,0,10.74,10.74,0,0,0-5.86-1.69h-7.43A1.85,1.85,0,0,1,260,722.14Zm7.43,10.72v-3.3a1.85,1.85,0,0,1,1.86-1.85,7.14,7.14,0,0,1,4,1.2,11.06,11.06,0,0,0,11.72,0,7.42,7.42,0,0,1,8.09,0,11.06,11.06,0,0,0,11.72,0,7.42,7.42,0,0,1,8.09,0,11.06,11.06,0,0,0,11.72,0,7.14,7.14,0,0,1,4-1.2,1.85,1.85,0,0,1,1.86,1.85v3.3a1.85,1.85,0,0,1-1.86,1.85H269.29A1.85,1.85,0,0,1,267.43,732.86Zm0,18.57v-5.57H312a1.86,1.86,0,0,0,0-3.72H261.86a1.86,1.86,0,1,1,0-3.71h74.28a1.86,1.86,0,1,1,0,3.71h-7.43a1.86,1.86,0,0,0,0,3.72h1.86v5.57A5.58,5.58,0,0,1,325,757H273A5.58,5.58,0,0,1,267.43,751.43ZM340,766.29H258a2.79,2.79,0,0,1,0-5.58H340a2.79,2.79,0,0,1,0,5.58Z"/><path class="cls-2" d="M1439,834h-7.62a9.22,9.22,0,0,0,1.87-5.57v-5.57h1.85a5.58,5.58,0,0,0,0-11.15H1433a5.66,5.66,0,0,0,.32-1.85v-3.3a5.66,5.66,0,0,0-.32-1.85h2.17a5.58,5.58,0,0,0,0-11.15H1433a5.66,5.66,0,0,0,.32-1.85c0-6.24-3.79-12-10.67-16.32-6.6-4.12-15.35-6.39-24.62-6.39s-18,2.27-24.62,6.39c-6.88,4.29-10.67,10.08-10.67,16.32a5.66,5.66,0,0,0,.32,1.85h-2.17a5.58,5.58,0,0,0,0,11.15H1363a5.66,5.66,0,0,0-.32,1.85v3.3a5.66,5.66,0,0,0,.32,1.85h-2.17a5.58,5.58,0,0,0,0,11.15h1.85v5.57a9.22,9.22,0,0,0,1.87,5.57H1357a6.5,6.5,0,0,0,0,13H1439a6.5,6.5,0,0,0,0-13Zm-80-34.86a1.86,1.86,0,0,1,1.86-1.86H1372a1.86,1.86,0,0,0,0-3.72h-3.71a1.85,1.85,0,0,1-1.86-1.85c0-4.91,3.16-9.58,8.91-13.17,6-3.76,14.07-5.83,22.66-5.83s16.63,2.07,22.65,5.83c5.76,3.59,8.92,8.26,8.92,13.17a1.85,1.85,0,0,1-1.86,1.85h-39a1.86,1.86,0,0,0,0,3.72h46.43a1.86,1.86,0,1,1,0,3.71h-7.43a10.74,10.74,0,0,0-5.86,1.69,7.4,7.4,0,0,1-8.08,0,11,11,0,0,0-11.73,0,7.4,7.4,0,0,1-8.08,0,11,11,0,0,0-11.73,0,7.4,7.4,0,0,1-8.08,0,10.74,10.74,0,0,0-5.86-1.69h-7.43A1.85,1.85,0,0,1,1359,799.14Zm7.43,10.72v-3.3a1.85,1.85,0,0,1,1.86-1.85,7.14,7.14,0,0,1,4,1.2,11.06,11.06,0,0,0,11.72,0,7.42,7.42,0,0,1,8.09,0,11.06,11.06,0,0,0,11.72,0,7.42,7.42,0,0,1,8.09,0,11.06,11.06,0,0,0,11.72,0,7.14,7.14,0,0,1,4-1.2,1.85,1.85,0,0,1,1.86,1.85v3.3a1.85,1.85,0,0,1-1.86,1.85h-59.42A1.85,1.85,0,0,1,1366.43,809.86Zm0,18.57v-5.57H1411a1.86,1.86,0,0,0,0-3.72h-50.14a1.86,1.86,0,1,1,0-3.71h74.28a1.86,1.86,0,1,1,0,3.71h-7.43a1.86,1.86,0,0,0,0,3.72h1.86v5.57A5.58,5.58,0,0,1,1424,834h-52A5.58,5.58,0,0,1,1366.43,828.43ZM1439,843.29H1357a2.79,2.79,0,0,1,0-5.58H1439a2.79,2.79,0,0,1,0,5.58Z"/><path class="cls-2" d="M1072,1005h-7.62a9.22,9.22,0,0,0,1.87-5.57v-5.57h1.85a5.58,5.58,0,0,0,0-11.15H1066a5.66,5.66,0,0,0,.32-1.85v-3.3a5.66,5.66,0,0,0-.32-1.85h2.17a5.58,5.58,0,0,0,0-11.15H1066a5.66,5.66,0,0,0,.32-1.85c0-6.24-3.79-12-10.67-16.32-6.6-4.12-15.35-6.39-24.62-6.39s-18,2.27-24.62,6.39c-6.88,4.29-10.67,10.08-10.67,16.32a5.66,5.66,0,0,0,.32,1.85h-2.17a5.58,5.58,0,0,0,0,11.15H996a5.66,5.66,0,0,0-.32,1.85v3.3a5.66,5.66,0,0,0,.32,1.85h-2.17a5.58,5.58,0,0,0,0,11.15h1.85v5.57a9.22,9.22,0,0,0,1.87,5.57H990a6.5,6.5,0,0,0,0,13H1072a6.5,6.5,0,0,0,0-13Zm-80-34.86a1.86,1.86,0,0,1,1.86-1.86H1005a1.86,1.86,0,1,0,0-3.72h-3.71a1.85,1.85,0,0,1-1.86-1.85c0-4.91,3.16-9.58,8.91-13.17,6-3.76,14.07-5.83,22.66-5.83s16.63,2.07,22.65,5.83c5.76,3.59,8.92,8.26,8.92,13.17a1.85,1.85,0,0,1-1.86,1.85h-39a1.86,1.86,0,0,0,0,3.72h46.43a1.86,1.86,0,1,1,0,3.71h-7.43a10.74,10.74,0,0,0-5.86,1.69,7.4,7.4,0,0,1-8.08,0,11,11,0,0,0-11.73,0,7.4,7.4,0,0,1-8.08,0,11,11,0,0,0-11.73,0,7.4,7.4,0,0,1-8.08,0,10.74,10.74,0,0,0-5.86-1.69h-7.43A1.85,1.85,0,0,1,992,970.14Zm7.43,10.72v-3.3a1.85,1.85,0,0,1,1.86-1.85,7.14,7.14,0,0,1,4,1.2,11.06,11.06,0,0,0,11.72,0,7.42,7.42,0,0,1,8.09,0,11.06,11.06,0,0,0,11.72,0,7.42,7.42,0,0,1,8.09,0,11.06,11.06,0,0,0,11.72,0,7.14,7.14,0,0,1,4-1.2,1.85,1.85,0,0,1,1.86,1.85v3.3a1.85,1.85,0,0,1-1.86,1.85h-59.42A1.85,1.85,0,0,1,999.43,980.86Zm0,18.57v-5.57H1044a1.86,1.86,0,0,0,0-3.72H993.86a1.86,1.86,0,1,1,0-3.71h74.28a1.86,1.86,0,1,1,0,3.71h-7.43a1.86,1.86,0,0,0,0,3.72h1.86v5.57A5.58,5.58,0,0,1,1057,1005h-52A5.58,5.58,0,0,1,999.43,999.43Zm72.61,14.86H990a2.79,2.79,0,0,1,0-5.58H1072a2.79,2.79,0,0,1,0,5.58Z"/><path class="cls-2" d="M875,121h-7.62a9.22,9.22,0,0,0,1.87-5.57v-5.57h1.85a5.58,5.58,0,0,0,0-11.15H869a5.66,5.66,0,0,0,.32-1.85v-3.3a5.66,5.66,0,0,0-.32-1.85h2.17a5.58,5.58,0,0,0,0-11.15H869a5.66,5.66,0,0,0,.32-1.85c0-6.24-3.79-12-10.67-16.32C852,58.27,843.27,56,834,56s-18,2.27-24.62,6.39c-6.88,4.29-10.67,10.08-10.67,16.32a5.66,5.66,0,0,0,.32,1.85h-2.17a5.58,5.58,0,0,0,0,11.15H799a5.66,5.66,0,0,0-.32,1.85v3.3a5.66,5.66,0,0,0,.32,1.85h-2.17a5.58,5.58,0,0,0,0,11.15h1.85v5.57a9.22,9.22,0,0,0,1.87,5.57H793a6.5,6.5,0,0,0,0,13H875a6.5,6.5,0,0,0,0-13ZM795,86.14a1.86,1.86,0,0,1,1.86-1.86H808a1.86,1.86,0,1,0,0-3.72h-3.71a1.85,1.85,0,0,1-1.86-1.85c0-4.91,3.16-9.58,8.91-13.17,6-3.76,14.07-5.83,22.66-5.83s16.63,2.07,22.65,5.83c5.76,3.59,8.92,8.26,8.92,13.17a1.85,1.85,0,0,1-1.86,1.85h-39a1.86,1.86,0,0,0,0,3.72h46.43a1.86,1.86,0,1,1,0,3.71h-7.43a10.74,10.74,0,0,0-5.86,1.69,7.4,7.4,0,0,1-8.08,0,11,11,0,0,0-11.73,0,7.4,7.4,0,0,1-8.08,0,11,11,0,0,0-11.73,0,7.4,7.4,0,0,1-8.08,0A10.74,10.74,0,0,0,804.29,88h-7.43A1.85,1.85,0,0,1,795,86.14Zm7.43,10.72v-3.3a1.85,1.85,0,0,1,1.86-1.85,7.14,7.14,0,0,1,4,1.2,11.06,11.06,0,0,0,11.72,0,7.42,7.42,0,0,1,8.09,0,11.06,11.06,0,0,0,11.72,0,7.42,7.42,0,0,1,8.09,0,11.06,11.06,0,0,0,11.72,0,7.14,7.14,0,0,1,4-1.2,1.85,1.85,0,0,1,1.86,1.85v3.3a1.85,1.85,0,0,1-1.86,1.85H804.29A1.85,1.85,0,0,1,802.43,96.86Zm0,18.57v-5.57H847a1.86,1.86,0,1,0,0-3.72H796.86a1.86,1.86,0,1,1,0-3.71h74.28a1.86,1.86,0,1,1,0,3.71h-7.43a1.86,1.86,0,0,0,0,3.72h1.86v5.57A5.58,5.58,0,0,1,860,121H808A5.58,5.58,0,0,1,802.43,115.43ZM875,130.29H793a2.79,2.79,0,0,1,0-5.58H875a2.79,2.79,0,1,1,0,5.58Z"/><path class="cls-2" d="M533,512h-7.62a9.22,9.22,0,0,0,1.87-5.57v-5.57h1.85a5.58,5.58,0,0,0,0-11.15H527a5.66,5.66,0,0,0,.32-1.85v-3.3a5.66,5.66,0,0,0-.32-1.85h2.17a5.58,5.58,0,0,0,0-11.15H527a5.66,5.66,0,0,0,.32-1.85c0-6.24-3.79-12-10.67-16.32C510,449.27,501.27,447,492,447s-18,2.27-24.62,6.39c-6.88,4.29-10.67,10.08-10.67,16.32a5.66,5.66,0,0,0,.32,1.85h-2.17a5.58,5.58,0,0,0,0,11.15H457a5.66,5.66,0,0,0-.32,1.85v3.3a5.66,5.66,0,0,0,.32,1.85h-2.17a5.58,5.58,0,0,0,0,11.15h1.85v5.57a9.22,9.22,0,0,0,1.87,5.57H451a6.5,6.5,0,0,0,0,13H533a6.5,6.5,0,0,0,0-13Zm-80-34.86a1.86,1.86,0,0,1,1.86-1.86H466a1.86,1.86,0,1,0,0-3.72h-3.71a1.85,1.85,0,0,1-1.86-1.85c0-4.91,3.16-9.58,8.91-13.17,6-3.76,14.07-5.83,22.66-5.83s16.63,2.07,22.65,5.83c5.76,3.59,8.92,8.26,8.92,13.17a1.85,1.85,0,0,1-1.86,1.85h-39a1.86,1.86,0,0,0,0,3.72h46.43a1.86,1.86,0,1,1,0,3.71h-7.43a10.74,10.74,0,0,0-5.86,1.69,7.4,7.4,0,0,1-8.08,0,11,11,0,0,0-11.73,0,7.4,7.4,0,0,1-8.08,0,11,11,0,0,0-11.73,0,7.4,7.4,0,0,1-8.08,0,10.74,10.74,0,0,0-5.86-1.69h-7.43A1.85,1.85,0,0,1,453,477.14Zm7.43,10.72v-3.3a1.85,1.85,0,0,1,1.86-1.85,7.14,7.14,0,0,1,4,1.2,11.06,11.06,0,0,0,11.72,0,7.42,7.42,0,0,1,8.09,0,11.06,11.06,0,0,0,11.72,0,7.42,7.42,0,0,1,8.09,0,11.06,11.06,0,0,0,11.72,0,7.14,7.14,0,0,1,4-1.2,1.85,1.85,0,0,1,1.86,1.85v3.3a1.85,1.85,0,0,1-1.86,1.85H462.29A1.85,1.85,0,0,1,460.43,487.86Zm0,18.57v-5.57H505a1.86,1.86,0,0,0,0-3.72H454.86a1.86,1.86,0,1,1,0-3.71h74.28a1.86,1.86,0,1,1,0,3.71h-7.43a1.86,1.86,0,0,0,0,3.72h1.86v5.57A5.58,5.58,0,0,1,518,512H466A5.58,5.58,0,0,1,460.43,506.43ZM533,521.29H451a2.79,2.79,0,0,1,0-5.58H533a2.79,2.79,0,1,1,0,5.58Z"/><path class="cls-2" d="M148,113h-7.62a9.22,9.22,0,0,0,1.87-5.57v-5.57h1.85a5.58,5.58,0,0,0,0-11.15H142a5.66,5.66,0,0,0,.32-1.85v-3.3a5.66,5.66,0,0,0-.32-1.85h2.17a5.58,5.58,0,0,0,0-11.15H142a5.66,5.66,0,0,0,.32-1.85c0-6.24-3.79-12-10.67-16.32C125,50.27,116.27,48,107,48s-18,2.27-24.62,6.39C75.5,58.68,71.71,64.47,71.71,70.71A5.66,5.66,0,0,0,72,72.56H69.86a5.58,5.58,0,0,0,0,11.15H72a5.66,5.66,0,0,0-.32,1.85v3.3A5.66,5.66,0,0,0,72,90.71H69.86a5.58,5.58,0,0,0,0,11.15h1.85v5.57A9.22,9.22,0,0,0,73.58,113H66a6.5,6.5,0,1,0,0,13H148a6.5,6.5,0,0,0,0-13ZM68,78.14a1.86,1.86,0,0,1,1.86-1.86H81a1.86,1.86,0,1,0,0-3.72H77.29a1.85,1.85,0,0,1-1.86-1.85c0-4.91,3.16-9.58,8.91-13.17,6-3.76,14.07-5.83,22.66-5.83s16.63,2.07,22.65,5.83c5.76,3.59,8.92,8.26,8.92,13.17a1.85,1.85,0,0,1-1.86,1.85h-39a1.86,1.86,0,0,0,0,3.72h46.43a1.86,1.86,0,1,1,0,3.71h-7.43a10.74,10.74,0,0,0-5.86,1.69,7.4,7.4,0,0,1-8.08,0,11,11,0,0,0-11.73,0,7.4,7.4,0,0,1-8.08,0,11,11,0,0,0-11.73,0,7.4,7.4,0,0,1-8.08,0A10.74,10.74,0,0,0,77.29,80H69.86A1.85,1.85,0,0,1,68,78.14Zm7.43,10.72v-3.3a1.85,1.85,0,0,1,1.86-1.85,7.14,7.14,0,0,1,4,1.2,11.06,11.06,0,0,0,11.72,0,7.42,7.42,0,0,1,8.09,0,11.06,11.06,0,0,0,11.72,0,7.42,7.42,0,0,1,8.09,0,11.06,11.06,0,0,0,11.72,0,7.14,7.14,0,0,1,4-1.2,1.85,1.85,0,0,1,1.86,1.85v3.3a1.85,1.85,0,0,1-1.86,1.85H77.29A1.85,1.85,0,0,1,75.43,88.86Zm0,18.57v-5.57H120a1.86,1.86,0,0,0,0-3.72H69.86a1.86,1.86,0,1,1,0-3.71h74.28a1.86,1.86,0,1,1,0,3.71h-7.43a1.86,1.86,0,0,0,0,3.72h1.86v5.57A5.58,5.58,0,0,1,133,113H81A5.58,5.58,0,0,1,75.43,107.43ZM148,122.29H66a2.79,2.79,0,1,1,0-5.58H148a2.79,2.79,0,1,1,0,5.58Z"/><g class="cls-3"><path class="cls-4" d="M1633.61,939.23h-.11l-1.93-1.93a33.91,33.91,0,0,0-33.86-33.3h-5.42a33.91,33.91,0,0,0-33.86,33.3l-2,2a4.06,4.06,0,0,0,.6,8.08h1.47a9.27,9.27,0,0,0,1.22,3.48,7.51,7.51,0,0,0-2.69,5.33,7.41,7.41,0,0,0,2.52,5.56l-.25-.14a6.74,6.74,0,0,0,1,8.08,4.07,4.07,0,0,0-1.91,3.44v5.42a9.49,9.49,0,0,0,9.48,9.48h54.2a9.49,9.49,0,0,0,9.48-9.48V973.1a4.07,4.07,0,0,0-1.91-3.44,6.74,6.74,0,0,0,1-8.08l-.24.14a7.44,7.44,0,0,0,2.51-5.56,6.74,6.74,0,0,0-2.66-5.38,9.47,9.47,0,0,0,1.3-4.78h2a3.39,3.39,0,1,0,0-6.77Zm-73.84,16.93a4.94,4.94,0,0,1,1.86-3.39h11.69v2.71H1576v-2.71h31.16v16.94a2,2,0,0,1-4.06,0v-9.48a4.74,4.74,0,1,0-9.48,0v17.61a2,2,0,0,1-4.07,0V964.29a4.74,4.74,0,0,0-9.48,0v6.77a2,2,0,1,1-4.07,0V958.19h-2.71v2.49a4.66,4.66,0,0,1-2.59-1.91l-1.13-1.7-1.13,1.7a4.74,4.74,0,0,1-8.7-2.61Zm9.81-7.45,2.71-1.36h4.58l1.35-2.7h2.39l1.36,2.7h5.88l1.35-4.06h3.61l1.35,2.71h3.55v2.71h6.4l1.35-4.06h.9l1.35,2.7h5.74l1.36-2.7h2.66l2.71,2.7h5.46l1.21-2.4,2,.66c0,.13,0,.26,0,.39a6.69,6.69,0,0,1-1.39,4.06h-65a6.7,6.7,0,0,1-1.36-3.7l2.68-1.07v3.42Zm30.5,12.9c.11.1.23.18.34.27V969h-4.07v-5.55A7.36,7.36,0,0,0,1600.08,961.61Zm-3.73-.93v-.45a2,2,0,0,1,2-2,2,2,0,0,1,.83.19l-.27.39A4.65,4.65,0,0,1,1596.35,960.68Zm-9.48,3.61V969h-4.06v-4.74a2,2,0,0,1,4.06,0Zm-13.55-.8V969h-8.13a4.05,4.05,0,0,1-3.56-6,7.31,7.31,0,0,0,2.89.58,7.46,7.46,0,0,0,5.08-2A7.38,7.38,0,0,0,1573.32,963.49Zm55.55,15a6.78,6.78,0,0,1-6.77,6.77h-54.2a6.78,6.78,0,0,1-6.77-6.77V973.1a1.36,1.36,0,0,1,1.35-1.36h10.91a4.72,4.72,0,0,0,9.35,0h4.13v6.1a4.74,4.74,0,0,0,9.48,0v-6.1h4.54a4.72,4.72,0,0,0,8.54,0h18.09a1.36,1.36,0,0,1,1.35,1.36Zm-4.06-9.49H1609.9V961.9c.12-.09.23-.19.34-.29a21,21,0,0,1,15.24,2,7.31,7.31,0,0,0,2.89-.58,4.05,4.05,0,0,1-3.56,6Zm.67-8.13a4.72,4.72,0,0,1-4-2.13l-1.13-1.7-1.13,1.7a4.73,4.73,0,0,1-7.9,0l-1.13-1.7-.34.51v-4.81h18.54a4.08,4.08,0,0,1,1.79,3.39A4.75,4.75,0,0,1,1625.48,960.9Zm8.13-17.61h-3.16l-5-1.66-1.51,3h-2.67l-2.71-2.71h-5.46l-1.35,2.71h-2.39l-1.36-2.71h-4.52l-1.36,4.06h-1.73v-2.71h-4.58l-1.36-2.71h-7.23l-1.36,4.07h-2.25l-1.35-2.71h-5.74l-1.36,2.71h-3.54l-2.71,1.35h-2.39v-4.71l-8.39,3.36h-1.1a1.36,1.36,0,0,1,0-2.71h.57l2.71-2.71h61.76v-2.71h-60.94a31.2,31.2,0,0,1,31.13-29.81h5.42a31.2,31.2,0,0,1,31.13,29.81h-4v2.71h4.85l2.71,2.71h1.24a.68.68,0,1,1,0,1.35Z"/></g><g class="cls-3"><path class="cls-4" d="M563.61,893.23h-.11l-1.93-1.93A33.91,33.91,0,0,0,527.71,858h-5.42a33.91,33.91,0,0,0-33.86,33.3l-2,2a4.06,4.06,0,0,0,.6,8.08h1.47a9.27,9.27,0,0,0,1.22,3.48,7.51,7.51,0,0,0-2.69,5.33,7.41,7.41,0,0,0,2.52,5.56l-.25-.14a6.74,6.74,0,0,0,1,8.08,4.07,4.07,0,0,0-1.91,3.44v5.42A9.49,9.49,0,0,0,497.9,942h54.2a9.49,9.49,0,0,0,9.48-9.48V927.1a4.07,4.07,0,0,0-1.91-3.44,6.74,6.74,0,0,0,1-8.08l-.24.14a7.44,7.44,0,0,0,2.51-5.56,6.74,6.74,0,0,0-2.66-5.38,9.47,9.47,0,0,0,1.3-4.78h2a3.39,3.39,0,1,0,0-6.77Zm-73.84,16.93a4.94,4.94,0,0,1,1.86-3.39h11.69v2.71H506v-2.71h31.16v16.94a2,2,0,1,1-4.06,0v-9.48a4.74,4.74,0,1,0-9.48,0v17.61a2,2,0,0,1-4.07,0V918.29a4.74,4.74,0,0,0-9.48,0v6.77a2,2,0,1,1-4.07,0V912.19h-2.71v2.49a4.66,4.66,0,0,1-2.59-1.91l-1.13-1.7-1.13,1.7a4.74,4.74,0,0,1-8.7-2.61Zm9.81-7.45,2.71-1.36h4.58l1.35-2.7h2.39l1.36,2.7h5.88l1.35-4.06h3.61l1.35,2.71h3.55v2.71h6.4l1.35-4.06h.9l1.35,2.7h5.74l1.36-2.7h2.66l2.71,2.7h5.46l1.21-2.4,2,.66c0,.13,0,.26,0,.39a6.69,6.69,0,0,1-1.39,4.06h-65a6.7,6.7,0,0,1-1.36-3.7l2.68-1.07v3.42Zm30.5,12.9c.11.1.23.18.34.27V923h-4.07v-5.55A7.36,7.36,0,0,0,530.08,915.61Zm-3.73-.93v-.45a2,2,0,0,1,2-2,2,2,0,0,1,.83.19l-.27.39A4.65,4.65,0,0,1,526.35,914.68Zm-9.48,3.61V923h-4.06v-4.74a2,2,0,0,1,4.06,0Zm-13.55-.8V923h-8.13a4.05,4.05,0,0,1-3.56-6,7.31,7.31,0,0,0,2.89.58,7.46,7.46,0,0,0,5.08-2A7.38,7.38,0,0,0,503.32,917.49Zm55.55,15a6.78,6.78,0,0,1-6.77,6.77H497.9a6.78,6.78,0,0,1-6.77-6.77V927.1a1.36,1.36,0,0,1,1.35-1.36h10.91a4.72,4.72,0,0,0,9.35,0h4.13v6.1a4.74,4.74,0,0,0,9.48,0v-6.1h4.54a4.72,4.72,0,0,0,8.54,0h18.09a1.36,1.36,0,0,1,1.35,1.36ZM554.81,923H539.9V915.9c.12-.09.23-.19.34-.29a7.45,7.45,0,0,0,10.16,0,7.46,7.46,0,0,0,5.08,2,7.31,7.31,0,0,0,2.89-.58,4.05,4.05,0,0,1-3.56,6Zm.67-8.13a4.72,4.72,0,0,1-4-2.13l-1.13-1.7-1.13,1.7a4.73,4.73,0,0,1-7.9,0l-1.13-1.7-.34.51v-4.81h18.54a4.08,4.08,0,0,1,1.79,3.39A4.75,4.75,0,0,1,555.48,914.9Zm8.13-17.61h-3.16l-5-1.66-1.51,3H551.3l-2.71-2.71h-5.46l-1.35,2.71h-2.39L538,895.94h-4.52L532.15,900h-1.73v-2.71h-4.58l-1.36-2.71h-7.23l-1.36,4.07h-2.25l-1.35-2.71h-5.74l-1.36,2.71h-3.54L498.94,900h-2.39v-4.71l-8.39,3.36h-1.1a1.36,1.36,0,0,1,0-2.71h.57l2.71-2.71H552.1v-2.71H491.16a31.2,31.2,0,0,1,31.13-29.81h5.42a31.2,31.2,0,0,1,31.13,29.81h-4v2.71h4.85l2.71,2.71h1.24a.68.68,0,1,1,0,1.35Z"/></g><g class="cls-3"><path class="cls-4" d="M1220.61,541.23h-.11l-1.93-1.93a33.91,33.91,0,0,0-33.86-33.3h-5.42a33.91,33.91,0,0,0-33.86,33.3l-2,2a4.06,4.06,0,0,0,.6,8.08h1.47a9.27,9.27,0,0,0,1.22,3.48,7.51,7.51,0,0,0-2.69,5.33,7.41,7.41,0,0,0,2.52,5.56l-.25-.14a6.74,6.74,0,0,0,1,8.08,4.07,4.07,0,0,0-1.91,3.44v5.42a9.49,9.49,0,0,0,9.48,9.48h54.2a9.49,9.49,0,0,0,9.48-9.48V575.1a4.07,4.07,0,0,0-1.91-3.44,6.74,6.74,0,0,0,1-8.08l-.24.14a7.44,7.44,0,0,0,2.51-5.56,6.74,6.74,0,0,0-2.66-5.38,9.47,9.47,0,0,0,1.3-4.78h2a3.39,3.39,0,1,0,0-6.77Zm-73.84,16.93a4.94,4.94,0,0,1,1.86-3.39h11.69v2.71H1163v-2.71h31.16v16.94a2,2,0,0,1-4.06,0v-9.48a4.74,4.74,0,1,0-9.48,0v17.61a2,2,0,0,1-4.07,0V566.29a4.74,4.74,0,0,0-9.48,0v6.77a2,2,0,1,1-4.07,0V560.19h-2.71v2.49a4.66,4.66,0,0,1-2.59-1.91l-1.13-1.7-1.13,1.7a4.74,4.74,0,0,1-8.7-2.61Zm9.81-7.45,2.71-1.36h4.58l1.35-2.7h2.39l1.36,2.7h5.88l1.35-4.06h3.61l1.35,2.71h3.55v2.71h6.4l1.35-4.06h.9l1.35,2.7h5.74l1.36-2.7h2.66l2.71,2.7h5.46l1.21-2.4,2,.66c0,.13,0,.26,0,.39a6.69,6.69,0,0,1-1.39,4.06h-65a6.7,6.7,0,0,1-1.36-3.7l2.68-1.07v3.42Zm30.5,12.9c.11.1.23.18.34.27V571h-4.07v-5.55A7.36,7.36,0,0,0,1187.08,563.61Zm-3.73-.93v-.45a2,2,0,0,1,2-2,2,2,0,0,1,.83.19l-.27.39A4.65,4.65,0,0,1,1183.35,562.68Zm-9.48,3.61V571h-4.06v-4.74a2,2,0,0,1,4.06,0Zm-13.55-.8V571h-8.13a4.05,4.05,0,0,1-3.56-6,7.31,7.31,0,0,0,2.89.58,7.46,7.46,0,0,0,5.08-2A7.38,7.38,0,0,0,1160.32,565.49Zm55.55,15a6.78,6.78,0,0,1-6.77,6.77h-54.2a6.78,6.78,0,0,1-6.77-6.77V575.1a1.36,1.36,0,0,1,1.35-1.36h10.91a4.72,4.72,0,0,0,9.35,0h4.13v6.1a4.74,4.74,0,0,0,9.48,0v-6.1h4.54a4.72,4.72,0,0,0,8.54,0h18.09a1.36,1.36,0,0,1,1.35,1.36Zm-4.06-9.49H1196.9V563.9c.12-.09.23-.19.34-.29a21,21,0,0,1,15.24,2,7.31,7.31,0,0,0,2.89-.58,4.05,4.05,0,0,1-3.56,6Zm.67-8.13a4.72,4.72,0,0,1-4-2.13l-1.13-1.7-1.13,1.7a4.73,4.73,0,0,1-7.9,0l-1.13-1.7-.34.51v-4.81h18.54a4.08,4.08,0,0,1,1.79,3.39A4.75,4.75,0,0,1,1212.48,562.9Zm8.13-17.61h-3.16l-5-1.66-1.51,3h-2.67l-2.71-2.71h-5.46l-1.35,2.71h-2.39l-1.36-2.71h-4.52l-1.36,4.06h-1.73v-2.71h-4.58l-1.36-2.71h-7.23l-1.36,4.07h-2.25l-1.35-2.71h-5.74l-1.36,2.71h-3.54l-2.71,1.35h-2.39v-4.71l-8.39,3.36h-1.1a1.36,1.36,0,0,1,0-2.71h.57l2.71-2.71h61.76v-2.71h-60.94a31.2,31.2,0,0,1,31.13-29.81h5.42a31.2,31.2,0,0,1,31.13,29.81h-4v2.71h4.85l2.71,2.71h1.24a.68.68,0,1,1,0,1.35Z"/></g><g class="cls-3"><path class="cls-4" d="M1834.61,477.23h-.11l-1.93-1.93a33.91,33.91,0,0,0-33.86-33.3h-5.42a33.91,33.91,0,0,0-33.86,33.3l-2,2a4.06,4.06,0,0,0,.6,8.08h1.47a9.27,9.27,0,0,0,1.22,3.48,7.51,7.51,0,0,0-2.69,5.33,7.41,7.41,0,0,0,2.52,5.56l-.25-.14a6.74,6.74,0,0,0,1,8.08,4.07,4.07,0,0,0-1.91,3.44v5.42a9.49,9.49,0,0,0,9.48,9.48h54.2a9.49,9.49,0,0,0,9.48-9.48V511.1a4.07,4.07,0,0,0-1.91-3.44,6.74,6.74,0,0,0,1-8.08l-.24.14a7.44,7.44,0,0,0,2.51-5.56,6.74,6.74,0,0,0-2.66-5.38,9.47,9.47,0,0,0,1.3-4.78h2a3.39,3.39,0,1,0,0-6.77Zm-73.84,16.93a4.94,4.94,0,0,1,1.86-3.39h11.69v2.71H1777v-2.71h31.16v16.94a2,2,0,0,1-4.06,0v-9.48a4.74,4.74,0,1,0-9.48,0v17.61a2,2,0,0,1-4.07,0V502.29a4.74,4.74,0,0,0-9.48,0v6.77a2,2,0,1,1-4.07,0V496.19h-2.71v2.49a4.66,4.66,0,0,1-2.59-1.91l-1.13-1.7-1.13,1.7a4.74,4.74,0,0,1-8.7-2.61Zm9.81-7.45,2.71-1.36h4.58l1.35-2.7h2.39l1.36,2.7h5.88l1.35-4.06h3.61l1.35,2.71h3.55v2.71h6.4l1.35-4.06h.9l1.35,2.7h5.74l1.36-2.7h2.66l2.71,2.7h5.46l1.21-2.4,2,.66c0,.13,0,.26,0,.39a6.69,6.69,0,0,1-1.39,4.06h-65a6.7,6.7,0,0,1-1.36-3.7l2.68-1.07v3.42Zm30.5,12.9c.11.1.23.18.34.27V507h-4.07v-5.55A7.36,7.36,0,0,0,1801.08,499.61Zm-3.73-.93v-.45a2,2,0,0,1,2-2,2,2,0,0,1,.83.19l-.27.39A4.65,4.65,0,0,1,1797.35,498.68Zm-9.48,3.61V507h-4.06v-4.74a2,2,0,0,1,4.06,0Zm-13.55-.8V507h-8.13a4.05,4.05,0,0,1-3.56-6,7.31,7.31,0,0,0,2.89.58,7.46,7.46,0,0,0,5.08-2A7.38,7.38,0,0,0,1774.32,501.49Zm55.55,15a6.78,6.78,0,0,1-6.77,6.77h-54.2a6.78,6.78,0,0,1-6.77-6.77V511.1a1.36,1.36,0,0,1,1.35-1.36h10.91a4.72,4.72,0,0,0,9.35,0h4.13v6.1a4.74,4.74,0,0,0,9.48,0v-6.1h4.54a4.72,4.72,0,0,0,8.54,0h18.09a1.36,1.36,0,0,1,1.35,1.36Zm-4.06-9.49H1810.9V499.9c.12-.09.23-.19.34-.29a21,21,0,0,1,15.24,2,7.31,7.31,0,0,0,2.89-.58,4.05,4.05,0,0,1-3.56,6Zm.67-8.13a4.72,4.72,0,0,1-4-2.13l-1.13-1.7-1.13,1.7a4.73,4.73,0,0,1-7.9,0l-1.13-1.7-.34.51v-4.81h18.54a4.08,4.08,0,0,1,1.79,3.39A4.75,4.75,0,0,1,1826.48,498.9Zm8.13-17.61h-3.16l-5-1.66-1.51,3h-2.67l-2.71-2.71h-5.46l-1.35,2.71h-2.39l-1.36-2.71h-4.52l-1.36,4.06h-1.73v-2.71h-4.58l-1.36-2.71h-7.23l-1.36,4.07h-2.25l-1.35-2.71h-5.74l-1.36,2.71h-3.54l-2.71,1.35h-2.39v-4.71l-8.39,3.36h-1.1a1.36,1.36,0,0,1,0-2.71h.57l2.71-2.71h61.76v-2.71h-60.94a31.2,31.2,0,0,1,31.13-29.81h5.42a31.2,31.2,0,0,1,31.13,29.81h-4v2.71h4.85l2.71,2.71h1.24a.68.68,0,1,1,0,1.35Z"/></g><g class="cls-3"><path class="cls-4" d="M579.61,320.23h-.11l-1.93-1.93A33.91,33.91,0,0,0,543.71,285h-5.42a33.91,33.91,0,0,0-33.86,33.3l-2,2a4.06,4.06,0,0,0,.6,8.08h1.47a9.27,9.27,0,0,0,1.22,3.48,7.51,7.51,0,0,0-2.69,5.33,7.41,7.41,0,0,0,2.52,5.56l-.25-.14a6.74,6.74,0,0,0,1,8.08,4.07,4.07,0,0,0-1.91,3.44v5.42A9.49,9.49,0,0,0,513.9,369h54.2a9.49,9.49,0,0,0,9.48-9.48V354.1a4.07,4.07,0,0,0-1.91-3.44,6.74,6.74,0,0,0,1-8.08l-.24.14a7.44,7.44,0,0,0,2.51-5.56,6.74,6.74,0,0,0-2.66-5.38,9.47,9.47,0,0,0,1.3-4.78h2a3.39,3.39,0,1,0,0-6.77Zm-73.84,16.93a4.94,4.94,0,0,1,1.86-3.39h11.69v2.71H522v-2.71h31.16v16.94a2,2,0,0,1-4.06,0v-9.48a4.74,4.74,0,1,0-9.48,0v17.61a2,2,0,0,1-4.07,0V345.29a4.74,4.74,0,0,0-9.48,0v6.77a2,2,0,1,1-4.07,0V339.19h-2.71v2.49a4.66,4.66,0,0,1-2.59-1.91l-1.13-1.7-1.13,1.7a4.74,4.74,0,0,1-8.7-2.61Zm9.81-7.45,2.71-1.36h4.58l1.35-2.7h2.39l1.36,2.7h5.88l1.35-4.06h3.61l1.35,2.71h3.55v2.71h6.4l1.35-4.06h.9l1.35,2.7h5.74l1.36-2.7h2.66l2.71,2.7h5.46l1.21-2.4,2,.66c0,.13,0,.26,0,.39a6.69,6.69,0,0,1-1.39,4.06h-65a6.7,6.7,0,0,1-1.36-3.7l2.68-1.07v3.42Zm30.5,12.9c.11.1.23.18.34.27V350h-4.07v-5.55A7.36,7.36,0,0,0,546.08,342.61Zm-3.73-.93v-.45a2,2,0,0,1,2-2,2,2,0,0,1,.83.19l-.27.39A4.65,4.65,0,0,1,542.35,341.68Zm-9.48,3.61V350h-4.06v-4.74a2,2,0,1,1,4.06,0Zm-13.55-.8V350h-8.13a4.05,4.05,0,0,1-3.56-6,7.31,7.31,0,0,0,2.89.58,7.46,7.46,0,0,0,5.08-2A7.38,7.38,0,0,0,519.32,344.49Zm55.55,15a6.78,6.78,0,0,1-6.77,6.77H513.9a6.78,6.78,0,0,1-6.77-6.77V354.1a1.36,1.36,0,0,1,1.35-1.36h10.91a4.72,4.72,0,0,0,9.35,0h4.13v6.1a4.74,4.74,0,1,0,9.48,0v-6.1h4.54a4.72,4.72,0,0,0,8.54,0h18.09a1.36,1.36,0,0,1,1.35,1.36ZM570.81,350H555.9V342.9c.12-.09.23-.19.34-.29a7.45,7.45,0,0,0,10.16,0,7.46,7.46,0,0,0,5.08,2,7.31,7.31,0,0,0,2.89-.58,4.05,4.05,0,0,1-3.56,6Zm.67-8.13a4.72,4.72,0,0,1-4-2.13l-1.13-1.7-1.13,1.7a4.73,4.73,0,0,1-7.9,0l-1.13-1.7-.34.51v-4.81h18.54a4.08,4.08,0,0,1,1.79,3.39A4.75,4.75,0,0,1,571.48,341.9Zm8.13-17.61h-3.16l-5-1.66-1.51,3H567.3l-2.71-2.71h-5.46l-1.35,2.71h-2.39L554,322.94h-4.52L548.15,327h-1.73v-2.71h-4.58l-1.36-2.71h-7.23l-1.36,4.07h-2.25l-1.35-2.71h-5.74l-1.36,2.71h-3.54L514.94,327h-2.39v-4.71l-8.39,3.36h-1.1a1.36,1.36,0,0,1,0-2.71h.57l2.71-2.71H568.1v-2.71H507.16a31.2,31.2,0,0,1,31.13-29.81h5.42a31.2,31.2,0,0,1,31.13,29.81h-4v2.71h4.85l2.71,2.71h1.24a.68.68,0,1,1,0,1.35Z"/></g><g class="cls-3"><path class="cls-4" d="M157.61,733.23h-.11l-1.93-1.93A33.91,33.91,0,0,0,121.71,698h-5.42a33.91,33.91,0,0,0-33.86,33.3l-2,2a4.06,4.06,0,0,0,.6,8.08h1.47a9.27,9.27,0,0,0,1.22,3.48,7.51,7.51,0,0,0-2.69,5.33,7.41,7.41,0,0,0,2.52,5.56l-.25-.14a6.74,6.74,0,0,0,1,8.08,4.07,4.07,0,0,0-1.91,3.44v5.42A9.49,9.49,0,0,0,91.9,782h54.2a9.49,9.49,0,0,0,9.48-9.48V767.1a4.07,4.07,0,0,0-1.91-3.44,6.74,6.74,0,0,0,1-8.08l-.24.14a7.44,7.44,0,0,0,2.51-5.56,6.74,6.74,0,0,0-2.66-5.38,9.47,9.47,0,0,0,1.3-4.78h2a3.39,3.39,0,1,0,0-6.77ZM83.77,750.16a4.94,4.94,0,0,1,1.86-3.39H97.32v2.71H100v-2.71h31.16v16.94a2,2,0,0,1-4.06,0v-9.48a4.74,4.74,0,1,0-9.48,0v17.61a2,2,0,0,1-4.07,0V758.29a4.74,4.74,0,1,0-9.48,0v6.77a2,2,0,1,1-4.07,0V752.19H97.32v2.49a4.66,4.66,0,0,1-2.59-1.91l-1.13-1.7-1.13,1.7a4.74,4.74,0,0,1-8.7-2.61Zm9.81-7.45,2.71-1.36h4.58l1.35-2.7h2.39l1.36,2.7h5.88l1.35-4.06h3.61l1.35,2.71h3.55v2.71h6.4l1.35-4.06h.9l1.35,2.7h5.74l1.36-2.7h2.66l2.71,2.7h5.46l1.21-2.4,2,.66c0,.13,0,.26,0,.39a6.69,6.69,0,0,1-1.39,4.06h-65a6.7,6.7,0,0,1-1.36-3.7l2.68-1.07v3.42Zm30.5,12.9c.11.1.23.18.34.27V763h-4.07v-5.55A7.36,7.36,0,0,0,124.08,755.61Zm-3.73-.93v-.45a2,2,0,0,1,2-2,2,2,0,0,1,.83.19l-.27.39A4.65,4.65,0,0,1,120.35,754.68Zm-9.48,3.61V763h-4.06v-4.74a2,2,0,0,1,4.06,0Zm-13.55-.8V763H89.19a4.05,4.05,0,0,1-3.56-6,7.31,7.31,0,0,0,2.89.58,7.46,7.46,0,0,0,5.08-2A7.38,7.38,0,0,0,97.32,757.49Zm55.55,15a6.78,6.78,0,0,1-6.77,6.77H91.9a6.78,6.78,0,0,1-6.77-6.77V767.1a1.36,1.36,0,0,1,1.35-1.36H97.39a4.72,4.72,0,0,0,9.35,0h4.13v6.1a4.74,4.74,0,0,0,9.48,0v-6.1h4.54a4.72,4.72,0,0,0,8.54,0h18.09a1.36,1.36,0,0,1,1.35,1.36ZM148.81,763H133.9V755.9c.12-.09.23-.19.34-.29a7.45,7.45,0,0,0,10.16,0,7.46,7.46,0,0,0,5.08,2,7.31,7.31,0,0,0,2.89-.58,4.05,4.05,0,0,1-3.56,6Zm.67-8.13a4.72,4.72,0,0,1-3.95-2.13l-1.13-1.7-1.13,1.7a4.73,4.73,0,0,1-7.9,0l-1.13-1.7-.34.51v-4.81h18.54a4.08,4.08,0,0,1,1.79,3.39A4.75,4.75,0,0,1,149.48,754.9Zm8.13-17.61h-3.16l-5-1.66-1.51,3H145.3l-2.71-2.71h-5.46l-1.35,2.71h-2.39L132,735.94h-4.52L126.15,740h-1.73v-2.71h-4.58l-1.36-2.71h-7.23l-1.36,4.07h-2.25l-1.35-2.71h-5.74l-1.36,2.71H95.65L92.94,740H90.55v-4.71l-8.39,3.36h-1.1a1.36,1.36,0,0,1,0-2.71h.57l2.71-2.71H146.1v-2.71H85.16a31.2,31.2,0,0,1,31.13-29.81h5.42a31.2,31.2,0,0,1,31.13,29.81h-4v2.71h4.85l2.71,2.71h1.24a.68.68,0,1,1,0,1.35Z"/></g><g class="cls-3"><path class="cls-4" d="M562.61,691.23h-.11l-1.93-1.93A33.91,33.91,0,0,0,526.71,656h-5.42a33.91,33.91,0,0,0-33.86,33.3l-2,2a4.06,4.06,0,0,0,.6,8.08h1.47a9.27,9.27,0,0,0,1.22,3.48,7.51,7.51,0,0,0-2.69,5.33,7.41,7.41,0,0,0,2.52,5.56l-.25-.14a6.74,6.74,0,0,0,1,8.08,4.07,4.07,0,0,0-1.91,3.44v5.42A9.49,9.49,0,0,0,496.9,740h54.2a9.49,9.49,0,0,0,9.48-9.48V725.1a4.07,4.07,0,0,0-1.91-3.44,6.74,6.74,0,0,0,1-8.08l-.24.14a7.44,7.44,0,0,0,2.51-5.56,6.74,6.74,0,0,0-2.66-5.38,9.47,9.47,0,0,0,1.3-4.78h2a3.39,3.39,0,1,0,0-6.77Zm-73.84,16.93a4.94,4.94,0,0,1,1.86-3.39h11.69v2.71H505v-2.71h31.16v16.94a2,2,0,1,1-4.06,0v-9.48a4.74,4.74,0,1,0-9.48,0v17.61a2,2,0,0,1-4.07,0V716.29a4.74,4.74,0,0,0-9.48,0v6.77a2,2,0,1,1-4.07,0V710.19h-2.71v2.49a4.66,4.66,0,0,1-2.59-1.91l-1.13-1.7-1.13,1.7a4.74,4.74,0,0,1-8.7-2.61Zm9.81-7.45,2.71-1.36h4.58l1.35-2.7h2.39l1.36,2.7h5.88l1.35-4.06h3.61l1.35,2.71h3.55v2.71h6.4l1.35-4.06h.9l1.35,2.7h5.74l1.36-2.7h2.66l2.71,2.7h5.46l1.21-2.4,2,.66c0,.13,0,.26,0,.39a6.69,6.69,0,0,1-1.39,4.06h-65a6.7,6.7,0,0,1-1.36-3.7l2.68-1.07v3.42Zm30.5,12.9c.11.1.23.18.34.27V721h-4.07v-5.55A7.36,7.36,0,0,0,529.08,713.61Zm-3.73-.93v-.45a2,2,0,0,1,2-2,2,2,0,0,1,.83.19l-.27.39A4.65,4.65,0,0,1,525.35,712.68Zm-9.48,3.61V721h-4.06v-4.74a2,2,0,0,1,4.06,0Zm-13.55-.8V721h-8.13a4.05,4.05,0,0,1-3.56-6,7.31,7.31,0,0,0,2.89.58,7.46,7.46,0,0,0,5.08-2A7.38,7.38,0,0,0,502.32,715.49Zm55.55,15a6.78,6.78,0,0,1-6.77,6.77H496.9a6.78,6.78,0,0,1-6.77-6.77V725.1a1.36,1.36,0,0,1,1.35-1.36h10.91a4.72,4.72,0,0,0,9.35,0h4.13v6.1a4.74,4.74,0,0,0,9.48,0v-6.1h4.54a4.72,4.72,0,0,0,8.54,0h18.09a1.36,1.36,0,0,1,1.35,1.36ZM553.81,721H538.9V713.9c.12-.09.23-.19.34-.29a7.45,7.45,0,0,0,10.16,0,7.46,7.46,0,0,0,5.08,2,7.31,7.31,0,0,0,2.89-.58,4.05,4.05,0,0,1-3.56,6Zm.67-8.13a4.72,4.72,0,0,1-4-2.13l-1.13-1.7-1.13,1.7a4.73,4.73,0,0,1-7.9,0l-1.13-1.7-.34.51v-4.81h18.54a4.08,4.08,0,0,1,1.79,3.39A4.75,4.75,0,0,1,554.48,712.9Zm8.13-17.61h-3.16l-5-1.66-1.51,3H550.3l-2.71-2.71h-5.46l-1.35,2.71h-2.39L537,693.94h-4.52L531.15,698h-1.73v-2.71h-4.58l-1.36-2.71h-7.23l-1.36,4.07h-2.25l-1.35-2.71h-5.74l-1.36,2.71h-3.54L497.94,698h-2.39v-4.71l-8.39,3.36h-1.1a1.36,1.36,0,0,1,0-2.71h.57l2.71-2.71H551.1v-2.71H490.16a31.2,31.2,0,0,1,31.13-29.81h5.42a31.2,31.2,0,0,1,31.13,29.81h-4v2.71h4.85l2.71,2.71h1.24a.68.68,0,1,1,0,1.35Z"/></g><g class="cls-3"><path class="cls-4" d="M1027.61,351.23h-.11l-1.93-1.93A33.91,33.91,0,0,0,991.71,316h-5.42a33.91,33.91,0,0,0-33.86,33.3l-2,2a4.06,4.06,0,0,0,.6,8.08h1.47a9.27,9.27,0,0,0,1.22,3.48,7.51,7.51,0,0,0-2.69,5.33,7.41,7.41,0,0,0,2.52,5.56l-.25-.14a6.74,6.74,0,0,0,1,8.08,4.07,4.07,0,0,0-1.91,3.44v5.42A9.49,9.49,0,0,0,961.9,400h54.2a9.49,9.49,0,0,0,9.48-9.48V385.1a4.07,4.07,0,0,0-1.91-3.44,6.74,6.74,0,0,0,1-8.08l-.24.14a7.44,7.44,0,0,0,2.51-5.56,6.74,6.74,0,0,0-2.66-5.38,9.47,9.47,0,0,0,1.3-4.78h2a3.39,3.39,0,1,0,0-6.77Zm-73.84,16.93a4.94,4.94,0,0,1,1.86-3.39h11.69v2.71H970v-2.71h31.16v16.94a2,2,0,0,1-4.06,0v-9.48a4.74,4.74,0,1,0-9.48,0v17.61a2,2,0,0,1-4.07,0V376.29a4.74,4.74,0,0,0-9.48,0v6.77a2,2,0,1,1-4.07,0V370.19h-2.71v2.49a4.66,4.66,0,0,1-2.59-1.91l-1.13-1.7-1.13,1.7a4.74,4.74,0,0,1-8.7-2.61Zm9.81-7.45,2.71-1.36h4.58l1.35-2.7h2.39l1.36,2.7h5.88l1.35-4.06h3.61l1.35,2.71h3.55v2.71h6.4l1.35-4.06h.9l1.35,2.7h5.74l1.36-2.7h2.66l2.71,2.7h5.46l1.21-2.4,2,.66c0,.13,0,.26,0,.39a6.69,6.69,0,0,1-1.39,4.06h-65a6.7,6.7,0,0,1-1.36-3.7l2.68-1.07v3.42Zm30.5,12.9c.11.1.23.18.34.27V381h-4.07v-5.55A7.36,7.36,0,0,0,994.08,373.61Zm-3.73-.93v-.45a2,2,0,0,1,2-2,2,2,0,0,1,.83.19l-.27.39A4.65,4.65,0,0,1,990.35,372.68Zm-9.48,3.61V381h-4.06v-4.74a2,2,0,1,1,4.06,0Zm-13.55-.8V381h-8.13a4.05,4.05,0,0,1-3.56-6,7.31,7.31,0,0,0,2.89.58,7.46,7.46,0,0,0,5.08-2A7.38,7.38,0,0,0,967.32,375.49Zm55.55,15a6.78,6.78,0,0,1-6.77,6.77H961.9a6.78,6.78,0,0,1-6.77-6.77V385.1a1.36,1.36,0,0,1,1.35-1.36h10.91a4.72,4.72,0,0,0,9.35,0h4.13v6.1a4.74,4.74,0,1,0,9.48,0v-6.1h4.54a4.72,4.72,0,0,0,8.54,0h18.09a1.36,1.36,0,0,1,1.35,1.36Zm-4.06-9.49H1003.9V373.9c.12-.09.23-.19.34-.29a7.45,7.45,0,0,0,10.16,0,7.46,7.46,0,0,0,5.08,2,7.31,7.31,0,0,0,2.89-.58,4.05,4.05,0,0,1-3.56,6Zm.67-8.13a4.72,4.72,0,0,1-4-2.13l-1.13-1.7-1.13,1.7a4.73,4.73,0,0,1-7.9,0l-1.13-1.7-.34.51v-4.81h18.54a4.08,4.08,0,0,1,1.79,3.39A4.75,4.75,0,0,1,1019.48,372.9Zm8.13-17.61h-3.16l-5-1.66-1.51,3h-2.67l-2.71-2.71h-5.46l-1.35,2.71h-2.39l-1.36-2.71h-4.52L996.15,358h-1.73v-2.71h-4.58l-1.36-2.71h-7.23l-1.36,4.07h-2.25l-1.35-2.71h-5.74l-1.36,2.71h-3.54L962.94,358h-2.39v-4.71l-8.39,3.36h-1.1a1.36,1.36,0,0,1,0-2.71h.57l2.71-2.71h61.76v-2.71H955.16a31.2,31.2,0,0,1,31.13-29.81h5.42a31.2,31.2,0,0,1,31.13,29.81h-4v2.71h4.85l2.71,2.71h1.24a.68.68,0,1,1,0,1.35Z"/></g><g class="cls-3"><path class="cls-4" d="M1111.61,717.23h-.11l-1.93-1.93a33.91,33.91,0,0,0-33.86-33.3h-5.42a33.91,33.91,0,0,0-33.86,33.3l-2,2a4.06,4.06,0,0,0,.6,8.08h1.47a9.27,9.27,0,0,0,1.22,3.48,7.51,7.51,0,0,0-2.69,5.33,7.41,7.41,0,0,0,2.52,5.56l-.25-.14a6.74,6.74,0,0,0,1,8.08,4.07,4.07,0,0,0-1.91,3.44v5.42a9.49,9.49,0,0,0,9.48,9.48h54.2a9.49,9.49,0,0,0,9.48-9.48V751.1a4.07,4.07,0,0,0-1.91-3.44,6.74,6.74,0,0,0,1-8.08l-.24.14a7.44,7.44,0,0,0,2.51-5.56,6.74,6.74,0,0,0-2.66-5.38,9.47,9.47,0,0,0,1.3-4.78h2a3.39,3.39,0,1,0,0-6.77Zm-73.84,16.93a4.94,4.94,0,0,1,1.86-3.39h11.69v2.71H1054v-2.71h31.16v16.94a2,2,0,0,1-4.06,0v-9.48a4.74,4.74,0,1,0-9.48,0v17.61a2,2,0,0,1-4.07,0V742.29a4.74,4.74,0,0,0-9.48,0v6.77a2,2,0,1,1-4.07,0V736.19h-2.71v2.49a4.66,4.66,0,0,1-2.59-1.91l-1.13-1.7-1.13,1.7a4.74,4.74,0,0,1-8.7-2.61Zm9.81-7.45,2.71-1.36h4.58l1.35-2.7h2.39l1.36,2.7h5.88l1.35-4.06h3.61l1.35,2.71h3.55v2.71h6.4l1.35-4.06h.9l1.35,2.7h5.74l1.36-2.7h2.66l2.71,2.7h5.46l1.21-2.4,2,.66c0,.13,0,.26,0,.39a6.69,6.69,0,0,1-1.39,4.06h-65a6.7,6.7,0,0,1-1.36-3.7l2.68-1.07v3.42Zm30.5,12.9c.11.1.23.18.34.27V747h-4.07v-5.55A7.36,7.36,0,0,0,1078.08,739.61Zm-3.73-.93v-.45a2,2,0,0,1,2-2,2,2,0,0,1,.83.19l-.27.39A4.65,4.65,0,0,1,1074.35,738.68Zm-9.48,3.61V747h-4.06v-4.74a2,2,0,0,1,4.06,0Zm-13.55-.8V747h-8.13a4.05,4.05,0,0,1-3.56-6,7.31,7.31,0,0,0,2.89.58,7.46,7.46,0,0,0,5.08-2A7.38,7.38,0,0,0,1051.32,741.49Zm55.55,15a6.78,6.78,0,0,1-6.77,6.77h-54.2a6.78,6.78,0,0,1-6.77-6.77V751.1a1.36,1.36,0,0,1,1.35-1.36h10.91a4.72,4.72,0,0,0,9.35,0h4.13v6.1a4.74,4.74,0,0,0,9.48,0v-6.1h4.54a4.72,4.72,0,0,0,8.54,0h18.09a1.36,1.36,0,0,1,1.35,1.36Zm-4.06-9.49H1087.9V739.9c.12-.09.23-.19.34-.29a21,21,0,0,1,15.24,2,7.31,7.31,0,0,0,2.89-.58,4.05,4.05,0,0,1-3.56,6Zm.67-8.13a4.72,4.72,0,0,1-4-2.13l-1.13-1.7-1.13,1.7a4.73,4.73,0,0,1-7.9,0l-1.13-1.7-.34.51v-4.81h18.54a4.08,4.08,0,0,1,1.79,3.39A4.75,4.75,0,0,1,1103.48,738.9Zm8.13-17.61h-3.16l-5-1.66-1.51,3h-2.67l-2.71-2.71h-5.46l-1.35,2.71h-2.39l-1.36-2.71h-4.52l-1.36,4.06h-1.73v-2.71h-4.58l-1.36-2.71h-7.23l-1.36,4.07h-2.25l-1.35-2.71h-5.74l-1.36,2.71h-3.54l-2.71,1.35h-2.39v-4.71l-8.39,3.36h-1.1a1.36,1.36,0,0,1,0-2.71h.57l2.71-2.71h61.76v-2.71h-60.94a31.2,31.2,0,0,1,31.13-29.81h5.42a31.2,31.2,0,0,1,31.13,29.81h-4v2.71h4.85l2.71,2.71h1.24a.68.68,0,1,1,0,1.35Z"/></g><g class="cls-3"><path class="cls-4" d="M1182,124.52a5.22,5.22,0,0,0,5.22-5.22V88a5.22,5.22,0,1,0-10.43,0v31.3A5.22,5.22,0,0,0,1182,124.52ZM1180.3,88a1.74,1.74,0,1,1,3.48,0v31.3a1.74,1.74,0,1,1-3.48,0Z"/><path class="cls-4" d="M1216.83,61.91h-7v-5.2a8.69,8.69,0,0,0-3.19-15.41,8.49,8.49,0,0,0-3.63-1.76,8.71,8.71,0,0,0-10-3.2,8.64,8.64,0,0,0-9.28-1.5,19.19,19.19,0,0,1-12.17-.75,8.65,8.65,0,0,0-6.92,3.48,8.59,8.59,0,0,0-7.13,3.71,8.69,8.69,0,0,0-6.82,8.46,8.78,8.78,0,0,0,3.48,7v71.52a6.94,6.94,0,0,0,1.74,13.66h52.17a6.94,6.94,0,0,0,1.74-13.66V115.83h7A12.19,12.19,0,0,0,1229,103.65V74.09A12.19,12.19,0,0,0,1216.83,61.91Zm-7,10.44h7a1.75,1.75,0,0,1,1.74,1.74v29.56a1.75,1.75,0,0,1-1.74,1.74h-7Zm-51-27.76a1.73,1.73,0,0,0,1.31-.87,5.15,5.15,0,0,1,5-2.62l.18,0a1.73,1.73,0,0,0,1.74-.87,5.21,5.21,0,0,1,4.53-2.68,5.13,5.13,0,0,1,3.25,1.17,1.73,1.73,0,0,0,2.19,0,5.11,5.11,0,0,1,5.86-.45,1.72,1.72,0,0,0,1.75,0,5.16,5.16,0,0,1,6.64,1.24,1.74,1.74,0,0,0,2.19.43,5.18,5.18,0,0,1,7,2,1.73,1.73,0,0,0,1.31.87,5.28,5.28,0,0,1,2.91,1.33,1.72,1.72,0,0,0,.87.44,5.21,5.21,0,0,1-.92,10.34,5.41,5.41,0,0,1-1.42-.23,1.73,1.73,0,0,0-1.37.18,1.75,1.75,0,0,0-.8,1.13,5.22,5.22,0,0,1-2.85,3.59,1.74,1.74,0,0,0-.87,2.18,5,5,0,0,1-.82,5.1,1.72,1.72,0,0,0,0,2.18,5.16,5.16,0,0,1,1.18,3.26,5.22,5.22,0,0,1-10.44,0,5.16,5.16,0,0,1,1.18-3.26,1.73,1.73,0,0,0,0-2.18,5.24,5.24,0,0,1-1-2,1.75,1.75,0,0,0-1.69-1.31h0c-.11,0-.21,0-.19,0a5.16,5.16,0,0,1-3.91-1.8,1.79,1.79,0,0,0-2.62,0,5.12,5.12,0,0,1-3.9,1.8,5.23,5.23,0,0,1-4.53-2.68,2,2,0,0,0-1.92-.85,4.2,4.2,0,0,1-.51.05A5.23,5.23,0,0,1,1163,56a1.73,1.73,0,0,0-2.18-1.31,5.29,5.29,0,0,1-1.42.23,5.2,5.2,0,0,1-.61-10.37Zm1.33,13.81a8.74,8.74,0,0,0,8,5.25h0a8.68,8.68,0,0,0,6.92,3.48,8.58,8.58,0,0,0,5.21-1.77,8.67,8.67,0,0,0,4.21,1.71,8.1,8.1,0,0,0,.47.93,8.46,8.46,0,0,0-1.2,4.35,8.7,8.7,0,0,0,17.39,0A8.45,8.45,0,0,0,1200,68a8.45,8.45,0,0,0,1.19-4.35A8.29,8.29,0,0,0,1201,62a8.77,8.77,0,0,0,2.92-3.61,8.37,8.37,0,0,0,2.46-.14V128H1157.7V58.28A8.64,8.64,0,0,0,1160.15,58.4ZM1211.61,135a3.48,3.48,0,0,1-3.48,3.47H1156a3.48,3.48,0,1,1,0-7h52.17A3.48,3.48,0,0,1,1211.61,135Zm13.91-31.31a8.7,8.7,0,0,1-8.69,8.7h-7v-3.48h7a5.22,5.22,0,0,0,5.21-5.22V74.09a5.22,5.22,0,0,0-5.21-5.22h-7V65.39h7a8.7,8.7,0,0,1,8.69,8.7Z"/><path class="cls-4" d="M1166.39,124.52a5.22,5.22,0,0,0,5.22-5.22V88a5.22,5.22,0,1,0-10.44,0v31.3A5.22,5.22,0,0,0,1166.39,124.52ZM1164.65,88a1.74,1.74,0,0,1,3.48,0v31.3a1.74,1.74,0,0,1-3.48,0Z"/><path class="cls-4" d="M1197.7,124.52a5.22,5.22,0,0,0,5.21-5.22V88a5.22,5.22,0,1,0-10.43,0v31.3A5.22,5.22,0,0,0,1197.7,124.52ZM1196,88a1.74,1.74,0,1,1,3.47,0v31.3a1.74,1.74,0,1,1-3.47,0Z"/></g><g class="cls-3"><path class="cls-4" d="M445,177.52a5.22,5.22,0,0,0,5.22-5.22V141a5.22,5.22,0,1,0-10.43,0v31.3A5.22,5.22,0,0,0,445,177.52ZM443.3,141a1.74,1.74,0,1,1,3.48,0v31.3a1.74,1.74,0,1,1-3.48,0Z"/><path class="cls-4" d="M479.83,114.91h-7v-5.2a8.69,8.69,0,0,0-3.19-15.41,8.49,8.49,0,0,0-3.63-1.76,8.71,8.71,0,0,0-10-3.2,8.64,8.64,0,0,0-9.28-1.5,8.54,8.54,0,0,0-7.82.44,8.54,8.54,0,0,0-4.35-1.19,8.65,8.65,0,0,0-6.92,3.48,8.59,8.59,0,0,0-7.13,3.71,8.69,8.69,0,0,0-6.82,8.46,8.78,8.78,0,0,0,3.48,7v71.52A6.94,6.94,0,0,0,419,194.91h52.17a6.94,6.94,0,0,0,1.74-13.66V168.83h7A12.19,12.19,0,0,0,492,156.65V127.09A12.19,12.19,0,0,0,479.83,114.91Zm-7,10.44h7a1.75,1.75,0,0,1,1.74,1.74v29.56a1.75,1.75,0,0,1-1.74,1.74h-7ZM421.82,97.59a1.73,1.73,0,0,0,1.31-.87,5.15,5.15,0,0,1,5-2.62l.18,0a1.73,1.73,0,0,0,1.74-.87,5.21,5.21,0,0,1,4.53-2.68,5.13,5.13,0,0,1,3.25,1.17,1.73,1.73,0,0,0,2.19,0,5.11,5.11,0,0,1,5.86-.45,1.72,1.72,0,0,0,1.75,0,5.16,5.16,0,0,1,6.64,1.24,1.74,1.74,0,0,0,2.19.43,5.18,5.18,0,0,1,7,2,1.73,1.73,0,0,0,1.31.87,5.28,5.28,0,0,1,2.91,1.33,1.72,1.72,0,0,0,.87.44,5.21,5.21,0,0,1-.92,10.34,5.41,5.41,0,0,1-1.42-.23,1.73,1.73,0,0,0-1.37.18,1.75,1.75,0,0,0-.8,1.13,5.22,5.22,0,0,1-2.85,3.59,1.74,1.74,0,0,0-.87,2.18,5,5,0,0,1-.82,5.1,1.72,1.72,0,0,0,0,2.18,5.16,5.16,0,0,1,1.18,3.26,5.22,5.22,0,1,1-10.44,0,5.16,5.16,0,0,1,1.18-3.26,1.73,1.73,0,0,0,0-2.18,5.24,5.24,0,0,1-1-2,1.75,1.75,0,0,0-1.69-1.31h-.05c-.11,0-.21,0-.19,0a5.16,5.16,0,0,1-3.91-1.8,1.79,1.79,0,0,0-2.62,0,5.12,5.12,0,0,1-3.9,1.8,5.23,5.23,0,0,1-4.53-2.68,2,2,0,0,0-1.92-.85,4.2,4.2,0,0,1-.51,0A5.23,5.23,0,0,1,426,109a1.73,1.73,0,0,0-2.18-1.31,5.29,5.29,0,0,1-1.42.23,5.2,5.2,0,0,1-.61-10.37Zm1.33,13.81a8.74,8.74,0,0,0,8,5.25h0a8.68,8.68,0,0,0,6.92,3.48,8.58,8.58,0,0,0,5.21-1.77,8.67,8.67,0,0,0,4.21,1.71,8.1,8.1,0,0,0,.47.93,8.46,8.46,0,0,0-1.2,4.35,8.7,8.7,0,0,0,17.39,0A8.45,8.45,0,0,0,463,121a8.45,8.45,0,0,0,1.19-4.35A8.29,8.29,0,0,0,464,115a8.77,8.77,0,0,0,2.92-3.61,8.37,8.37,0,0,0,2.46-.14V181H420.7V111.28A8.64,8.64,0,0,0,423.15,111.4ZM474.61,188a3.48,3.48,0,0,1-3.48,3.47H419a3.48,3.48,0,1,1,0-7h52.17A3.48,3.48,0,0,1,474.61,188Zm13.91-31.31a8.7,8.7,0,0,1-8.69,8.7h-7v-3.48h7a5.22,5.22,0,0,0,5.21-5.22V127.09a5.22,5.22,0,0,0-5.21-5.22h-7v-3.48h7a8.7,8.7,0,0,1,8.69,8.7Z"/><path class="cls-4" d="M429.39,177.52a5.22,5.22,0,0,0,5.22-5.22V141a5.22,5.22,0,0,0-10.44,0v31.3A5.22,5.22,0,0,0,429.39,177.52ZM427.65,141a1.74,1.74,0,0,1,3.48,0v31.3a1.74,1.74,0,1,1-3.48,0Z"/><path class="cls-4" d="M460.7,177.52a5.22,5.22,0,0,0,5.21-5.22V141a5.22,5.22,0,1,0-10.43,0v31.3A5.22,5.22,0,0,0,460.7,177.52ZM459,141a1.74,1.74,0,1,1,3.47,0v31.3a1.74,1.74,0,1,1-3.47,0Z"/></g><g class="cls-3"><path class="cls-4" d="M115,959.52a5.22,5.22,0,0,0,5.22-5.22V923a5.22,5.22,0,1,0-10.43,0v31.3A5.22,5.22,0,0,0,115,959.52ZM113.3,923a1.74,1.74,0,1,1,3.48,0v31.3a1.74,1.74,0,1,1-3.48,0Z"/><path class="cls-4" d="M149.83,896.91h-7v-5.2a8.69,8.69,0,0,0-3.19-15.41,8.49,8.49,0,0,0-3.63-1.76,8.71,8.71,0,0,0-10-3.2,8.64,8.64,0,0,0-9.28-1.5,8.54,8.54,0,0,0-7.82.44,8.54,8.54,0,0,0-4.35-1.19,8.65,8.65,0,0,0-6.92,3.48,8.59,8.59,0,0,0-7.13,3.71,8.69,8.69,0,0,0-6.82,8.46,8.78,8.78,0,0,0,3.48,7v71.52A6.94,6.94,0,0,0,89,976.91h52.17a6.94,6.94,0,0,0,1.74-13.66V950.83h7A12.19,12.19,0,0,0,162,938.65V909.09A12.19,12.19,0,0,0,149.83,896.91Zm-7,10.44h7a1.75,1.75,0,0,1,1.74,1.74v29.56a1.75,1.75,0,0,1-1.74,1.74h-7ZM91.82,879.59a1.73,1.73,0,0,0,1.31-.87,5.15,5.15,0,0,1,5-2.62l.18,0a1.73,1.73,0,0,0,1.74-.87,5.21,5.21,0,0,1,4.53-2.68,5.13,5.13,0,0,1,3.25,1.17,1.73,1.73,0,0,0,2.19,0,5.11,5.11,0,0,1,5.86-.45,1.72,1.72,0,0,0,1.75,0,5.16,5.16,0,0,1,6.64,1.24,1.74,1.74,0,0,0,2.19.43,5.18,5.18,0,0,1,7,2,1.73,1.73,0,0,0,1.31.87,5.28,5.28,0,0,1,2.91,1.33,1.72,1.72,0,0,0,.87.44,5.21,5.21,0,0,1-.92,10.34,5.41,5.41,0,0,1-1.42-.23,1.73,1.73,0,0,0-1.37.18,1.75,1.75,0,0,0-.8,1.13,5.22,5.22,0,0,1-2.85,3.59,1.74,1.74,0,0,0-.87,2.18,5,5,0,0,1-.82,5.1,1.72,1.72,0,0,0,0,2.18,5.16,5.16,0,0,1,1.18,3.26,5.22,5.22,0,1,1-10.44,0,5.16,5.16,0,0,1,1.18-3.26,1.73,1.73,0,0,0,0-2.18,5.24,5.24,0,0,1-1-2,1.75,1.75,0,0,0-1.69-1.31h-.05c-.11,0-.21,0-.19,0a5.16,5.16,0,0,1-3.91-1.8,1.79,1.79,0,0,0-2.62,0,5.12,5.12,0,0,1-3.9,1.8,5.23,5.23,0,0,1-4.53-2.68,2,2,0,0,0-1.92-.85,4.2,4.2,0,0,1-.51,0A5.23,5.23,0,0,1,96,891a1.73,1.73,0,0,0-2.18-1.31,5.29,5.29,0,0,1-1.42.23,5.2,5.2,0,0,1-.61-10.37Zm1.33,13.81a8.74,8.74,0,0,0,8,5.25h0a8.68,8.68,0,0,0,6.92,3.48,8.58,8.58,0,0,0,5.21-1.77,8.67,8.67,0,0,0,4.21,1.71,8.1,8.1,0,0,0,.47.93,8.46,8.46,0,0,0-1.2,4.35,8.7,8.7,0,0,0,17.39,0,8.55,8.55,0,0,1,0-8.7A8.29,8.29,0,0,0,134,897a8.77,8.77,0,0,0,2.92-3.61,8.37,8.37,0,0,0,2.46-.14V963H90.7V893.28A8.64,8.64,0,0,0,93.15,893.4ZM144.61,970a3.48,3.48,0,0,1-3.48,3.47H89a3.48,3.48,0,1,1,0-6.95h52.17A3.48,3.48,0,0,1,144.61,970Zm13.91-31.31a8.7,8.7,0,0,1-8.69,8.7h-7v-3.48h7a5.22,5.22,0,0,0,5.21-5.22V909.09a5.22,5.22,0,0,0-5.21-5.22h-7v-3.48h7a8.7,8.7,0,0,1,8.69,8.7Z"/><path class="cls-4" d="M99.39,959.52a5.22,5.22,0,0,0,5.22-5.22V923a5.22,5.22,0,0,0-10.44,0v31.3A5.22,5.22,0,0,0,99.39,959.52ZM97.65,923a1.74,1.74,0,0,1,3.48,0v31.3a1.74,1.74,0,0,1-3.48,0Z"/><path class="cls-4" d="M130.7,959.52a5.22,5.22,0,0,0,5.21-5.22V923a5.22,5.22,0,1,0-10.43,0v31.3A5.22,5.22,0,0,0,130.7,959.52ZM129,923a1.74,1.74,0,1,1,3.47,0v31.3a1.74,1.74,0,1,1-3.47,0Z"/></g><g class="cls-3"><path class="cls-4" d="M1845,116.52a5.22,5.22,0,0,0,5.22-5.22V80a5.22,5.22,0,1,0-10.43,0v31.3A5.22,5.22,0,0,0,1845,116.52ZM1843.3,80a1.74,1.74,0,1,1,3.48,0v31.3a1.74,1.74,0,1,1-3.48,0Z"/><path class="cls-4" d="M1879.83,53.91h-7v-5.2a8.69,8.69,0,0,0-3.19-15.41,8.49,8.49,0,0,0-3.63-1.76,8.71,8.71,0,0,0-10-3.2,8.64,8.64,0,0,0-9.28-1.5,19.19,19.19,0,0,1-12.17-.75,8.65,8.65,0,0,0-6.92,3.48,8.59,8.59,0,0,0-7.13,3.71,8.69,8.69,0,0,0-6.82,8.46,8.78,8.78,0,0,0,3.48,7v71.52a6.94,6.94,0,0,0,1.74,13.66h52.17a6.94,6.94,0,0,0,1.74-13.66V107.83h7A12.19,12.19,0,0,0,1892,95.65V66.09A12.19,12.19,0,0,0,1879.83,53.91Zm-7,10.44h7a1.75,1.75,0,0,1,1.74,1.74V95.65a1.75,1.75,0,0,1-1.74,1.74h-7Zm-51-27.76a1.73,1.73,0,0,0,1.31-.87,5.15,5.15,0,0,1,5-2.62l.18,0a1.73,1.73,0,0,0,1.74-.87,5.21,5.21,0,0,1,4.53-2.68,5.13,5.13,0,0,1,3.25,1.17,1.73,1.73,0,0,0,2.19,0,5.11,5.11,0,0,1,5.86-.45,1.72,1.72,0,0,0,1.75,0,5.16,5.16,0,0,1,6.64,1.24,1.74,1.74,0,0,0,2.19.43,5.18,5.18,0,0,1,7,2,1.73,1.73,0,0,0,1.31.87,5.28,5.28,0,0,1,2.91,1.33,1.72,1.72,0,0,0,.87.44,5.21,5.21,0,0,1-.92,10.34,5.41,5.41,0,0,1-1.42-.23,1.73,1.73,0,0,0-1.37.18,1.75,1.75,0,0,0-.8,1.13,5.22,5.22,0,0,1-2.85,3.59,1.74,1.74,0,0,0-.87,2.18,5,5,0,0,1-.82,5.1,1.72,1.72,0,0,0,0,2.18,5.16,5.16,0,0,1,1.18,3.26,5.22,5.22,0,0,1-10.44,0,5.16,5.16,0,0,1,1.18-3.26,1.73,1.73,0,0,0,0-2.18,5.24,5.24,0,0,1-1-2,1.75,1.75,0,0,0-1.69-1.31h0c-.11,0-.21,0-.19,0a5.16,5.16,0,0,1-3.91-1.8,1.79,1.79,0,0,0-2.62,0,5.12,5.12,0,0,1-3.9,1.8,5.23,5.23,0,0,1-4.53-2.68,2,2,0,0,0-1.92-.85,4.2,4.2,0,0,1-.51.05A5.23,5.23,0,0,1,1826,48a1.73,1.73,0,0,0-2.18-1.31,5.29,5.29,0,0,1-1.42.23,5.2,5.2,0,0,1-.61-10.37Zm1.33,13.81a8.74,8.74,0,0,0,8,5.25h0a8.68,8.68,0,0,0,6.92,3.48,8.58,8.58,0,0,0,5.21-1.77,8.67,8.67,0,0,0,4.21,1.71,8.1,8.1,0,0,0,.47.93,8.46,8.46,0,0,0-1.2,4.35,8.7,8.7,0,0,0,17.39,0A8.45,8.45,0,0,0,1863,60a8.45,8.45,0,0,0,1.19-4.35A8.29,8.29,0,0,0,1864,54a8.77,8.77,0,0,0,2.92-3.61,8.37,8.37,0,0,0,2.46-.14V120H1820.7V50.28A8.64,8.64,0,0,0,1823.15,50.4ZM1874.61,127a3.48,3.48,0,0,1-3.48,3.47H1819a3.48,3.48,0,1,1,0-7h52.17A3.48,3.48,0,0,1,1874.61,127Zm13.91-31.31a8.7,8.7,0,0,1-8.69,8.7h-7v-3.48h7a5.22,5.22,0,0,0,5.21-5.22V66.09a5.22,5.22,0,0,0-5.21-5.22h-7V57.39h7a8.7,8.7,0,0,1,8.69,8.7Z"/><path class="cls-4" d="M1829.39,116.52a5.22,5.22,0,0,0,5.22-5.22V80a5.22,5.22,0,1,0-10.44,0v31.3A5.22,5.22,0,0,0,1829.39,116.52ZM1827.65,80a1.74,1.74,0,0,1,3.48,0v31.3a1.74,1.74,0,0,1-3.48,0Z"/><path class="cls-4" d="M1860.7,116.52a5.22,5.22,0,0,0,5.21-5.22V80a5.22,5.22,0,1,0-10.43,0v31.3A5.22,5.22,0,0,0,1860.7,116.52ZM1859,80a1.74,1.74,0,1,1,3.47,0v31.3a1.74,1.74,0,1,1-3.47,0Z"/></g><g class="cls-3"><path class="cls-4" d="M735,638.52a5.22,5.22,0,0,0,5.22-5.22V602a5.22,5.22,0,1,0-10.43,0v31.3A5.22,5.22,0,0,0,735,638.52ZM733.3,602a1.74,1.74,0,0,1,3.48,0v31.3a1.74,1.74,0,0,1-3.48,0Z"/><path class="cls-4" d="M769.83,575.91h-7v-5.2a8.69,8.69,0,0,0-3.19-15.41,8.49,8.49,0,0,0-3.63-1.76,8.71,8.71,0,0,0-10-3.2,8.64,8.64,0,0,0-9.28-1.5,8.54,8.54,0,0,0-7.82.44,8.54,8.54,0,0,0-4.35-1.19,570.74,570.74,0,0,0-14.05,7.19,8.69,8.69,0,0,0-6.82,8.46,8.78,8.78,0,0,0,3.48,7v71.52A6.94,6.94,0,0,0,709,655.91h52.17a6.94,6.94,0,0,0,1.74-13.66V629.83h7A12.19,12.19,0,0,0,782,617.65V588.09A12.19,12.19,0,0,0,769.83,575.91Zm-7,10.44h7a1.75,1.75,0,0,1,1.74,1.74v29.56a1.75,1.75,0,0,1-1.74,1.74h-7Zm-51-27.76a1.73,1.73,0,0,0,1.31-.87,5.15,5.15,0,0,1,5-2.62l.18,0a1.73,1.73,0,0,0,1.74-.87,5.21,5.21,0,0,1,4.53-2.68,5.13,5.13,0,0,1,3.25,1.17,1.73,1.73,0,0,0,2.19,0,5.11,5.11,0,0,1,5.86-.45,1.72,1.72,0,0,0,1.75,0,5.16,5.16,0,0,1,6.64,1.24,1.74,1.74,0,0,0,2.19.43,5.18,5.18,0,0,1,7,2,1.73,1.73,0,0,0,1.31.87,5.28,5.28,0,0,1,2.91,1.33,1.72,1.72,0,0,0,.87.44,5.21,5.21,0,0,1-.92,10.34,5.41,5.41,0,0,1-1.42-.23,1.73,1.73,0,0,0-1.37.18,1.75,1.75,0,0,0-.8,1.13,5.22,5.22,0,0,1-2.85,3.59,1.74,1.74,0,0,0-.87,2.18,5,5,0,0,1-.82,5.1,1.72,1.72,0,0,0,0,2.18,5.16,5.16,0,0,1,1.18,3.26,5.22,5.22,0,0,1-10.44,0,5.16,5.16,0,0,1,1.18-3.26,1.73,1.73,0,0,0,0-2.18,5.24,5.24,0,0,1-1-2,1.75,1.75,0,0,0-1.69-1.31h0c-.11,0-.21,0-.19,0a5.16,5.16,0,0,1-3.91-1.8,1.79,1.79,0,0,0-2.62,0,5.12,5.12,0,0,1-3.9,1.8,5.23,5.23,0,0,1-4.53-2.68,2,2,0,0,0-1.92-.85,4.2,4.2,0,0,1-.51,0A5.23,5.23,0,0,1,716,570a1.73,1.73,0,0,0-2.18-1.31,5.29,5.29,0,0,1-1.42.23,5.2,5.2,0,0,1-.61-10.37Zm1.33,13.81a8.74,8.74,0,0,0,8,5.25h0a8.68,8.68,0,0,0,6.92,3.48,8.58,8.58,0,0,0,5.21-1.77,8.67,8.67,0,0,0,4.21,1.71,8.1,8.1,0,0,0,.47.93,8.46,8.46,0,0,0-1.2,4.35,8.7,8.7,0,0,0,17.39,0A8.45,8.45,0,0,0,753,582a8.45,8.45,0,0,0,1.19-4.35A8.29,8.29,0,0,0,754,576a8.77,8.77,0,0,0,2.92-3.61,8.37,8.37,0,0,0,2.46-.14V642H710.7V572.28A8.64,8.64,0,0,0,713.15,572.4ZM764.61,649a3.48,3.48,0,0,1-3.48,3.47H709a3.48,3.48,0,1,1,0-6.95h52.17A3.48,3.48,0,0,1,764.61,649Zm13.91-31.31a8.7,8.7,0,0,1-8.69,8.7h-7v-3.48h7a5.22,5.22,0,0,0,5.21-5.22V588.09a5.22,5.22,0,0,0-5.21-5.22h-7v-3.48h7a8.7,8.7,0,0,1,8.69,8.7Z"/><path class="cls-4" d="M719.39,638.52a5.22,5.22,0,0,0,5.22-5.22V602a5.22,5.22,0,0,0-10.44,0v31.3A5.22,5.22,0,0,0,719.39,638.52ZM717.65,602a1.74,1.74,0,0,1,3.48,0v31.3a1.74,1.74,0,0,1-3.48,0Z"/><path class="cls-4" d="M750.7,638.52a5.22,5.22,0,0,0,5.21-5.22V602a5.22,5.22,0,1,0-10.43,0v31.3A5.22,5.22,0,0,0,750.7,638.52ZM749,602a1.74,1.74,0,1,1,3.47,0v31.3a1.74,1.74,0,1,1-3.47,0Z"/></g><g class="cls-3"><path class="cls-4" d="M1108,898.52a5.22,5.22,0,0,0,5.22-5.22V862a5.22,5.22,0,1,0-10.43,0v31.3A5.22,5.22,0,0,0,1108,898.52ZM1106.3,862a1.74,1.74,0,0,1,3.48,0v31.3a1.74,1.74,0,1,1-3.48,0Z"/><path class="cls-4" d="M1142.83,835.91h-7v-5.2a8.69,8.69,0,0,0-3.19-15.41,8.49,8.49,0,0,0-3.63-1.76,66.48,66.48,0,0,0-19.27-4.7,19.19,19.19,0,0,1-12.17-.75,570.74,570.74,0,0,0-14,7.19,8.69,8.69,0,0,0-6.82,8.46,8.78,8.78,0,0,0,3.48,7v71.52a6.94,6.94,0,0,0,1.74,13.66h52.17a6.94,6.94,0,0,0,1.74-13.66V889.83h7A12.19,12.19,0,0,0,1155,877.65V848.09A12.19,12.19,0,0,0,1142.83,835.91Zm-7,10.44h7a1.75,1.75,0,0,1,1.74,1.74v29.56a1.75,1.75,0,0,1-1.74,1.74h-7Zm-51-27.76a1.73,1.73,0,0,0,1.31-.87,5.15,5.15,0,0,1,5-2.62l.18,0a1.73,1.73,0,0,0,1.74-.87,5.21,5.21,0,0,1,4.53-2.68,5.13,5.13,0,0,1,3.25,1.17,1.73,1.73,0,0,0,2.19,0,5.11,5.11,0,0,1,5.86-.45,1.72,1.72,0,0,0,1.75,0,5.16,5.16,0,0,1,6.64,1.24,1.74,1.74,0,0,0,2.19.43,5.18,5.18,0,0,1,7,2,1.73,1.73,0,0,0,1.31.87,5.28,5.28,0,0,1,2.91,1.33,1.72,1.72,0,0,0,.87.44,5.21,5.21,0,0,1-.92,10.34,5.41,5.41,0,0,1-1.42-.23,1.73,1.73,0,0,0-1.37.18,1.75,1.75,0,0,0-.8,1.13,5.22,5.22,0,0,1-2.85,3.59,1.74,1.74,0,0,0-.87,2.18,5,5,0,0,1-.82,5.1,1.72,1.72,0,0,0,0,2.18,5.16,5.16,0,0,1,1.18,3.26,5.22,5.22,0,0,1-10.44,0,5.16,5.16,0,0,1,1.18-3.26,1.73,1.73,0,0,0,0-2.18,5.24,5.24,0,0,1-1-2,1.75,1.75,0,0,0-1.69-1.31h0c-.11,0-.21,0-.19,0a5.16,5.16,0,0,1-3.91-1.8,1.79,1.79,0,0,0-2.62,0,5.12,5.12,0,0,1-3.9,1.8,5.23,5.23,0,0,1-4.53-2.68,2,2,0,0,0-1.92-.85,4.2,4.2,0,0,1-.51,0A5.23,5.23,0,0,1,1089,830a1.73,1.73,0,0,0-2.18-1.31,5.29,5.29,0,0,1-1.42.23,5.2,5.2,0,0,1-.61-10.37Zm1.33,13.81a8.74,8.74,0,0,0,8,5.25h0a8.68,8.68,0,0,0,6.92,3.48,8.58,8.58,0,0,0,5.21-1.77,8.67,8.67,0,0,0,4.21,1.71,8.1,8.1,0,0,0,.47.93,8.46,8.46,0,0,0-1.2,4.35,8.7,8.7,0,0,0,17.39,0A8.45,8.45,0,0,0,1126,842a8.45,8.45,0,0,0,1.19-4.35A8.29,8.29,0,0,0,1127,836a8.77,8.77,0,0,0,2.92-3.61,8.37,8.37,0,0,0,2.46-.14V902H1083.7V832.28A8.64,8.64,0,0,0,1086.15,832.4ZM1137.61,909a3.48,3.48,0,0,1-3.48,3.47H1082a3.48,3.48,0,1,1,0-6.95h52.17A3.48,3.48,0,0,1,1137.61,909Zm13.91-31.31a8.7,8.7,0,0,1-8.69,8.7h-7v-3.48h7a5.22,5.22,0,0,0,5.21-5.22V848.09a5.22,5.22,0,0,0-5.21-5.22h-7v-3.48h7a8.7,8.7,0,0,1,8.69,8.7Z"/><path class="cls-4" d="M1092.39,898.52a5.22,5.22,0,0,0,5.22-5.22V862a5.22,5.22,0,1,0-10.44,0v31.3A5.22,5.22,0,0,0,1092.39,898.52ZM1090.65,862a1.74,1.74,0,0,1,3.48,0v31.3a1.74,1.74,0,0,1-3.48,0Z"/><path class="cls-4" d="M1123.7,898.52a5.22,5.22,0,0,0,5.21-5.22V862a5.22,5.22,0,1,0-10.43,0v31.3A5.22,5.22,0,0,0,1123.7,898.52ZM1122,862a1.74,1.74,0,1,1,3.47,0v31.3a1.74,1.74,0,1,1-3.47,0Z"/></g><g class="cls-3"><path class="cls-4" d="M103,569.52a5.22,5.22,0,0,0,5.22-5.22V533a5.22,5.22,0,1,0-10.43,0v31.3A5.22,5.22,0,0,0,103,569.52ZM101.3,533a1.74,1.74,0,1,1,3.48,0v31.3a1.74,1.74,0,1,1-3.48,0Z"/><path class="cls-4" d="M137.83,506.91h-7v-5.2a8.69,8.69,0,0,0-3.19-15.41,8.49,8.49,0,0,0-3.63-1.76,8.71,8.71,0,0,0-10-3.2,8.64,8.64,0,0,0-9.28-1.5,8.54,8.54,0,0,0-7.82.44,8.54,8.54,0,0,0-4.35-1.19,8.65,8.65,0,0,0-6.92,3.48,8.59,8.59,0,0,0-7.13,3.71,8.69,8.69,0,0,0-6.82,8.46,8.78,8.78,0,0,0,3.48,7v71.52A6.94,6.94,0,0,0,77,586.91h52.17a6.94,6.94,0,0,0,1.74-13.66V560.83h7A12.19,12.19,0,0,0,150,548.65V519.09A12.19,12.19,0,0,0,137.83,506.91Zm-7,10.44h7a1.75,1.75,0,0,1,1.74,1.74v29.56a1.75,1.75,0,0,1-1.74,1.74h-7ZM79.82,489.59a1.73,1.73,0,0,0,1.31-.87,5.15,5.15,0,0,1,5-2.62l.18,0a1.73,1.73,0,0,0,1.74-.87,5.21,5.21,0,0,1,4.53-2.68,5.13,5.13,0,0,1,3.25,1.17,1.73,1.73,0,0,0,2.19,0,5.11,5.11,0,0,1,5.86-.45,1.72,1.72,0,0,0,1.75,0,5.16,5.16,0,0,1,6.64,1.24,1.74,1.74,0,0,0,2.19.43,5.18,5.18,0,0,1,7,2,1.73,1.73,0,0,0,1.31.87,5.28,5.28,0,0,1,2.91,1.33,1.72,1.72,0,0,0,.87.44,5.21,5.21,0,0,1-.92,10.34,5.41,5.41,0,0,1-1.42-.23,1.73,1.73,0,0,0-1.37.18,1.75,1.75,0,0,0-.8,1.13,5.22,5.22,0,0,1-2.85,3.59,1.74,1.74,0,0,0-.87,2.18,5,5,0,0,1-.82,5.1,1.72,1.72,0,0,0,0,2.18,5.16,5.16,0,0,1,1.18,3.26,5.22,5.22,0,1,1-10.44,0,5.16,5.16,0,0,1,1.18-3.26,1.73,1.73,0,0,0,0-2.18,5.24,5.24,0,0,1-1-2,1.75,1.75,0,0,0-1.69-1.31h-.05c-.11,0-.21,0-.19,0a5.16,5.16,0,0,1-3.91-1.8,1.79,1.79,0,0,0-2.62,0,5.12,5.12,0,0,1-3.9,1.8A5.23,5.23,0,0,1,91.56,506a2,2,0,0,0-1.92-.85,4.2,4.2,0,0,1-.51.05A5.23,5.23,0,0,1,84,501a1.73,1.73,0,0,0-2.18-1.31,5.29,5.29,0,0,1-1.42.23,5.2,5.2,0,0,1-.61-10.37Zm1.33,13.81a8.74,8.74,0,0,0,8,5.25h0a8.68,8.68,0,0,0,6.92,3.48,8.58,8.58,0,0,0,5.21-1.77,8.67,8.67,0,0,0,4.21,1.71,8.1,8.1,0,0,0,.47.93,8.46,8.46,0,0,0-1.2,4.35,8.7,8.7,0,0,0,17.39,0A8.45,8.45,0,0,0,121,513a8.45,8.45,0,0,0,1.19-4.35A8.29,8.29,0,0,0,122,507a8.77,8.77,0,0,0,2.92-3.61,8.37,8.37,0,0,0,2.46-.14V573H78.7V503.28A8.64,8.64,0,0,0,81.15,503.4ZM132.61,580a3.48,3.48,0,0,1-3.48,3.47H77a3.48,3.48,0,1,1,0-6.95h52.17A3.48,3.48,0,0,1,132.61,580Zm13.91-31.31a8.7,8.7,0,0,1-8.69,8.7h-7v-3.48h7a5.22,5.22,0,0,0,5.21-5.22V519.09a5.22,5.22,0,0,0-5.21-5.22h-7v-3.48h7a8.7,8.7,0,0,1,8.69,8.7Z"/><path class="cls-4" d="M87.39,569.52a5.22,5.22,0,0,0,5.22-5.22V533a5.22,5.22,0,0,0-10.44,0v31.3A5.22,5.22,0,0,0,87.39,569.52ZM85.65,533a1.74,1.74,0,0,1,3.48,0v31.3a1.74,1.74,0,0,1-3.48,0Z"/><path class="cls-4" d="M118.7,569.52a5.22,5.22,0,0,0,5.21-5.22V533a5.22,5.22,0,1,0-10.43,0v31.3A5.22,5.22,0,0,0,118.7,569.52ZM117,533a1.74,1.74,0,1,1,3.47,0v31.3a1.74,1.74,0,1,1-3.47,0Z"/></g><g class="cls-3"><path class="cls-4" d="M1391,638.52a5.22,5.22,0,0,0,5.22-5.22V602a5.22,5.22,0,1,0-10.43,0v31.3A5.22,5.22,0,0,0,1391,638.52ZM1389.3,602a1.74,1.74,0,0,1,3.48,0v31.3a1.74,1.74,0,1,1-3.48,0Z"/><path class="cls-4" d="M1425.83,575.91h-7v-5.2a8.69,8.69,0,0,0-3.19-15.41,8.49,8.49,0,0,0-3.63-1.76,66.48,66.48,0,0,0-19.27-4.7,19.19,19.19,0,0,1-12.17-.75,570.74,570.74,0,0,0-14,7.19,8.69,8.69,0,0,0-6.82,8.46,8.78,8.78,0,0,0,3.48,7v71.52a6.94,6.94,0,0,0,1.74,13.66h52.17a6.94,6.94,0,0,0,1.74-13.66V629.83h7A12.19,12.19,0,0,0,1438,617.65V588.09A12.19,12.19,0,0,0,1425.83,575.91Zm-7,10.44h7a1.75,1.75,0,0,1,1.74,1.74v29.56a1.75,1.75,0,0,1-1.74,1.74h-7Zm-51-27.76a1.73,1.73,0,0,0,1.31-.87,5.15,5.15,0,0,1,5-2.62l.18,0a1.73,1.73,0,0,0,1.74-.87,5.21,5.21,0,0,1,4.53-2.68,5.13,5.13,0,0,1,3.25,1.17,1.73,1.73,0,0,0,2.19,0,5.11,5.11,0,0,1,5.86-.45,1.72,1.72,0,0,0,1.75,0,5.16,5.16,0,0,1,6.64,1.24,1.74,1.74,0,0,0,2.19.43,5.18,5.18,0,0,1,7,2,1.73,1.73,0,0,0,1.31.87,5.28,5.28,0,0,1,2.91,1.33,1.72,1.72,0,0,0,.87.44,5.21,5.21,0,0,1-.92,10.34,5.41,5.41,0,0,1-1.42-.23,1.73,1.73,0,0,0-1.37.18,1.75,1.75,0,0,0-.8,1.13,5.22,5.22,0,0,1-2.85,3.59,1.74,1.74,0,0,0-.87,2.18,5,5,0,0,1-.82,5.1,1.72,1.72,0,0,0,0,2.18,5.16,5.16,0,0,1,1.18,3.26,5.22,5.22,0,0,1-10.44,0,5.16,5.16,0,0,1,1.18-3.26,1.73,1.73,0,0,0,0-2.18,5.24,5.24,0,0,1-1-2,1.75,1.75,0,0,0-1.69-1.31h0c-.11,0-.21,0-.19,0a5.16,5.16,0,0,1-3.91-1.8,1.79,1.79,0,0,0-2.62,0,5.12,5.12,0,0,1-3.9,1.8,5.23,5.23,0,0,1-4.53-2.68,2,2,0,0,0-1.92-.85,4.2,4.2,0,0,1-.51,0A5.23,5.23,0,0,1,1372,570a1.73,1.73,0,0,0-2.18-1.31,5.29,5.29,0,0,1-1.42.23,5.2,5.2,0,0,1-.61-10.37Zm1.33,13.81a8.74,8.74,0,0,0,8,5.25h0a8.68,8.68,0,0,0,6.92,3.48,8.58,8.58,0,0,0,5.21-1.77,8.67,8.67,0,0,0,4.21,1.71,8.1,8.1,0,0,0,.47.93,8.46,8.46,0,0,0-1.2,4.35,8.7,8.7,0,0,0,17.39,0A8.45,8.45,0,0,0,1409,582a8.45,8.45,0,0,0,1.19-4.35A8.29,8.29,0,0,0,1410,576a8.77,8.77,0,0,0,2.92-3.61,8.37,8.37,0,0,0,2.46-.14V642H1366.7V572.28A8.64,8.64,0,0,0,1369.15,572.4ZM1420.61,649a3.48,3.48,0,0,1-3.48,3.47H1365a3.48,3.48,0,1,1,0-6.95h52.17A3.48,3.48,0,0,1,1420.61,649Zm13.91-31.31a8.7,8.7,0,0,1-8.69,8.7h-7v-3.48h7a5.22,5.22,0,0,0,5.21-5.22V588.09a5.22,5.22,0,0,0-5.21-5.22h-7v-3.48h7a8.7,8.7,0,0,1,8.69,8.7Z"/><path class="cls-4" d="M1375.39,638.52a5.22,5.22,0,0,0,5.22-5.22V602a5.22,5.22,0,1,0-10.44,0v31.3A5.22,5.22,0,0,0,1375.39,638.52ZM1373.65,602a1.74,1.74,0,0,1,3.48,0v31.3a1.74,1.74,0,0,1-3.48,0Z"/><path class="cls-4" d="M1406.7,638.52a5.22,5.22,0,0,0,5.21-5.22V602a5.22,5.22,0,1,0-10.43,0v31.3A5.22,5.22,0,0,0,1406.7,638.52ZM1405,602a1.74,1.74,0,1,1,3.47,0v31.3a1.74,1.74,0,1,1-3.47,0Z"/></g><g class="cls-3"><path class="cls-4" d="M1778.87,248.9a1.35,1.35,0,0,0-1-.43H1738a1.35,1.35,0,0,0-1,.43,1.39,1.39,0,0,0-.38,1l1,21.37a1.38,1.38,0,0,0,2.75-.13l-.93-19.93h37l-2.62,56.4h-30.9a1.38,1.38,0,0,0,0,2.76h32.21a1.38,1.38,0,0,0,1.38-1.32l2.75-59.15A1.39,1.39,0,0,0,1778.87,248.9Z"/><path class="cls-4" d="M1753.11,299.37h-49.52a1.38,1.38,0,0,0-1.38,1.38,9.65,9.65,0,0,0,9.63,9.63h33a9.65,9.65,0,0,0,9.63-9.63A1.38,1.38,0,0,0,1753.11,299.37Zm-8.25,8.25h-33a6.89,6.89,0,0,1-6.74-5.5h46.5A6.89,6.89,0,0,1,1744.86,307.62Z"/><path class="cls-4" d="M1753.11,291.12h-49.52a5.5,5.5,0,1,0,0,11h49.52a5.5,5.5,0,0,0,0-11Zm0,8.25h-49.52a2.75,2.75,0,1,1,0-5.5h49.52a2.75,2.75,0,0,1,0,5.5Z"/><path class="cls-4" d="M1757.24,265a13.74,13.74,0,0,0-13.32,10.31,1.37,1.37,0,0,0,2.66.69,11,11,0,1,1,7,13.13,1.38,1.38,0,0,0-.91,2.6,13.76,13.76,0,1,0,4.59-26.73Z"/><path class="cls-4" d="M1731.1,269.1h-5.5a23.42,23.42,0,0,0-23.39,23.39,1.38,1.38,0,0,0,1.38,1.38h49.52a1.38,1.38,0,0,0,1.38-1.38A23.42,23.42,0,0,0,1731.1,269.1Zm-26.09,22a20.66,20.66,0,0,1,20.59-19.26h5.5a20.66,20.66,0,0,1,20.59,19.26Z"/><rect class="cls-4" x="1714.59" y="277.36" width="2.75" height="2.75"/><rect class="cls-4" x="1713.22" y="282.86" width="2.75" height="2.75"/><rect class="cls-4" x="1729.72" y="275.98" width="2.75" height="2.75"/><rect class="cls-4" x="1737.98" y="282.86" width="2.75" height="2.75"/><rect class="cls-4" x="1725.6" y="284.24" width="2.75" height="2.75"/><path class="cls-4" d="M1780.62,243h-46.77a1.37,1.37,0,0,0-1.37,1.37v5.51a1.37,1.37,0,0,0,1.37,1.37h46.77a1.37,1.37,0,0,0,1.38-1.37v-5.51A1.37,1.37,0,0,0,1780.62,243Zm-1.37,5.5h-44v-2.75h44Z"/><path class="cls-4" d="M1744.83,244.05l-4.13-19.26a1.38,1.38,0,0,0-2.69.58l4.13,19.26a1.36,1.36,0,0,0,1.34,1.09l.29,0A1.38,1.38,0,0,0,1744.83,244.05Z"/></g><g class="cls-3"><path class="cls-4" d="M1608.87,663.9a1.35,1.35,0,0,0-1-.43H1568a1.35,1.35,0,0,0-1,.43,1.39,1.39,0,0,0-.38,1l1,21.37a1.38,1.38,0,0,0,2.75-.13l-.93-19.93h37l-2.62,56.4h-30.9a1.38,1.38,0,0,0,0,2.76h32.21a1.38,1.38,0,0,0,1.38-1.32l2.75-59.15A1.39,1.39,0,0,0,1608.87,663.9Z"/><path class="cls-4" d="M1583.11,714.37h-49.52a1.38,1.38,0,0,0-1.38,1.38,9.65,9.65,0,0,0,9.63,9.63h33a9.65,9.65,0,0,0,9.63-9.63A1.38,1.38,0,0,0,1583.11,714.37Zm-8.25,8.25h-33a6.89,6.89,0,0,1-6.74-5.5h46.5A6.89,6.89,0,0,1,1574.86,722.62Z"/><path class="cls-4" d="M1583.11,706.12h-49.52a5.5,5.5,0,1,0,0,11h49.52a5.5,5.5,0,0,0,0-11Zm0,8.25h-49.52a2.75,2.75,0,1,1,0-5.5h49.52a2.75,2.75,0,0,1,0,5.5Z"/><path class="cls-4" d="M1587.24,680a13.74,13.74,0,0,0-13.32,10.31,1.37,1.37,0,0,0,2.66.69,11,11,0,1,1,7,13.13,1.38,1.38,0,0,0-.91,2.6,13.76,13.76,0,1,0,4.59-26.73Z"/><path class="cls-4" d="M1561.1,684.1h-5.5a23.42,23.42,0,0,0-23.39,23.39,1.38,1.38,0,0,0,1.38,1.38h49.52a1.38,1.38,0,0,0,1.38-1.38A23.42,23.42,0,0,0,1561.1,684.1Zm-26.09,22a20.66,20.66,0,0,1,20.59-19.26h5.5a20.66,20.66,0,0,1,20.59,19.26Z"/><rect class="cls-4" x="1544.59" y="692.36" width="2.75" height="2.75"/><rect class="cls-4" x="1543.22" y="697.86" width="2.75" height="2.75"/><rect class="cls-4" x="1559.72" y="690.98" width="2.75" height="2.75"/><rect class="cls-4" x="1567.98" y="697.86" width="2.75" height="2.75"/><rect class="cls-4" x="1555.6" y="699.24" width="2.75" height="2.75"/><path class="cls-4" d="M1610.62,658h-46.77a1.37,1.37,0,0,0-1.37,1.37v5.51a1.37,1.37,0,0,0,1.37,1.37h46.77a1.37,1.37,0,0,0,1.38-1.37v-5.51A1.37,1.37,0,0,0,1610.62,658Zm-1.37,5.5h-44v-2.75h44Z"/><path class="cls-4" d="M1574.83,659.05l-4.13-19.26a1.38,1.38,0,0,0-2.69.58l4.13,19.26a1.36,1.36,0,0,0,1.34,1.09l.29,0A1.38,1.38,0,0,0,1574.83,659.05Z"/></g><g class="cls-3"><path class="cls-4" d="M1566.87,85.9a1.35,1.35,0,0,0-1-.43H1526a1.35,1.35,0,0,0-1,.43,1.39,1.39,0,0,0-.38,1l1,21.37a1.38,1.38,0,0,0,2.75-.13l-.93-19.93h37l-2.62,56.4h-30.9a1.38,1.38,0,0,0,0,2.76h32.21a1.38,1.38,0,0,0,1.38-1.32l2.75-59.15A1.39,1.39,0,0,0,1566.87,85.9Z"/><path class="cls-4" d="M1541.11,136.37h-49.52a1.38,1.38,0,0,0-1.38,1.38,9.65,9.65,0,0,0,9.63,9.63h33a9.65,9.65,0,0,0,9.63-9.63A1.38,1.38,0,0,0,1541.11,136.37Zm-8.25,8.25h-33a6.89,6.89,0,0,1-6.74-5.5h46.5A6.89,6.89,0,0,1,1532.86,144.62Z"/><path class="cls-4" d="M1541.11,128.12h-49.52a5.5,5.5,0,1,0,0,11h49.52a5.5,5.5,0,0,0,0-11Zm0,8.25h-49.52a2.75,2.75,0,1,1,0-5.5h49.52a2.75,2.75,0,0,1,0,5.5Z"/><path class="cls-4" d="M1545.24,102a13.74,13.74,0,0,0-13.32,10.31,1.37,1.37,0,0,0,2.66.69,11,11,0,1,1,7,13.13,1.38,1.38,0,0,0-.91,2.6,13.76,13.76,0,1,0,4.59-26.73Z"/><path class="cls-4" d="M1519.1,106.1h-5.5a23.42,23.42,0,0,0-23.39,23.39,1.38,1.38,0,0,0,1.38,1.38h49.52a1.38,1.38,0,0,0,1.38-1.38A23.42,23.42,0,0,0,1519.1,106.1Zm-26.09,22a20.66,20.66,0,0,1,20.59-19.26h5.5a20.66,20.66,0,0,1,20.59,19.26Z"/><rect class="cls-4" x="1502.59" y="114.36" width="2.75" height="2.75"/><rect class="cls-4" x="1501.22" y="119.86" width="2.75" height="2.75"/><rect class="cls-4" x="1517.72" y="112.98" width="2.75" height="2.75"/><rect class="cls-4" x="1525.98" y="119.86" width="2.75" height="2.75"/><rect class="cls-4" x="1513.6" y="121.24" width="2.75" height="2.75"/><path class="cls-4" d="M1568.62,80h-46.77a1.37,1.37,0,0,0-1.37,1.37v5.51a1.37,1.37,0,0,0,1.37,1.37h46.77a1.37,1.37,0,0,0,1.38-1.37V81.34A1.37,1.37,0,0,0,1568.62,80Zm-1.37,5.5h-44V82.72h44Z"/><path class="cls-4" d="M1532.83,81.05l-4.13-19.26a1.38,1.38,0,0,0-2.69.58l4.13,19.26a1.36,1.36,0,0,0,1.34,1.09l.29,0A1.38,1.38,0,0,0,1532.83,81.05Z"/></g><g class="cls-3"><path class="cls-4" d="M1426.87,982.9a1.35,1.35,0,0,0-1-.43H1386a1.35,1.35,0,0,0-1,.43,1.39,1.39,0,0,0-.38,1l1,21.37a1.38,1.38,0,0,0,2.75-.13l-.93-19.93h37l-2.62,56.4h-30.9a1.38,1.38,0,0,0,0,2.76h32.21a1.38,1.38,0,0,0,1.38-1.32l2.75-59.15A1.39,1.39,0,0,0,1426.87,982.9Z"/><path class="cls-4" d="M1401.11,1033.37h-49.52a1.38,1.38,0,0,0-1.38,1.38,9.65,9.65,0,0,0,9.63,9.63h33a9.65,9.65,0,0,0,9.63-9.63A1.38,1.38,0,0,0,1401.11,1033.37Zm-8.25,8.25h-33a6.89,6.89,0,0,1-6.74-5.5h46.5A6.89,6.89,0,0,1,1392.86,1041.62Z"/><path class="cls-4" d="M1401.11,1025.12h-49.52a5.5,5.5,0,1,0,0,11h49.52a5.5,5.5,0,0,0,0-11Zm0,8.25h-49.52a2.75,2.75,0,1,1,0-5.5h49.52a2.75,2.75,0,0,1,0,5.5Z"/><path class="cls-4" d="M1405.24,999a13.74,13.74,0,0,0-13.32,10.31,1.37,1.37,0,0,0,2.66.69,11,11,0,1,1,7,13.13,1.38,1.38,0,0,0-.91,2.6,13.76,13.76,0,1,0,4.59-26.73Z"/><path class="cls-4" d="M1379.1,1003.1h-5.5a23.42,23.42,0,0,0-23.39,23.39,1.38,1.38,0,0,0,1.38,1.38h49.52a1.38,1.38,0,0,0,1.38-1.38A23.42,23.42,0,0,0,1379.1,1003.1Zm-26.09,22a20.66,20.66,0,0,1,20.59-19.26h5.5a20.66,20.66,0,0,1,20.59,19.26Z"/><rect class="cls-4" x="1362.59" y="1011.36" width="2.75" height="2.75"/><rect class="cls-4" x="1361.22" y="1016.86" width="2.75" height="2.75"/><rect class="cls-4" x="1377.72" y="1009.98" width="2.75" height="2.75"/><rect class="cls-4" x="1385.98" y="1016.86" width="2.75" height="2.75"/><rect class="cls-4" x="1373.6" y="1018.24" width="2.75" height="2.75"/><path class="cls-4" d="M1428.62,977h-46.77a1.37,1.37,0,0,0-1.37,1.37v5.51a1.37,1.37,0,0,0,1.37,1.37h46.77a1.37,1.37,0,0,0,1.38-1.37v-5.51A1.37,1.37,0,0,0,1428.62,977Zm-1.37,5.5h-44v-2.75h44Z"/><path class="cls-4" d="M1392.83,978.05l-4.13-19.26a1.38,1.38,0,0,0-2.69.58l4.13,19.26a1.36,1.36,0,0,0,1.34,1.09l.29,0A1.38,1.38,0,0,0,1392.83,978.05Z"/></g><g class="cls-3"><path class="cls-4" d="M794.87,972.9a1.35,1.35,0,0,0-1-.43H754a1.35,1.35,0,0,0-1,.43,1.39,1.39,0,0,0-.38,1l1,21.37a1.38,1.38,0,0,0,2.75-.13l-.93-19.93h37l-2.62,56.4h-30.9a1.38,1.38,0,0,0,0,2.76h32.21a1.38,1.38,0,0,0,1.38-1.32l2.75-59.15A1.39,1.39,0,0,0,794.87,972.9Z"/><path class="cls-4" d="M769.11,1023.37H719.59a1.38,1.38,0,0,0-1.38,1.38,9.65,9.65,0,0,0,9.63,9.63h33a9.65,9.65,0,0,0,9.63-9.63A1.38,1.38,0,0,0,769.11,1023.37Zm-8.25,8.25h-33a6.89,6.89,0,0,1-6.74-5.5h46.5A6.89,6.89,0,0,1,760.86,1031.62Z"/><path class="cls-4" d="M769.11,1015.12H719.59a5.5,5.5,0,1,0,0,11h49.52a5.5,5.5,0,0,0,0-11Zm0,8.25H719.59a2.75,2.75,0,1,1,0-5.5h49.52a2.75,2.75,0,0,1,0,5.5Z"/><path class="cls-4" d="M773.24,989a13.74,13.74,0,0,0-13.32,10.31,1.37,1.37,0,0,0,2.66.69,11,11,0,1,1,7,13.13,1.38,1.38,0,0,0-.91,2.6A13.76,13.76,0,1,0,773.24,989Z"/><path class="cls-4" d="M747.1,993.1h-5.5a23.42,23.42,0,0,0-23.39,23.39,1.38,1.38,0,0,0,1.38,1.38h49.52a1.38,1.38,0,0,0,1.38-1.38A23.42,23.42,0,0,0,747.1,993.1Zm-26.09,22a20.66,20.66,0,0,1,20.59-19.26h5.5a20.66,20.66,0,0,1,20.59,19.26Z"/><rect class="cls-4" x="730.59" y="1001.36" width="2.75" height="2.75"/><rect class="cls-4" x="729.22" y="1006.86" width="2.75" height="2.75"/><rect class="cls-4" x="745.72" y="999.98" width="2.75" height="2.75"/><rect class="cls-4" x="753.98" y="1006.86" width="2.75" height="2.75"/><rect class="cls-4" x="741.6" y="1008.24" width="2.75" height="2.75"/><path class="cls-4" d="M796.62,967H749.85a1.37,1.37,0,0,0-1.37,1.37v5.51a1.37,1.37,0,0,0,1.37,1.37h46.77a1.37,1.37,0,0,0,1.38-1.37v-5.51A1.37,1.37,0,0,0,796.62,967Zm-1.37,5.5h-44v-2.75h44Z"/><path class="cls-4" d="M760.83,968.05l-4.13-19.26a1.38,1.38,0,0,0-2.69.58l4.13,19.26a1.36,1.36,0,0,0,1.34,1.09l.29,0A1.38,1.38,0,0,0,760.83,968.05Z"/></g><g class="cls-3"><path class="cls-4" d="M337.87,963.9a1.35,1.35,0,0,0-1-.43H297a1.35,1.35,0,0,0-1,.43,1.39,1.39,0,0,0-.38,1l1,21.37a1.38,1.38,0,1,0,2.75-.13l-.93-19.93h37l-2.62,56.4h-30.9a1.38,1.38,0,0,0,0,2.76h32.21a1.38,1.38,0,0,0,1.38-1.32l2.75-59.15A1.39,1.39,0,0,0,337.87,963.9Z"/><path class="cls-4" d="M312.11,1014.37H262.59a1.38,1.38,0,0,0-1.38,1.38,9.65,9.65,0,0,0,9.63,9.63h33a9.65,9.65,0,0,0,9.63-9.63A1.38,1.38,0,0,0,312.11,1014.37Zm-8.25,8.25h-33a6.89,6.89,0,0,1-6.74-5.5h46.5A6.89,6.89,0,0,1,303.86,1022.62Z"/><path class="cls-4" d="M312.11,1006.12H262.59a5.5,5.5,0,1,0,0,11h49.52a5.5,5.5,0,0,0,0-11Zm0,8.25H262.59a2.75,2.75,0,1,1,0-5.5h49.52a2.75,2.75,0,0,1,0,5.5Z"/><path class="cls-4" d="M316.24,980a13.74,13.74,0,0,0-13.32,10.31,1.37,1.37,0,0,0,2.66.69,11,11,0,1,1,7,13.13,1.38,1.38,0,0,0-.91,2.6A13.76,13.76,0,1,0,316.24,980Z"/><path class="cls-4" d="M290.1,984.1h-5.5a23.42,23.42,0,0,0-23.39,23.39,1.38,1.38,0,0,0,1.38,1.38h49.52a1.38,1.38,0,0,0,1.38-1.38A23.42,23.42,0,0,0,290.1,984.1Zm-26.09,22a20.66,20.66,0,0,1,20.59-19.26h5.5a20.66,20.66,0,0,1,20.59,19.26Z"/><rect class="cls-4" x="273.59" y="992.36" width="2.75" height="2.75"/><rect class="cls-4" x="272.22" y="997.86" width="2.75" height="2.75"/><rect class="cls-4" x="288.72" y="990.98" width="2.75" height="2.75"/><rect class="cls-4" x="296.98" y="997.86" width="2.75" height="2.75"/><rect class="cls-4" x="284.6" y="999.24" width="2.75" height="2.75"/><path class="cls-4" d="M339.62,958H292.85a1.37,1.37,0,0,0-1.37,1.37v5.51a1.37,1.37,0,0,0,1.37,1.37h46.77a1.37,1.37,0,0,0,1.38-1.37v-5.51A1.37,1.37,0,0,0,339.62,958Zm-1.37,5.5h-44v-2.75h44Z"/><path class="cls-4" d="M303.83,959.05l-4.13-19.26a1.38,1.38,0,0,0-2.69.58l4.13,19.26a1.36,1.36,0,0,0,1.34,1.09l.29,0A1.38,1.38,0,0,0,303.83,959.05Z"/></g><g class="cls-3"><path class="cls-4" d="M1013.87,540.9a1.35,1.35,0,0,0-1-.43H973a1.35,1.35,0,0,0-1,.43,1.39,1.39,0,0,0-.38,1l1,21.37a1.38,1.38,0,0,0,2.75-.13l-.93-19.93h37l-2.62,56.4h-30.9a1.38,1.38,0,0,0,0,2.76h32.21a1.38,1.38,0,0,0,1.38-1.32l2.75-59.15A1.39,1.39,0,0,0,1013.87,540.9Z"/><path class="cls-4" d="M988.11,591.37H938.59a1.38,1.38,0,0,0-1.38,1.38,9.65,9.65,0,0,0,9.63,9.63h33a9.65,9.65,0,0,0,9.63-9.63A1.38,1.38,0,0,0,988.11,591.37Zm-8.25,8.25h-33a6.89,6.89,0,0,1-6.74-5.5h46.5A6.89,6.89,0,0,1,979.86,599.62Z"/><path class="cls-4" d="M988.11,583.12H938.59a5.5,5.5,0,1,0,0,11h49.52a5.5,5.5,0,0,0,0-11Zm0,8.25H938.59a2.75,2.75,0,1,1,0-5.5h49.52a2.75,2.75,0,0,1,0,5.5Z"/><path class="cls-4" d="M992.24,557a13.74,13.74,0,0,0-13.32,10.31,1.37,1.37,0,0,0,2.66.69,11,11,0,1,1,7,13.13,1.38,1.38,0,0,0-.91,2.6A13.76,13.76,0,1,0,992.24,557Z"/><path class="cls-4" d="M966.1,561.1h-5.5a23.42,23.42,0,0,0-23.39,23.39,1.38,1.38,0,0,0,1.38,1.38h49.52a1.38,1.38,0,0,0,1.38-1.38A23.42,23.42,0,0,0,966.1,561.1Zm-26.09,22a20.66,20.66,0,0,1,20.59-19.26h5.5a20.66,20.66,0,0,1,20.59,19.26Z"/><rect class="cls-4" x="949.59" y="569.36" width="2.75" height="2.75"/><rect class="cls-4" x="948.22" y="574.86" width="2.75" height="2.75"/><rect class="cls-4" x="964.72" y="567.98" width="2.75" height="2.75"/><rect class="cls-4" x="972.98" y="574.86" width="2.75" height="2.75"/><rect class="cls-4" x="960.6" y="576.24" width="2.75" height="2.75"/><path class="cls-4" d="M1015.62,535H968.85a1.37,1.37,0,0,0-1.37,1.37v5.51a1.37,1.37,0,0,0,1.37,1.37h46.77a1.37,1.37,0,0,0,1.38-1.37v-5.51A1.37,1.37,0,0,0,1015.62,535Zm-1.37,5.5h-44v-2.75h44Z"/><path class="cls-4" d="M979.83,536.05l-4.13-19.26a1.38,1.38,0,0,0-2.69.58l4.13,19.26a1.36,1.36,0,0,0,1.34,1.09l.29,0A1.38,1.38,0,0,0,979.83,536.05Z"/></g><g class="cls-3"><path class="cls-4" d="M328.87,457.9a1.35,1.35,0,0,0-1-.43H288a1.35,1.35,0,0,0-1,.43,1.39,1.39,0,0,0-.38,1l1,21.37a1.38,1.38,0,0,0,2.75-.13l-.93-19.93h37l-2.62,56.4h-30.9a1.38,1.38,0,0,0,0,2.76h32.21a1.38,1.38,0,0,0,1.38-1.32l2.75-59.15A1.39,1.39,0,0,0,328.87,457.9Z"/><path class="cls-4" d="M303.11,508.37H253.59a1.38,1.38,0,0,0-1.38,1.38,9.65,9.65,0,0,0,9.63,9.63h33a9.65,9.65,0,0,0,9.63-9.63A1.38,1.38,0,0,0,303.11,508.37Zm-8.25,8.25h-33a6.89,6.89,0,0,1-6.74-5.5h46.5A6.89,6.89,0,0,1,294.86,516.62Z"/><path class="cls-4" d="M303.11,500.12H253.59a5.5,5.5,0,1,0,0,11h49.52a5.5,5.5,0,0,0,0-11Zm0,8.25H253.59a2.75,2.75,0,1,1,0-5.5h49.52a2.75,2.75,0,0,1,0,5.5Z"/><path class="cls-4" d="M307.24,474a13.74,13.74,0,0,0-13.32,10.31,1.37,1.37,0,0,0,2.66.69,11,11,0,1,1,7,13.13,1.38,1.38,0,0,0-.91,2.6A13.76,13.76,0,1,0,307.24,474Z"/><path class="cls-4" d="M281.1,478.1h-5.5a23.42,23.42,0,0,0-23.39,23.39,1.38,1.38,0,0,0,1.38,1.38h49.52a1.38,1.38,0,0,0,1.38-1.38A23.42,23.42,0,0,0,281.1,478.1Zm-26.09,22a20.66,20.66,0,0,1,20.59-19.26h5.5a20.66,20.66,0,0,1,20.59,19.26Z"/><rect class="cls-4" x="264.59" y="486.36" width="2.75" height="2.75"/><rect class="cls-4" x="263.22" y="491.86" width="2.75" height="2.75"/><rect class="cls-4" x="279.72" y="484.98" width="2.75" height="2.75"/><rect class="cls-4" x="287.98" y="491.86" width="2.75" height="2.75"/><rect class="cls-4" x="275.6" y="493.24" width="2.75" height="2.75"/><path class="cls-4" d="M330.62,452H283.85a1.37,1.37,0,0,0-1.37,1.37v5.51a1.37,1.37,0,0,0,1.37,1.37h46.77a1.37,1.37,0,0,0,1.38-1.37v-5.51A1.37,1.37,0,0,0,330.62,452Zm-1.37,5.5h-44v-2.75h44Z"/><path class="cls-4" d="M294.83,453.05l-4.13-19.26a1.38,1.38,0,0,0-2.69.58l4.13,19.26a1.36,1.36,0,0,0,1.34,1.09l.29,0A1.38,1.38,0,0,0,294.83,453.05Z"/></g><g class="cls-3"><path class="cls-4" d="M761.87,274.9a1.35,1.35,0,0,0-1-.43H721a1.35,1.35,0,0,0-1,.43,1.39,1.39,0,0,0-.38,1l1,21.37a1.38,1.38,0,1,0,2.75-.13l-.93-19.93h37l-2.62,56.4h-30.9a1.38,1.38,0,0,0,0,2.76h32.21a1.38,1.38,0,0,0,1.38-1.32l2.75-59.15A1.39,1.39,0,0,0,761.87,274.9Z"/><path class="cls-4" d="M736.11,325.37H686.59a1.38,1.38,0,0,0-1.38,1.38,9.65,9.65,0,0,0,9.63,9.63h33a9.65,9.65,0,0,0,9.63-9.63A1.38,1.38,0,0,0,736.11,325.37Zm-8.25,8.25h-33a6.89,6.89,0,0,1-6.74-5.5h46.5A6.89,6.89,0,0,1,727.86,333.62Z"/><path class="cls-4" d="M736.11,317.12H686.59a5.5,5.5,0,1,0,0,11h49.52a5.5,5.5,0,0,0,0-11Zm0,8.25H686.59a2.75,2.75,0,1,1,0-5.5h49.52a2.75,2.75,0,0,1,0,5.5Z"/><path class="cls-4" d="M740.24,291a13.74,13.74,0,0,0-13.32,10.31,1.37,1.37,0,0,0,2.66.69,11,11,0,1,1,7,13.13,1.38,1.38,0,0,0-.91,2.6A13.76,13.76,0,1,0,740.24,291Z"/><path class="cls-4" d="M714.1,295.1h-5.5a23.42,23.42,0,0,0-23.39,23.39,1.38,1.38,0,0,0,1.38,1.38h49.52a1.38,1.38,0,0,0,1.38-1.38A23.42,23.42,0,0,0,714.1,295.1Zm-26.09,22a20.66,20.66,0,0,1,20.59-19.26h5.5a20.66,20.66,0,0,1,20.59,19.26Z"/><rect class="cls-4" x="697.59" y="303.36" width="2.75" height="2.75"/><rect class="cls-4" x="696.22" y="308.86" width="2.75" height="2.75"/><rect class="cls-4" x="712.72" y="301.98" width="2.75" height="2.75"/><rect class="cls-4" x="720.98" y="308.86" width="2.75" height="2.75"/><rect class="cls-4" x="708.6" y="310.24" width="2.75" height="2.75"/><path class="cls-4" d="M763.62,269H716.85a1.37,1.37,0,0,0-1.37,1.37v5.51a1.37,1.37,0,0,0,1.37,1.37h46.77a1.37,1.37,0,0,0,1.38-1.37v-5.51A1.37,1.37,0,0,0,763.62,269Zm-1.37,5.5h-44v-2.75h44Z"/><path class="cls-4" d="M727.83,270.05l-4.13-19.26a1.38,1.38,0,0,0-2.69.58l4.13,19.26a1.36,1.36,0,0,0,1.34,1.09l.29,0A1.38,1.38,0,0,0,727.83,270.05Z"/></g><g class="cls-3"><path class="cls-4" d="M1278.87,299.9a1.35,1.35,0,0,0-1-.43H1238a1.35,1.35,0,0,0-1,.43,1.39,1.39,0,0,0-.38,1l1,21.37a1.38,1.38,0,0,0,2.75-.13l-.93-19.93h37l-2.62,56.4h-30.9a1.38,1.38,0,0,0,0,2.76h32.21a1.38,1.38,0,0,0,1.38-1.32l2.75-59.15A1.39,1.39,0,0,0,1278.87,299.9Z"/><path class="cls-4" d="M1253.11,350.37h-49.52a1.38,1.38,0,0,0-1.38,1.38,9.65,9.65,0,0,0,9.63,9.63h33a9.65,9.65,0,0,0,9.63-9.63A1.38,1.38,0,0,0,1253.11,350.37Zm-8.25,8.25h-33a6.89,6.89,0,0,1-6.74-5.5h46.5A6.89,6.89,0,0,1,1244.86,358.62Z"/><path class="cls-4" d="M1253.11,342.12h-49.52a5.5,5.5,0,1,0,0,11h49.52a5.5,5.5,0,0,0,0-11Zm0,8.25h-49.52a2.75,2.75,0,1,1,0-5.5h49.52a2.75,2.75,0,0,1,0,5.5Z"/><path class="cls-4" d="M1257.24,316a13.74,13.74,0,0,0-13.32,10.31,1.37,1.37,0,0,0,2.66.69,11,11,0,1,1,7,13.13,1.38,1.38,0,0,0-.91,2.6,13.76,13.76,0,1,0,4.59-26.73Z"/><path class="cls-4" d="M1231.1,320.1h-5.5a23.42,23.42,0,0,0-23.39,23.39,1.38,1.38,0,0,0,1.38,1.38h49.52a1.38,1.38,0,0,0,1.38-1.38A23.42,23.42,0,0,0,1231.1,320.1Zm-26.09,22a20.66,20.66,0,0,1,20.59-19.26h5.5a20.66,20.66,0,0,1,20.59,19.26Z"/><rect class="cls-4" x="1214.59" y="328.36" width="2.75" height="2.75"/><rect class="cls-4" x="1213.22" y="333.86" width="2.75" height="2.75"/><rect class="cls-4" x="1229.72" y="326.98" width="2.75" height="2.75"/><rect class="cls-4" x="1237.98" y="333.86" width="2.75" height="2.75"/><rect class="cls-4" x="1225.6" y="335.24" width="2.75" height="2.75"/><path class="cls-4" d="M1280.62,294h-46.77a1.37,1.37,0,0,0-1.37,1.37v5.51a1.37,1.37,0,0,0,1.37,1.37h46.77a1.37,1.37,0,0,0,1.38-1.37v-5.51A1.37,1.37,0,0,0,1280.62,294Zm-1.37,5.5h-44v-2.75h44Z"/><path class="cls-4" d="M1244.83,295.05l-4.13-19.26a1.38,1.38,0,0,0-2.69.58l4.13,19.26a1.36,1.36,0,0,0,1.34,1.09l.29,0A1.38,1.38,0,0,0,1244.83,295.05Z"/></g><g class="cls-3"><path class="cls-4" d="M134.78,333.27v-3a6,6,0,0,0-6.05-6H127a4.49,4.49,0,0,0,.26-1.52v-1.51h3a1.51,1.51,0,0,0,1.51-1.51v-4.49a21,21,0,0,0-11.7-18.93l-.45-.22a44.06,44.06,0,0,0-39.22,0l-.44.22a21,21,0,0,0-11.7,18.93v4.49a1.51,1.51,0,0,0,1.51,1.51h3v1.51a4.49,4.49,0,0,0,.26,1.52H71.27a6.06,6.06,0,0,0-6,6v3a6.06,6.06,0,0,0,6,6.05h.67a8.18,8.18,0,0,0-.67,3.25v1.28H69.76a1.52,1.52,0,0,0-1.51,1.52v6A4.54,4.54,0,0,0,72.79,356h54.43a4.54,4.54,0,0,0,4.54-4.54v-6a1.52,1.52,0,0,0-1.51-1.52h-1.52v-1.28a8,8,0,0,0-.67-3.25h.67A6.06,6.06,0,0,0,134.78,333.27Zm-63.51-18.1a18,18,0,0,1,10-16.22l.44-.23a41,41,0,0,1,36.51,0l.44.23a18,18,0,0,1,10,16.22v3H71.27Zm4.54,7.51v-1.51H124.2v1.51a1.52,1.52,0,0,1-1.51,1.52h-3a1.51,1.51,0,0,0-1.35.83l-1.67,3.35a3.39,3.39,0,0,1-6,0L108.92,325a1.52,1.52,0,0,0-1.36-.83H77.32A1.52,1.52,0,0,1,75.81,322.68Zm-7.56,10.59v-3a3,3,0,0,1,3-3h35.36l1.25,2.51a6.41,6.41,0,0,0,11.46,0l1.26-2.51h8.13a3,3,0,0,1,3,3v3a3,3,0,0,1-3,3h-3a7.11,7.11,0,0,0-2.56-1.25,7.47,7.47,0,0,0-6.52,1.28,7.67,7.67,0,0,0-8.31-.52,7.68,7.68,0,0,0-8.32.52,7.67,7.67,0,0,0-8.31-.52,7.67,7.67,0,0,0-8.31.52A7.48,7.48,0,0,0,76.85,335a7.19,7.19,0,0,0-2.56,1.25h-3a3,3,0,0,1-3-3Zm60.48,18.14a1.51,1.51,0,0,1-1.51,1.52H72.79a1.52,1.52,0,0,1-1.52-1.52v-4.53h57.46ZM74.3,343.85v-1.28A4.71,4.71,0,0,1,77.61,338a4.52,4.52,0,0,1,4.62,1.42,1.53,1.53,0,0,0,2.28,0,4.57,4.57,0,0,1,6.23-.58,1.52,1.52,0,0,0,1.89,0,4.59,4.59,0,0,1,6.24.58,1.57,1.57,0,0,0,2.27,0,4.59,4.59,0,0,1,6.24-.58,1.52,1.52,0,0,0,1.89,0,4.57,4.57,0,0,1,6.23.58,1.58,1.58,0,0,0,2.28,0A4.52,4.52,0,0,1,122.4,338a4.72,4.72,0,0,1,3.31,4.61v1.28Z"/><path class="cls-4" d="M82.29,310.57l3-3,2.13,2.14-3,3Z"/><path class="cls-4" d="M86.83,303l3-3L92,302.12l-3,3Z"/><path class="cls-4" d="M92.88,310.57l3-3L98,309.68l-3,3Z"/><path class="cls-4" d="M97.41,301.49l3-3,2.14,2.14-3,3Z"/><path class="cls-4" d="M102,310.57l3-3,2.14,2.14-3,3Z"/><path class="cls-4" d="M108,303l3-3,2.14,2.13-3,3Z"/><path class="cls-4" d="M112.53,310.57l3-3,2.13,2.13-3,3Z"/><path class="cls-4" d="M159,274.3h-6v3h6v6.05H113.61v-6.05H149.9v-3h-8.42L143.83,261a1.48,1.48,0,0,0-.33-1.23,1.5,1.5,0,0,0-1.16-.55h-5.86a1.52,1.52,0,0,0-1.49,1.25l-2.44,13.88H113.61a3,3,0,0,0-3,3v6.05a3,3,0,0,0,3,3v4.54h3v-4.54H156v15.12H131.76v3h24l-2.64,21.17h-15.3v3h15.11l-2.69,22.86a1.52,1.52,0,0,1-1.5,1.34H134.78v3h13.95a4.52,4.52,0,0,0,4.5-4L159,303.2v-.11s0,0,0,0h0V286.39a3,3,0,0,0,3-3v-6.05a3,3,0,0,0-3-3Zm-21.23-12.1h2.79l-2.13,12.1h-2.79Z"/></g><g class="cls-3"><path class="cls-4" d="M652.78,161.27v-3a6,6,0,0,0-6-6H645a4.49,4.49,0,0,0,.26-1.52v-1.51h3a1.51,1.51,0,0,0,1.51-1.51v-4.49a21,21,0,0,0-11.7-18.93l-.45-.22a44.06,44.06,0,0,0-39.22,0l-.44.22a21,21,0,0,0-11.7,18.93v4.49a1.51,1.51,0,0,0,1.51,1.51h3v1.51a4.49,4.49,0,0,0,.26,1.52h-1.78a6.06,6.06,0,0,0-6,6v3a6.06,6.06,0,0,0,6,6h.67a8.18,8.18,0,0,0-.67,3.25v1.28h-1.51a1.52,1.52,0,0,0-1.51,1.52v6a4.54,4.54,0,0,0,4.54,4.54h54.43a4.54,4.54,0,0,0,4.54-4.54v-6a1.52,1.52,0,0,0-1.51-1.52h-1.52v-1.28a8,8,0,0,0-.67-3.25h.67A6.06,6.06,0,0,0,652.78,161.27Zm-63.51-18.1a18,18,0,0,1,10-16.22l.44-.23a41,41,0,0,1,36.51,0l.44.23a18,18,0,0,1,10,16.22v3H589.27Zm4.54,7.51v-1.51H642.2v1.51a1.52,1.52,0,0,1-1.51,1.52h-3a1.51,1.51,0,0,0-1.35.83l-1.67,3.35a3.39,3.39,0,0,1-6,0L626.92,153a1.52,1.52,0,0,0-1.36-.83H595.32A1.52,1.52,0,0,1,593.81,150.68Zm-7.56,10.59v-3a3,3,0,0,1,3-3h35.36l1.25,2.51a6.41,6.41,0,0,0,11.46,0l1.26-2.51h8.13a3,3,0,0,1,3,3v3a3,3,0,0,1-3,3h-3a7.11,7.11,0,0,0-2.56-1.25,7.47,7.47,0,0,0-6.52,1.28,7.67,7.67,0,0,0-8.31-.52,7.68,7.68,0,0,0-8.32.52,7.67,7.67,0,0,0-8.31-.52,7.67,7.67,0,0,0-8.31.52,7.48,7.48,0,0,0-6.53-1.28,7.19,7.19,0,0,0-2.56,1.25h-3a3,3,0,0,1-3-3Zm60.48,18.14a1.51,1.51,0,0,1-1.51,1.52H590.79a1.52,1.52,0,0,1-1.52-1.52v-4.53h57.46Zm-54.43-7.56v-1.28a4.71,4.71,0,0,1,3.31-4.61,4.52,4.52,0,0,1,4.62,1.42,1.53,1.53,0,0,0,2.28,0,4.57,4.57,0,0,1,6.23-.58,1.52,1.52,0,0,0,1.89,0,4.59,4.59,0,0,1,6.24.58,1.57,1.57,0,0,0,2.27,0,4.59,4.59,0,0,1,6.24-.58,1.52,1.52,0,0,0,1.89,0,4.57,4.57,0,0,1,6.23.58,1.58,1.58,0,0,0,2.28,0A4.52,4.52,0,0,1,640.4,166a4.72,4.72,0,0,1,3.31,4.61v1.28Z"/><path class="cls-4" d="M600.29,138.57l3-3,2.13,2.14-3,3Z"/><path class="cls-4" d="M604.83,131l3-3,2.14,2.14-3,3Z"/><path class="cls-4" d="M610.88,138.57l3-3,2.14,2.14-3,3Z"/><path class="cls-4" d="M615.41,129.49l3-3,2.14,2.14-3,3Z"/><path class="cls-4" d="M620,138.57l3-3,2.14,2.14-3,3Z"/><path class="cls-4" d="M626,131l3-3,2.14,2.13-3,3Z"/><path class="cls-4" d="M630.53,138.57l3-3,2.13,2.13-3,3Z"/><path class="cls-4" d="M677,102.3h-6.05v3H677v6.05H631.61v-6.05H667.9v-3h-8.42L661.83,89a1.48,1.48,0,0,0-.33-1.23,1.5,1.5,0,0,0-1.16-.55h-5.86A1.52,1.52,0,0,0,653,88.42l-2.44,13.88H631.61a3,3,0,0,0-3,3v6.05a3,3,0,0,0,3,3v4.54h3v-4.54H674v15.12H649.76v3h24l-2.64,21.17h-15.3v3h15.11l-2.69,22.86a1.52,1.52,0,0,1-1.5,1.34h-14v3h14a4.52,4.52,0,0,0,4.5-4L677,131.2v-.11s0,0,0-.05h0V114.39a3,3,0,0,0,3-3v-6.05a3,3,0,0,0-3-3ZM655.75,90.2h2.79l-2.13,12.1h-2.79Z"/></g><g class="cls-3"><path class="cls-4" d="M1051.78,231.27v-3a6,6,0,0,0-6-6H1044a4.49,4.49,0,0,0,.26-1.52v-1.51h3a1.51,1.51,0,0,0,1.51-1.51v-4.49a21,21,0,0,0-11.7-18.93l-.45-.22a44.06,44.06,0,0,0-39.22,0l-.44.22a21,21,0,0,0-11.7,18.93v4.49a1.51,1.51,0,0,0,1.51,1.51h3v1.51a4.49,4.49,0,0,0,.26,1.52h-1.78a6.06,6.06,0,0,0-6,6v3a6.06,6.06,0,0,0,6,6h.67a8.18,8.18,0,0,0-.67,3.25v1.28h-1.51a1.52,1.52,0,0,0-1.51,1.52v6a4.54,4.54,0,0,0,4.54,4.54h54.43a4.54,4.54,0,0,0,4.54-4.54v-6a1.52,1.52,0,0,0-1.51-1.52h-1.52v-1.28a8,8,0,0,0-.67-3.25h.67A6.06,6.06,0,0,0,1051.78,231.27Zm-63.51-18.1a18,18,0,0,1,10-16.22l.44-.23a41,41,0,0,1,36.51,0l.44.23a18,18,0,0,1,10,16.22v3H988.27Zm4.54,7.51v-1.51h48.39v1.51a1.52,1.52,0,0,1-1.51,1.52h-3a1.51,1.51,0,0,0-1.35.83l-1.67,3.35a3.39,3.39,0,0,1-6.05,0l-1.67-3.35a1.52,1.52,0,0,0-1.36-.83H994.32A1.52,1.52,0,0,1,992.81,220.68Zm-7.56,10.59v-3a3,3,0,0,1,3-3h35.36l1.25,2.51a6.41,6.41,0,0,0,11.46,0l1.26-2.51h8.13a3,3,0,0,1,3,3v3a3,3,0,0,1-3,3h-3a7.11,7.11,0,0,0-2.56-1.25,7.47,7.47,0,0,0-6.52,1.28,66.74,66.74,0,0,0-16.63,0,66.66,66.66,0,0,0-16.62,0,7.48,7.48,0,0,0-6.53-1.28,7.19,7.19,0,0,0-2.56,1.25h-3a3,3,0,0,1-3-3Zm60.48,18.14a1.51,1.51,0,0,1-1.51,1.52H989.79a1.52,1.52,0,0,1-1.52-1.52v-4.53h57.46Zm-54.43-7.56v-1.28a4.71,4.71,0,0,1,3.31-4.61,4.52,4.52,0,0,1,4.62,1.42,1.53,1.53,0,0,0,2.28,0,4.57,4.57,0,0,1,6.23-.58,1.52,1.52,0,0,0,1.89,0,4.59,4.59,0,0,1,6.24.58,1.57,1.57,0,0,0,2.27,0,4.59,4.59,0,0,1,6.24-.58,1.52,1.52,0,0,0,1.89,0,4.57,4.57,0,0,1,6.23.58,1.58,1.58,0,0,0,2.28,0,4.52,4.52,0,0,1,4.62-1.42,4.72,4.72,0,0,1,3.31,4.61v1.28Z"/><path class="cls-4" d="M999.29,208.57l3-3,2.13,2.14-3,3Z"/><path class="cls-4" d="M1003.83,201l3-3,2.14,2.14-3,3Z"/><path class="cls-4" d="M1009.88,208.57l3-3,2.14,2.14-3,3Z"/><path class="cls-4" d="M1014.41,199.49l3-3,2.14,2.14-3,3Z"/><path class="cls-4" d="M1019,208.57l3-3,2.14,2.14-3,3Z"/><path class="cls-4" d="M1025,201l3-3,2.14,2.13-3,3Z"/><path class="cls-4" d="M1029.53,208.57l3-3,2.13,2.13-3,3Z"/><path class="cls-4" d="M1076,172.3h-6v3h6v6.05h-45.37v-6.05h36.29v-3h-8.42l2.35-13.35a1.48,1.48,0,0,0-.33-1.23,1.5,1.5,0,0,0-1.16-.55h-5.86a1.52,1.52,0,0,0-1.49,1.25l-2.44,13.88h-18.94a3,3,0,0,0-3,3v6.05a3,3,0,0,0,3,3v4.54h3v-4.54H1073v15.12h-24.19v3h24l-2.64,21.17h-15.3v3h15.11l-2.69,22.86a1.52,1.52,0,0,1-1.5,1.34h-14v3h14a4.52,4.52,0,0,0,4.5-4L1076,201.2v-.11s0,0,0-.05h0V184.39a3,3,0,0,0,3-3v-6.05a3,3,0,0,0-3-3Zm-21.23-12.1h2.79l-2.13,12.1h-2.79Z"/></g><g class="cls-3"><path class="cls-4" d="M1404.78,189.27v-3a6,6,0,0,0-6-6H1397a4.49,4.49,0,0,0,.26-1.52v-1.51h3a1.51,1.51,0,0,0,1.51-1.51v-4.49a21,21,0,0,0-11.7-18.93l-.45-.22a44.06,44.06,0,0,0-39.22,0l-.44.22a21,21,0,0,0-11.7,18.93v4.49a1.51,1.51,0,0,0,1.51,1.51h3v1.51a4.49,4.49,0,0,0,.26,1.52h-1.78a6.06,6.06,0,0,0-6,6v3a6.06,6.06,0,0,0,6,6h.67a8.18,8.18,0,0,0-.67,3.25v1.28h-1.51a1.52,1.52,0,0,0-1.51,1.52v6a4.54,4.54,0,0,0,4.54,4.54h54.43a4.54,4.54,0,0,0,4.54-4.54v-6a1.52,1.52,0,0,0-1.51-1.52h-1.52v-1.28a8,8,0,0,0-.67-3.25h.67A6.06,6.06,0,0,0,1404.78,189.27Zm-63.51-18.1a18,18,0,0,1,10-16.22l.44-.23a41,41,0,0,1,36.51,0l.44.23a18,18,0,0,1,10,16.22v3h-57.46Zm4.54,7.51v-1.51h48.39v1.51a1.52,1.52,0,0,1-1.51,1.52h-3a1.51,1.51,0,0,0-1.35.83l-1.67,3.35a3.39,3.39,0,0,1-6.05,0l-1.67-3.35a1.52,1.52,0,0,0-1.36-.83h-30.24A1.52,1.52,0,0,1,1345.81,178.68Zm-7.56,10.59v-3a3,3,0,0,1,3-3h35.36l1.25,2.51a6.41,6.41,0,0,0,11.46,0l1.26-2.51h8.13a3,3,0,0,1,3,3v3a3,3,0,0,1-3,3h-3a7.11,7.11,0,0,0-2.56-1.25,7.47,7.47,0,0,0-6.52,1.28,66.74,66.74,0,0,0-16.63,0,66.66,66.66,0,0,0-16.62,0,7.48,7.48,0,0,0-6.53-1.28,7.19,7.19,0,0,0-2.56,1.25h-3a3,3,0,0,1-3-3Zm60.48,18.14a1.51,1.51,0,0,1-1.51,1.52h-54.43a1.52,1.52,0,0,1-1.52-1.52v-4.53h57.46Zm-54.43-7.56v-1.28a4.71,4.71,0,0,1,3.31-4.61,4.52,4.52,0,0,1,4.62,1.42,1.53,1.53,0,0,0,2.28,0,4.57,4.57,0,0,1,6.23-.58,1.52,1.52,0,0,0,1.89,0,4.59,4.59,0,0,1,6.24.58,1.57,1.57,0,0,0,2.27,0,4.59,4.59,0,0,1,6.24-.58,1.52,1.52,0,0,0,1.89,0,4.57,4.57,0,0,1,6.23.58,1.58,1.58,0,0,0,2.28,0,4.52,4.52,0,0,1,4.62-1.42,4.72,4.72,0,0,1,3.31,4.61v1.28Z"/><path class="cls-4" d="M1352.29,166.57l3-3,2.13,2.14-3,3Z"/><path class="cls-4" d="M1356.83,159l3-3,2.14,2.14-3,3Z"/><path class="cls-4" d="M1362.88,166.57l3-3,2.14,2.14-3,3Z"/><path class="cls-4" d="M1367.41,157.49l3-3,2.14,2.14-3,3Z"/><path class="cls-4" d="M1372,166.57l3-3,2.14,2.14-3,3Z"/><path class="cls-4" d="M1378,159l3-3,2.14,2.13-3,3Z"/><path class="cls-4" d="M1382.53,166.57l3-3,2.13,2.13-3,3Z"/><path class="cls-4" d="M1429,130.3h-6v3h6v6.05h-45.37v-6.05h36.29v-3h-8.42l2.35-13.35a1.48,1.48,0,0,0-.33-1.23,1.5,1.5,0,0,0-1.16-.55h-5.86a1.52,1.52,0,0,0-1.49,1.25l-2.44,13.88h-18.94a3,3,0,0,0-3,3v6.05a3,3,0,0,0,3,3v4.54h3v-4.54H1426v15.12h-24.19v3h24l-2.64,21.17h-15.3v3h15.11l-2.69,22.86a1.52,1.52,0,0,1-1.5,1.34h-14v3h14a4.52,4.52,0,0,0,4.5-4L1429,159.2v-.11s0,0,0-.05h0V142.39a3,3,0,0,0,3-3v-6.05a3,3,0,0,0-3-3Zm-21.23-12.1h2.79l-2.13,12.1h-2.79Z"/></g><g class="cls-3"><path class="cls-4" d="M1573.78,504.27v-3a6,6,0,0,0-6-6H1566a4.49,4.49,0,0,0,.26-1.52v-1.51h3a1.51,1.51,0,0,0,1.51-1.51v-4.49a21,21,0,0,0-11.7-18.93l-.45-.22a44.06,44.06,0,0,0-39.22,0l-.44.22a21,21,0,0,0-11.7,18.93v4.49a1.51,1.51,0,0,0,1.51,1.51h3v1.51a4.49,4.49,0,0,0,.26,1.52h-1.78a6.06,6.06,0,0,0-6,6v3a6.06,6.06,0,0,0,6,6.05h.67a8.18,8.18,0,0,0-.67,3.25v1.28h-1.51a1.52,1.52,0,0,0-1.51,1.52v6a4.54,4.54,0,0,0,4.54,4.54h54.43a4.54,4.54,0,0,0,4.54-4.54v-6a1.52,1.52,0,0,0-1.51-1.52h-1.52v-1.28a8,8,0,0,0-.67-3.25h.67A6.06,6.06,0,0,0,1573.78,504.27Zm-63.51-18.1a18,18,0,0,1,10-16.22l.44-.23a41,41,0,0,1,36.51,0l.44.23a18,18,0,0,1,10,16.22v3h-57.46Zm4.54,7.51v-1.51h48.39v1.51a1.52,1.52,0,0,1-1.51,1.52h-3a1.51,1.51,0,0,0-1.35.83l-1.67,3.35a3.39,3.39,0,0,1-6.05,0l-1.67-3.35a1.52,1.52,0,0,0-1.36-.83h-30.24A1.52,1.52,0,0,1,1514.81,493.68Zm-7.56,10.59v-3a3,3,0,0,1,3-3h35.36l1.25,2.51a6.41,6.41,0,0,0,11.46,0l1.26-2.51h8.13a3,3,0,0,1,3,3v3a3,3,0,0,1-3,3h-3a7.11,7.11,0,0,0-2.56-1.25,7.47,7.47,0,0,0-6.52,1.28,66.74,66.74,0,0,0-16.63,0,66.66,66.66,0,0,0-16.62,0,7.48,7.48,0,0,0-6.53-1.28,7.19,7.19,0,0,0-2.56,1.25h-3a3,3,0,0,1-3-3Zm60.48,18.14a1.51,1.51,0,0,1-1.51,1.52h-54.43a1.52,1.52,0,0,1-1.52-1.52v-4.53h57.46Zm-54.43-7.56v-1.28a4.71,4.71,0,0,1,3.31-4.61,4.52,4.52,0,0,1,4.62,1.42,1.53,1.53,0,0,0,2.28,0,4.57,4.57,0,0,1,6.23-.58,1.52,1.52,0,0,0,1.89,0,4.59,4.59,0,0,1,6.24.58,1.57,1.57,0,0,0,2.27,0,4.59,4.59,0,0,1,6.24-.58,1.52,1.52,0,0,0,1.89,0,4.57,4.57,0,0,1,6.23.58,1.58,1.58,0,0,0,2.28,0,4.52,4.52,0,0,1,4.62-1.42,4.72,4.72,0,0,1,3.31,4.61v1.28Z"/><path class="cls-4" d="M1521.29,481.57l3-3,2.13,2.14-3,3Z"/><path class="cls-4" d="M1525.83,474l3-3,2.14,2.14-3,3Z"/><path class="cls-4" d="M1531.88,481.57l3-3,2.14,2.14-3,3Z"/><path class="cls-4" d="M1536.41,472.49l3-3,2.14,2.14-3,3Z"/><path class="cls-4" d="M1541,481.57l3-3,2.14,2.14-3,3Z"/><path class="cls-4" d="M1547,474l3-3,2.14,2.13-3,3Z"/><path class="cls-4" d="M1551.53,481.57l3-3,2.13,2.13-3,3Z"/><path class="cls-4" d="M1598,445.3h-6v3h6v6.05h-45.37v-6.05h36.29v-3h-8.42l2.35-13.35a1.48,1.48,0,0,0-.33-1.23,1.5,1.5,0,0,0-1.16-.55h-5.86a1.52,1.52,0,0,0-1.49,1.25l-2.44,13.88h-18.94a3,3,0,0,0-3,3v6.05a3,3,0,0,0,3,3v4.54h3v-4.54H1595v15.12h-24.19v3h24l-2.64,21.17h-15.3v3h15.11l-2.69,22.86a1.52,1.52,0,0,1-1.5,1.34h-14v3h14a4.52,4.52,0,0,0,4.5-4L1598,474.2v-.11s0,0,0,0h0V457.39a3,3,0,0,0,3-3v-6.05a3,3,0,0,0-3-3Zm-21.23-12.1h2.79l-2.13,12.1h-2.79Z"/></g><g class="cls-3"><path class="cls-4" d="M785.78,467.27v-3a6,6,0,0,0-6-6H778a4.49,4.49,0,0,0,.26-1.52v-1.51h3a1.51,1.51,0,0,0,1.51-1.51v-4.49a21,21,0,0,0-11.7-18.93l-.45-.22a44.06,44.06,0,0,0-39.22,0l-.44.22a21,21,0,0,0-11.7,18.93v4.49a1.51,1.51,0,0,0,1.51,1.51h3v1.51a4.49,4.49,0,0,0,.26,1.52h-1.78a6.06,6.06,0,0,0-6,6v3a6.06,6.06,0,0,0,6,6.05h.67a8.18,8.18,0,0,0-.67,3.25v1.28h-1.51a1.52,1.52,0,0,0-1.51,1.52v6a4.54,4.54,0,0,0,4.54,4.54h54.43a4.54,4.54,0,0,0,4.54-4.54v-6a1.52,1.52,0,0,0-1.51-1.52h-1.52v-1.28a8,8,0,0,0-.67-3.25h.67A6.06,6.06,0,0,0,785.78,467.27Zm-63.51-18.1a18,18,0,0,1,10-16.22l.44-.23a41,41,0,0,1,36.51,0l.44.23a18,18,0,0,1,10,16.22v3H722.27Zm4.54,7.51v-1.51H775.2v1.51a1.52,1.52,0,0,1-1.51,1.52h-3a1.51,1.51,0,0,0-1.35.83l-1.67,3.35a3.39,3.39,0,0,1-6,0L759.92,459a1.52,1.52,0,0,0-1.36-.83H728.32A1.52,1.52,0,0,1,726.81,456.68Zm-7.56,10.59v-3a3,3,0,0,1,3-3h35.36l1.25,2.51a6.41,6.41,0,0,0,11.46,0l1.26-2.51h8.13a3,3,0,0,1,3,3v3a3,3,0,0,1-3,3h-3a7.11,7.11,0,0,0-2.56-1.25,7.47,7.47,0,0,0-6.52,1.28,66.74,66.74,0,0,0-16.63,0,7.67,7.67,0,0,0-8.31-.52,7.67,7.67,0,0,0-8.31.52,7.48,7.48,0,0,0-6.53-1.28,7.19,7.19,0,0,0-2.56,1.25h-3a3,3,0,0,1-3-3Zm60.48,18.14a1.51,1.51,0,0,1-1.51,1.52H723.79a1.52,1.52,0,0,1-1.52-1.52v-4.53h57.46Zm-54.43-7.56v-1.28a4.71,4.71,0,0,1,3.31-4.61,4.52,4.52,0,0,1,4.62,1.42,1.53,1.53,0,0,0,2.28,0,4.57,4.57,0,0,1,6.23-.58,1.52,1.52,0,0,0,1.89,0,4.59,4.59,0,0,1,6.24.58,1.57,1.57,0,0,0,2.27,0,4.59,4.59,0,0,1,6.24-.58,1.52,1.52,0,0,0,1.89,0,4.57,4.57,0,0,1,6.23.58,1.58,1.58,0,0,0,2.28,0A4.52,4.52,0,0,1,773.4,472a4.72,4.72,0,0,1,3.31,4.61v1.28Z"/><path class="cls-4" d="M733.29,444.57l3-3,2.13,2.14-3,3Z"/><path class="cls-4" d="M737.83,437l3-3,2.14,2.14-3,3Z"/><path class="cls-4" d="M743.88,444.57l3-3,2.14,2.14-3,3Z"/><path class="cls-4" d="M748.41,435.49l3-3,2.14,2.14-3,3Z"/><path class="cls-4" d="M753,444.57l3-3,2.14,2.14-3,3Z"/><path class="cls-4" d="M759,437l3-3,2.14,2.13-3,3Z"/><path class="cls-4" d="M763.53,444.57l3-3,2.13,2.13-3,3Z"/><path class="cls-4" d="M810,408.3h-6.05v3H810v6.05H764.61v-6.05H800.9v-3h-8.42L794.83,395a1.48,1.48,0,0,0-.33-1.23,1.5,1.5,0,0,0-1.16-.55h-5.86a1.52,1.52,0,0,0-1.49,1.25l-2.44,13.88H764.61a3,3,0,0,0-3,3v6.05a3,3,0,0,0,3,3v4.54h3v-4.54H807v15.12H782.76v3h24l-2.64,21.17h-15.3v3h15.11l-2.69,22.86a1.52,1.52,0,0,1-1.5,1.34h-14v3h14a4.52,4.52,0,0,0,4.5-4L810,437.2v-.11s0,0,0,0h0V420.39a3,3,0,0,0,3-3v-6.05a3,3,0,0,0-3-3Zm-21.23-12.1h2.79l-2.13,12.1h-2.79Z"/></g><g class="cls-3"><path class="cls-4" d="M329.61,223.23h-.11l-1.93-1.93A33.91,33.91,0,0,0,293.71,188h-5.42a33.91,33.91,0,0,0-33.86,33.3l-2,2a4.06,4.06,0,0,0,.6,8.08h1.47a9.27,9.27,0,0,0,1.22,3.48,7.51,7.51,0,0,0-2.69,5.33,7.41,7.41,0,0,0,2.52,5.56l-.25-.14a6.74,6.74,0,0,0,1,8.08,4.07,4.07,0,0,0-1.91,3.44v5.42A9.49,9.49,0,0,0,263.9,272h54.2a9.49,9.49,0,0,0,9.48-9.48V257.1a4.07,4.07,0,0,0-1.91-3.44,6.74,6.74,0,0,0,1-8.08l-.24.14a7.44,7.44,0,0,0,2.51-5.56,6.74,6.74,0,0,0-2.66-5.38,9.47,9.47,0,0,0,1.3-4.78h2a3.39,3.39,0,1,0,0-6.77Zm-73.84,16.93a4.94,4.94,0,0,1,1.86-3.39h11.69v2.71H272v-2.71h31.16v16.94a2,2,0,1,1-4.06,0v-9.48a4.74,4.74,0,1,0-9.48,0v17.61a2,2,0,0,1-4.07,0V248.29a4.74,4.74,0,0,0-9.48,0v6.77a2,2,0,1,1-4.07,0V242.19h-2.71v2.49a4.66,4.66,0,0,1-2.59-1.91l-1.13-1.7-1.13,1.7a4.74,4.74,0,0,1-8.7-2.61Zm9.81-7.45,2.71-1.36h4.58l1.35-2.7h2.39l1.36,2.7h5.88l1.35-4.06h3.61l1.35,2.71h3.55v2.71h6.4l1.35-4.06h.9l1.35,2.7h5.74l1.36-2.7h2.66l2.71,2.7h5.46l1.21-2.4,2,.66c0,.13,0,.26,0,.39a6.69,6.69,0,0,1-1.39,4.06h-65a6.7,6.7,0,0,1-1.36-3.7l2.68-1.07v3.42Zm30.5,12.9c.11.1.23.18.34.27V253h-4.07v-5.55A7.36,7.36,0,0,0,296.08,245.61Zm-3.73-.93v-.45a2,2,0,0,1,2-2,2,2,0,0,1,.83.19l-.27.39A4.65,4.65,0,0,1,292.35,244.68Zm-9.48,3.61V253h-4.06v-4.74a2,2,0,0,1,4.06,0Zm-13.55-.8V253h-8.13a4.05,4.05,0,0,1-3.56-6,7.31,7.31,0,0,0,2.89.58,7.46,7.46,0,0,0,5.08-2A7.38,7.38,0,0,0,269.32,247.49Zm55.55,15a6.78,6.78,0,0,1-6.77,6.77H263.9a6.78,6.78,0,0,1-6.77-6.77V257.1a1.36,1.36,0,0,1,1.35-1.36h10.91a4.72,4.72,0,0,0,9.35,0h4.13v6.1a4.74,4.74,0,1,0,9.48,0v-6.1h4.54a4.72,4.72,0,0,0,8.54,0h18.09a1.36,1.36,0,0,1,1.35,1.36ZM320.81,253H305.9V245.9c.12-.09.23-.19.34-.29a7.45,7.45,0,0,0,10.16,0,7.46,7.46,0,0,0,5.08,2,7.31,7.31,0,0,0,2.89-.58,4.05,4.05,0,0,1-3.56,6Zm.67-8.13a4.72,4.72,0,0,1-4-2.13l-1.13-1.7-1.13,1.7a4.73,4.73,0,0,1-7.9,0l-1.13-1.7-.34.51v-4.81h18.54a4.08,4.08,0,0,1,1.79,3.39A4.75,4.75,0,0,1,321.48,244.9Zm8.13-17.61h-3.16l-5-1.66-1.51,3H317.3l-2.71-2.71h-5.46l-1.35,2.71h-2.39L304,225.94h-4.52L298.15,230h-1.73v-2.71h-4.58l-1.36-2.71h-7.23l-1.36,4.07h-2.25l-1.35-2.71h-5.74l-1.36,2.71h-3.54L264.94,230h-2.39v-4.71l-8.39,3.36h-1.1a1.36,1.36,0,0,1,0-2.71h.57l2.71-2.71H318.1v-2.71H257.16a31.2,31.2,0,0,1,31.13-29.81h5.42a31.2,31.2,0,0,1,31.13,29.81h-4v2.71h4.85l2.71,2.71h1.24a.68.68,0,1,1,0,1.35Z"/></g></svg>